<mxfile host="65bd71144e">
    <diagram name="Coto Notification API" id="8d5GvSXpOegcl3IYljHK">
        <mxGraphModel dx="1805" dy="944" grid="0" gridSize="10" guides="1" tooltips="1" connect="1" arrows="1" fold="1" page="1" pageScale="1" pageWidth="1600" pageHeight="1360" math="0" shadow="0">
            <root>
                <mxCell id="JSNP4mhpRl2PcN9VcqDA-0"/>
                <mxCell id="JSNP4mhpRl2PcN9VcqDA-1" parent="JSNP4mhpRl2PcN9VcqDA-0"/>
                <mxCell id="JSNP4mhpRl2PcN9VcqDA-3" value="" style="rounded=0;whiteSpace=wrap;html=1;dashed=1;" parent="JSNP4mhpRl2PcN9VcqDA-1" vertex="1">
                    <mxGeometry x="466" y="850" width="144" height="252" as="geometry"/>
                </mxCell>
                <mxCell id="JSNP4mhpRl2PcN9VcqDA-4" style="edgeStyle=orthogonalEdgeStyle;rounded=0;orthogonalLoop=1;jettySize=auto;html=1;" parent="JSNP4mhpRl2PcN9VcqDA-1" source="JSNP4mhpRl2PcN9VcqDA-6" target="JSNP4mhpRl2PcN9VcqDA-9" edge="1">
                    <mxGeometry relative="1" as="geometry"/>
                </mxCell>
                <mxCell id="JSNP4mhpRl2PcN9VcqDA-5" style="edgeStyle=orthogonalEdgeStyle;rounded=1;orthogonalLoop=1;jettySize=auto;html=1;curved=0;exitX=1;exitY=0.5;exitDx=0;exitDy=0;exitPerimeter=0;entryX=0;entryY=0.5;entryDx=0;entryDy=0;entryPerimeter=0;" parent="JSNP4mhpRl2PcN9VcqDA-1" source="JSNP4mhpRl2PcN9VcqDA-9" target="sFZHLIyC35yN5D26raUc-3" edge="1">
                    <mxGeometry relative="1" as="geometry">
                        <mxPoint x="766" y="771" as="targetPoint"/>
                    </mxGeometry>
                </mxCell>
                <mxCell id="sFZHLIyC35yN5D26raUc-6" value="Publish Message" style="edgeLabel;html=1;align=center;verticalAlign=middle;resizable=0;points=[];" parent="JSNP4mhpRl2PcN9VcqDA-5" vertex="1" connectable="0">
                    <mxGeometry x="-0.0964" y="-2" relative="1" as="geometry">
                        <mxPoint x="6" y="-4" as="offset"/>
                    </mxGeometry>
                </mxCell>
                <mxCell id="JSNP4mhpRl2PcN9VcqDA-6" value="&lt;span style=&quot;font-size: 11px; background-color: rgb(255, 255, 255);&quot;&gt;&lt;b&gt;apg-coto-notification-api&lt;/b&gt;&lt;/span&gt;" style="sketch=0;points=[[0,0,0],[0.25,0,0],[0.5,0,0],[0.75,0,0],[1,0,0],[0,1,0],[0.25,1,0],[0.5,1,0],[0.75,1,0],[1,1,0],[0,0.25,0],[0,0.5,0],[0,0.75,0],[1,0.25,0],[1,0.5,0],[1,0.75,0]];outlineConnect=0;fontColor=#232F3E;fillColor=#9933FF;strokeColor=#ffffff;dashed=0;verticalLabelPosition=bottom;verticalAlign=top;align=center;html=1;fontSize=12;fontStyle=0;aspect=fixed;shape=mxgraph.aws4.resourceIcon;resIcon=mxgraph.aws4.api_gateway;" parent="JSNP4mhpRl2PcN9VcqDA-1" vertex="1">
                    <mxGeometry x="499" y="527" width="78" height="78" as="geometry"/>
                </mxCell>
                <mxCell id="JSNP4mhpRl2PcN9VcqDA-7" style="edgeStyle=orthogonalEdgeStyle;rounded=1;orthogonalLoop=1;jettySize=auto;html=1;curved=0;exitX=0.5;exitY=1;exitDx=0;exitDy=0;exitPerimeter=0;" parent="JSNP4mhpRl2PcN9VcqDA-1" source="JSNP4mhpRl2PcN9VcqDA-9" target="8IwIn7CuARTH8-s8vMAV-0" edge="1">
                    <mxGeometry relative="1" as="geometry">
                        <mxPoint x="538" y="855.098466927486" as="targetPoint"/>
                        <Array as="points"/>
                    </mxGeometry>
                </mxCell>
                <mxCell id="JSNP4mhpRl2PcN9VcqDA-9" value="&lt;span style=&quot;color: rgb(41, 42, 46); font-style: normal; font-variant-ligatures: normal; font-variant-caps: normal; letter-spacing: normal; orphans: 2; text-align: left; text-indent: 0px; text-transform: none; widows: 2; word-spacing: 0px; -webkit-text-stroke-width: 0px; white-space: pre-wrap; text-decoration-thickness: initial; text-decoration-style: initial; text-decoration-color: initial; float: none; background-color: rgb(245, 245, 245); display: inline !important;&quot;&gt;&lt;font face=&quot;Helvetica&quot;&gt;&lt;b style=&quot;&quot;&gt;lam_coto_prepare_notifications&lt;/b&gt;&lt;/font&gt;&lt;/span&gt;" style="sketch=0;points=[[0,0,0],[0.25,0,0],[0.5,0,0],[0.75,0,0],[1,0,0],[0,1,0],[0.25,1,0],[0.5,1,0],[0.75,1,0],[1,1,0],[0,0.25,0],[0,0.5,0],[0,0.75,0],[1,0.25,0],[1,0.5,0],[1,0.75,0]];outlineConnect=0;fontColor=#232F3E;fillColor=#ED7100;strokeColor=#ffffff;dashed=0;verticalLabelPosition=bottom;verticalAlign=top;align=center;html=1;fontSize=12;fontStyle=0;aspect=fixed;shape=mxgraph.aws4.resourceIcon;resIcon=mxgraph.aws4.lambda;" parent="JSNP4mhpRl2PcN9VcqDA-1" vertex="1">
                    <mxGeometry x="499" y="681" width="78" height="78" as="geometry"/>
                </mxCell>
                <mxCell id="JSNP4mhpRl2PcN9VcqDA-10" value="Data Layer" style="text;html=1;align=center;verticalAlign=middle;whiteSpace=wrap;rounded=0;labelBackgroundColor=#FFFFFF;fontStyle=1" parent="JSNP4mhpRl2PcN9VcqDA-1" vertex="1">
                    <mxGeometry x="505" y="1087" width="66" height="30" as="geometry"/>
                </mxCell>
                <mxCell id="JSNP4mhpRl2PcN9VcqDA-30" style="edgeStyle=orthogonalEdgeStyle;rounded=0;orthogonalLoop=1;jettySize=auto;html=1;" parent="JSNP4mhpRl2PcN9VcqDA-1" target="JSNP4mhpRl2PcN9VcqDA-35" edge="1">
                    <mxGeometry relative="1" as="geometry">
                        <mxPoint x="294" y="759" as="sourcePoint"/>
                    </mxGeometry>
                </mxCell>
                <mxCell id="JSNP4mhpRl2PcN9VcqDA-32" style="edgeStyle=orthogonalEdgeStyle;rounded=0;orthogonalLoop=1;jettySize=auto;html=1;entryX=1;entryY=0.5;entryDx=0;entryDy=0;entryPerimeter=0;" parent="JSNP4mhpRl2PcN9VcqDA-1" source="JSNP4mhpRl2PcN9VcqDA-9" edge="1">
                    <mxGeometry relative="1" as="geometry">
                        <mxPoint x="333" y="720" as="targetPoint"/>
                    </mxGeometry>
                </mxCell>
                <mxCell id="JSNP4mhpRl2PcN9VcqDA-33" value="Send audit trail events" style="edgeLabel;html=1;align=center;verticalAlign=middle;resizable=0;points=[];" parent="JSNP4mhpRl2PcN9VcqDA-32" vertex="1" connectable="0">
                    <mxGeometry x="0.0073" relative="1" as="geometry">
                        <mxPoint x="4" y="-1" as="offset"/>
                    </mxGeometry>
                </mxCell>
                <mxCell id="JSNP4mhpRl2PcN9VcqDA-34" style="edgeStyle=orthogonalEdgeStyle;rounded=1;orthogonalLoop=1;jettySize=auto;html=1;curved=0;" parent="JSNP4mhpRl2PcN9VcqDA-1" source="JSNP4mhpRl2PcN9VcqDA-35" target="JSNP4mhpRl2PcN9VcqDA-37" edge="1">
                    <mxGeometry relative="1" as="geometry">
                        <Array as="points">
                            <mxPoint x="294" y="1023"/>
                        </Array>
                    </mxGeometry>
                </mxCell>
                <mxCell id="JSNP4mhpRl2PcN9VcqDA-35" value="&lt;div style=&quot;text-align: left;&quot;&gt;&lt;br&gt;&lt;/div&gt;" style="sketch=0;points=[[0,0,0],[0.25,0,0],[0.5,0,0],[0.75,0,0],[1,0,0],[0,1,0],[0.25,1,0],[0.5,1,0],[0.75,1,0],[1,1,0],[0,0.25,0],[0,0.5,0],[0,0.75,0],[1,0.25,0],[1,0.5,0],[1,0.75,0]];outlineConnect=0;fontColor=#232F3E;fillColor=#ED7100;strokeColor=#ffffff;dashed=0;verticalLabelPosition=bottom;verticalAlign=top;align=center;html=1;fontSize=12;fontStyle=0;aspect=fixed;shape=mxgraph.aws4.resourceIcon;resIcon=mxgraph.aws4.lambda;" parent="JSNP4mhpRl2PcN9VcqDA-1" vertex="1">
                    <mxGeometry x="255" y="841" width="78" height="78" as="geometry"/>
                </mxCell>
                <mxCell id="JSNP4mhpRl2PcN9VcqDA-36" value="&lt;b style=&quot;color: rgb(41, 42, 46); font-size: 11px; text-align: left; white-space-collapse: preserve;&quot;&gt;lam_coto_audit_event_processor&lt;/b&gt;" style="text;html=1;align=center;verticalAlign=middle;whiteSpace=wrap;rounded=0;labelBackgroundColor=default;" parent="JSNP4mhpRl2PcN9VcqDA-1" vertex="1">
                    <mxGeometry x="218" y="919" width="152" height="30" as="geometry"/>
                </mxCell>
                <mxCell id="JSNP4mhpRl2PcN9VcqDA-37" value="&lt;b&gt;&lt;font style=&quot;font-size: 10px;&quot;&gt;AuditTable&lt;/font&gt;&lt;/b&gt;" style="sketch=0;outlineConnect=0;fontColor=#232F3E;gradientColor=none;fillColor=#C925D1;strokeColor=none;dashed=0;verticalLabelPosition=bottom;verticalAlign=top;align=center;html=1;fontSize=12;fontStyle=0;aspect=fixed;pointerEvents=1;shape=mxgraph.aws4.aurora_instance;" parent="JSNP4mhpRl2PcN9VcqDA-1" vertex="1">
                    <mxGeometry x="499" y="984" width="78" height="78" as="geometry"/>
                </mxCell>
                <mxCell id="8IwIn7CuARTH8-s8vMAV-0" value="&lt;b style=&quot;font-size: 11px;&quot;&gt;coto_db&lt;/b&gt;" style="sketch=0;outlineConnect=0;fontColor=#232F3E;gradientColor=none;fillColor=#C925D1;strokeColor=none;dashed=0;verticalLabelPosition=bottom;verticalAlign=top;align=center;html=1;fontSize=12;fontStyle=0;aspect=fixed;pointerEvents=1;shape=mxgraph.aws4.rds_instance;" parent="JSNP4mhpRl2PcN9VcqDA-1" vertex="1">
                    <mxGeometry x="499" y="871" width="78" height="78" as="geometry"/>
                </mxCell>
                <mxCell id="sFZHLIyC35yN5D26raUc-36" style="edgeStyle=orthogonalEdgeStyle;rounded=0;orthogonalLoop=1;jettySize=auto;html=1;exitX=1;exitY=0.5;exitDx=0;exitDy=0;exitPerimeter=0;" parent="JSNP4mhpRl2PcN9VcqDA-1" source="sFZHLIyC35yN5D26raUc-2" target="sFZHLIyC35yN5D26raUc-30" edge="1">
                    <mxGeometry relative="1" as="geometry"/>
                </mxCell>
                <mxCell id="8IwIn7CuARTH8-s8vMAV-1" value="&lt;b&gt;&lt;font style=&quot;font-size: 11px; background-color: light-dark(rgb(245, 245, 245), rgb(189, 199, 212));&quot;&gt;coto_html_templates&lt;/font&gt;&lt;/b&gt;" style="sketch=0;points=[[0,0,0],[0.25,0,0],[0.5,0,0],[0.75,0,0],[1,0,0],[0,1,0],[0.25,1,0],[0.5,1,0],[0.75,1,0],[1,1,0],[0,0.25,0],[0,0.5,0],[0,0.75,0],[1,0.25,0],[1,0.5,0],[1,0.75,0]];outlineConnect=0;fontColor=#232F3E;fillColor=#7AA116;strokeColor=#ffffff;dashed=0;verticalLabelPosition=bottom;verticalAlign=top;align=center;html=1;fontSize=12;fontStyle=0;aspect=fixed;shape=mxgraph.aws4.resourceIcon;resIcon=mxgraph.aws4.s3;" parent="JSNP4mhpRl2PcN9VcqDA-1" vertex="1">
                    <mxGeometry x="786" y="1215" width="76" height="76" as="geometry"/>
                </mxCell>
                <mxCell id="sFZHLIyC35yN5D26raUc-1" value="" style="sketch=0;points=[[0,0,0],[0.25,0,0],[0.5,0,0],[0.75,0,0],[1,0,0],[0,1,0],[0.25,1,0],[0.5,1,0],[0.75,1,0],[1,1,0],[0,0.25,0],[0,0.5,0],[0,0.75,0],[1,0.25,0],[1,0.5,0],[1,0.75,0]];outlineConnect=0;fontColor=#232F3E;fillColor=#6600CC;strokeColor=#ffffff;dashed=0;verticalLabelPosition=bottom;verticalAlign=top;align=center;html=1;fontSize=12;fontStyle=0;aspect=fixed;shape=mxgraph.aws4.resourceIcon;resIcon=mxgraph.aws4.sns;" parent="JSNP4mhpRl2PcN9VcqDA-1" vertex="1">
                    <mxGeometry x="1362" y="675" width="78" height="78" as="geometry"/>
                </mxCell>
                <mxCell id="sFZHLIyC35yN5D26raUc-5" style="edgeStyle=orthogonalEdgeStyle;rounded=0;orthogonalLoop=1;jettySize=auto;html=1;" parent="JSNP4mhpRl2PcN9VcqDA-1" source="sFZHLIyC35yN5D26raUc-2" target="8IwIn7CuARTH8-s8vMAV-1" edge="1">
                    <mxGeometry relative="1" as="geometry"/>
                </mxCell>
                <mxCell id="sFZHLIyC35yN5D26raUc-2" value="&lt;b style=&quot;color: rgb(41, 42, 46); text-align: left; white-space: pre-wrap; background-color: rgb(245, 245, 245);&quot;&gt;&lt;font&gt;lam_coto_email_notification&lt;/font&gt;&lt;/b&gt;" style="sketch=0;points=[[0,0,0],[0.25,0,0],[0.5,0,0],[0.75,0,0],[1,0,0],[0,1,0],[0.25,1,0],[0.5,1,0],[0.75,1,0],[1,1,0],[0,0.25,0],[0,0.5,0],[0,0.75,0],[1,0.25,0],[1,0.5,0],[1,0.75,0]];outlineConnect=0;fontColor=#232F3E;fillColor=#ED7100;strokeColor=#ffffff;dashed=0;verticalLabelPosition=bottom;verticalAlign=top;align=center;html=1;fontSize=12;fontStyle=0;aspect=fixed;shape=mxgraph.aws4.resourceIcon;resIcon=mxgraph.aws4.lambda;" parent="JSNP4mhpRl2PcN9VcqDA-1" vertex="1">
                    <mxGeometry x="785" y="1073" width="78" height="78" as="geometry"/>
                </mxCell>
                <mxCell id="sFZHLIyC35yN5D26raUc-3" value="" style="sketch=0;points=[[0,0,0],[0.25,0,0],[0.5,0,0],[0.75,0,0],[1,0,0],[0,1,0],[0.25,1,0],[0.5,1,0],[0.75,1,0],[1,1,0],[0,0.25,0],[0,0.5,0],[0,0.75,0],[1,0.25,0],[1,0.5,0],[1,0.75,0]];outlineConnect=0;fontColor=#232F3E;fillColor=#3333FF;strokeColor=#ffffff;dashed=0;verticalLabelPosition=bottom;verticalAlign=top;align=center;html=1;fontSize=12;fontStyle=0;aspect=fixed;shape=mxgraph.aws4.resourceIcon;resIcon=mxgraph.aws4.sqs;shadow=0;labelBackgroundColor=#FFFFFF;" parent="JSNP4mhpRl2PcN9VcqDA-1" vertex="1">
                    <mxGeometry x="779" y="681" width="78" height="78" as="geometry"/>
                </mxCell>
                <mxCell id="sFZHLIyC35yN5D26raUc-9" value="&lt;b&gt;&lt;font style=&quot;font-size: 13px;&quot;&gt;Standard Topics:&lt;br&gt;&lt;/font&gt;&lt;/b&gt;&lt;p style=&quot;margin: 0px; font-variant-numeric: normal; font-variant-east-asian: normal; font-variant-alternates: normal; font-size-adjust: none; font-kerning: auto; font-optical-sizing: auto; font-feature-settings: normal; font-variation-settings: normal; font-variant-position: normal; font-stretch: normal; line-height: normal; color: rgb(14, 14, 14); text-align: start;&quot; class=&quot;p1&quot;&gt;&lt;/p&gt;sqs-email-notifications-topic&lt;br&gt;&lt;div&gt;&lt;font&gt;sqs-sms-notifications-topic&lt;br&gt;&lt;/font&gt;sqs-push-notifications-topic&lt;br&gt;&lt;p&gt;&lt;/p&gt;&lt;/div&gt;" style="shape=note2;boundedLbl=1;whiteSpace=wrap;html=1;size=25;verticalAlign=top;align=center;" parent="JSNP4mhpRl2PcN9VcqDA-1" vertex="1">
                    <mxGeometry x="1041" y="663.5" width="187" height="113" as="geometry"/>
                </mxCell>
                <mxCell id="sFZHLIyC35yN5D26raUc-10" value="" style="endArrow=none;html=1;rounded=0;exitX=1;exitY=0.5;exitDx=0;exitDy=0;exitPerimeter=0;entryX=0;entryY=0.5;entryDx=0;entryDy=0;entryPerimeter=0;dashed=1;" parent="JSNP4mhpRl2PcN9VcqDA-1" source="sFZHLIyC35yN5D26raUc-3" target="sFZHLIyC35yN5D26raUc-9" edge="1">
                    <mxGeometry width="50" height="50" relative="1" as="geometry">
                        <mxPoint x="732" y="941" as="sourcePoint"/>
                        <mxPoint x="782" y="891" as="targetPoint"/>
                    </mxGeometry>
                </mxCell>
                <mxCell id="sFZHLIyC35yN5D26raUc-11" value="&lt;span style=&quot;text-wrap: wrap; background-color: light-dark(rgb(255, 255, 255), rgb(255, 255, 255));&quot;&gt;&lt;font style=&quot;font-size: 11px;&quot;&gt;EmailNotificationsTopic&lt;/font&gt;&lt;/span&gt;" style="outlineConnect=0;dashed=0;verticalLabelPosition=bottom;verticalAlign=top;align=center;html=1;shape=mxgraph.aws3.topic;fillColor=#3333FF;gradientColor=none;" parent="JSNP4mhpRl2PcN9VcqDA-1" vertex="1">
                    <mxGeometry x="665" y="841" width="35" height="42" as="geometry"/>
                </mxCell>
                <mxCell id="sFZHLIyC35yN5D26raUc-12" value="&lt;span style=&quot;color: rgb(0, 0, 0); font-family: Helvetica; font-style: normal; font-variant-ligatures: normal; font-variant-caps: normal; font-weight: 400; letter-spacing: normal; orphans: 2; text-align: center; text-indent: 0px; text-transform: none; widows: 2; word-spacing: 0px; -webkit-text-stroke-width: 0px; white-space: normal; background-color: rgb(251, 251, 251); text-decoration-thickness: initial; text-decoration-style: initial; text-decoration-color: initial; float: none; display: inline !important;&quot;&gt;&lt;font style=&quot;font-size: 11px;&quot;&gt;SMSNotificationsTopic&lt;/font&gt;&lt;/span&gt;" style="outlineConnect=0;dashed=0;verticalLabelPosition=bottom;verticalAlign=top;align=center;html=1;shape=mxgraph.aws3.topic;fillColor=#3333FF;gradientColor=none;" parent="JSNP4mhpRl2PcN9VcqDA-1" vertex="1">
                    <mxGeometry x="800" y="841" width="35" height="42" as="geometry"/>
                </mxCell>
                <mxCell id="sFZHLIyC35yN5D26raUc-14" value="&lt;span style=&quot;text-wrap: wrap;&quot;&gt;PushNotificationsTopic&lt;/span&gt;" style="outlineConnect=0;dashed=0;verticalLabelPosition=bottom;verticalAlign=top;align=center;html=1;shape=mxgraph.aws3.topic;fillColor=#3333FF;gradientColor=none;" parent="JSNP4mhpRl2PcN9VcqDA-1" vertex="1">
                    <mxGeometry x="931" y="841" width="35" height="42" as="geometry"/>
                </mxCell>
                <mxCell id="sFZHLIyC35yN5D26raUc-18" value="" style="endArrow=none;html=1;rounded=1;exitX=0.5;exitY=0;exitDx=0;exitDy=0;exitPerimeter=0;entryX=0.5;entryY=1;entryDx=0;entryDy=0;entryPerimeter=0;curved=0;dashed=1;" parent="JSNP4mhpRl2PcN9VcqDA-1" source="sFZHLIyC35yN5D26raUc-11" target="sFZHLIyC35yN5D26raUc-3" edge="1">
                    <mxGeometry width="50" height="50" relative="1" as="geometry">
                        <mxPoint x="881" y="994" as="sourcePoint"/>
                        <mxPoint x="931" y="944" as="targetPoint"/>
                        <Array as="points">
                            <mxPoint x="683" y="800"/>
                            <mxPoint x="818" y="800"/>
                        </Array>
                    </mxGeometry>
                </mxCell>
                <mxCell id="sFZHLIyC35yN5D26raUc-19" value="" style="endArrow=none;html=1;rounded=1;entryX=0.5;entryY=1;entryDx=0;entryDy=0;entryPerimeter=0;exitX=0.5;exitY=0;exitDx=0;exitDy=0;exitPerimeter=0;curved=0;dashed=1;" parent="JSNP4mhpRl2PcN9VcqDA-1" source="sFZHLIyC35yN5D26raUc-14" target="sFZHLIyC35yN5D26raUc-3" edge="1">
                    <mxGeometry width="50" height="50" relative="1" as="geometry">
                        <mxPoint x="842" y="857" as="sourcePoint"/>
                        <mxPoint x="892" y="807" as="targetPoint"/>
                        <Array as="points">
                            <mxPoint x="949" y="800"/>
                            <mxPoint x="818" y="800"/>
                        </Array>
                    </mxGeometry>
                </mxCell>
                <mxCell id="sFZHLIyC35yN5D26raUc-20" value="" style="endArrow=none;html=1;rounded=0;exitX=0.5;exitY=0;exitDx=0;exitDy=0;exitPerimeter=0;entryX=0.5;entryY=1;entryDx=0;entryDy=0;entryPerimeter=0;dashed=1;" parent="JSNP4mhpRl2PcN9VcqDA-1" source="sFZHLIyC35yN5D26raUc-12" target="sFZHLIyC35yN5D26raUc-3" edge="1">
                    <mxGeometry width="50" height="50" relative="1" as="geometry">
                        <mxPoint x="842" y="857" as="sourcePoint"/>
                        <mxPoint x="892" y="807" as="targetPoint"/>
                    </mxGeometry>
                </mxCell>
                <mxCell id="sFZHLIyC35yN5D26raUc-21" value="" style="endArrow=none;html=1;rounded=1;exitX=0;exitY=0.5;exitDx=0;exitDy=0;exitPerimeter=0;entryX=0.5;entryY=1;entryDx=0;entryDy=0;entryPerimeter=0;curved=0;" parent="JSNP4mhpRl2PcN9VcqDA-1" source="sFZHLIyC35yN5D26raUc-2" target="sFZHLIyC35yN5D26raUc-11" edge="1">
                    <mxGeometry width="50" height="50" relative="1" as="geometry">
                        <mxPoint x="638" y="889" as="sourcePoint"/>
                        <mxPoint x="688" y="839" as="targetPoint"/>
                        <Array as="points">
                            <mxPoint x="684" y="1112"/>
                        </Array>
                    </mxGeometry>
                </mxCell>
                <mxCell id="sFZHLIyC35yN5D26raUc-22" value="Subscription to topic" style="edgeLabel;html=1;align=center;verticalAlign=middle;resizable=0;points=[];" parent="sFZHLIyC35yN5D26raUc-21" vertex="1" connectable="0">
                    <mxGeometry x="0.6887" relative="1" as="geometry">
                        <mxPoint y="37" as="offset"/>
                    </mxGeometry>
                </mxCell>
                <mxCell id="sFZHLIyC35yN5D26raUc-23" value="&lt;b style=&quot;color: rgb(41, 42, 46); text-align: left; white-space: pre-wrap; background-color: rgb(245, 245, 245);&quot;&gt;&lt;font&gt;lam_coto_sms_notification&lt;/font&gt;&lt;/b&gt;" style="sketch=0;points=[[0,0,0],[0.25,0,0],[0.5,0,0],[0.75,0,0],[1,0,0],[0,1,0],[0.25,1,0],[0.5,1,0],[0.75,1,0],[1,1,0],[0,0.25,0],[0,0.5,0],[0,0.75,0],[1,0.25,0],[1,0.5,0],[1,0.75,0]];outlineConnect=0;fontColor=#232F3E;fillColor=#ED7100;strokeColor=#ffffff;dashed=0;verticalLabelPosition=bottom;verticalAlign=top;align=center;html=1;fontSize=12;fontStyle=0;aspect=fixed;shape=mxgraph.aws4.resourceIcon;resIcon=mxgraph.aws4.lambda;" parent="JSNP4mhpRl2PcN9VcqDA-1" vertex="1">
                    <mxGeometry x="960" y="949" width="78" height="78" as="geometry"/>
                </mxCell>
                <mxCell id="sFZHLIyC35yN5D26raUc-24" value="" style="endArrow=none;html=1;rounded=1;exitX=0;exitY=0.5;exitDx=0;exitDy=0;exitPerimeter=0;entryX=0.5;entryY=1;entryDx=0;entryDy=0;entryPerimeter=0;curved=0;" parent="JSNP4mhpRl2PcN9VcqDA-1" source="sFZHLIyC35yN5D26raUc-23" target="sFZHLIyC35yN5D26raUc-12" edge="1">
                    <mxGeometry width="50" height="50" relative="1" as="geometry">
                        <mxPoint x="516" y="960" as="sourcePoint"/>
                        <mxPoint x="566" y="910" as="targetPoint"/>
                        <Array as="points">
                            <mxPoint x="818" y="988"/>
                        </Array>
                    </mxGeometry>
                </mxCell>
                <mxCell id="sFZHLIyC35yN5D26raUc-25" value="Subscription to topic" style="edgeLabel;html=1;align=center;verticalAlign=middle;resizable=0;points=[];" parent="sFZHLIyC35yN5D26raUc-24" vertex="1" connectable="0">
                    <mxGeometry x="-0.4133" y="1" relative="1" as="geometry">
                        <mxPoint x="-2" y="-1" as="offset"/>
                    </mxGeometry>
                </mxCell>
                <mxCell id="sFZHLIyC35yN5D26raUc-29" value="" style="endArrow=none;html=1;rounded=0;entryX=0;entryY=0.5;entryDx=0;entryDy=0;entryPerimeter=0;exitX=1;exitY=0.5;exitDx=0;exitDy=0;exitPerimeter=0;" parent="JSNP4mhpRl2PcN9VcqDA-1" source="sFZHLIyC35yN5D26raUc-14" target="sFZHLIyC35yN5D26raUc-28" edge="1">
                    <mxGeometry width="50" height="50" relative="1" as="geometry">
                        <mxPoint x="597" y="924" as="sourcePoint"/>
                        <mxPoint x="647" y="874" as="targetPoint"/>
                    </mxGeometry>
                </mxCell>
                <mxCell id="sFZHLIyC35yN5D26raUc-32" value="&lt;span style=&quot;text-wrap: wrap;&quot;&gt;PushNotificationsTopic&lt;/span&gt;" style="outlineConnect=0;dashed=0;verticalLabelPosition=bottom;verticalAlign=top;align=center;html=1;shape=mxgraph.aws3.topic;fillColor=#6600CC;gradientColor=none;" parent="JSNP4mhpRl2PcN9VcqDA-1" vertex="1">
                    <mxGeometry x="1281" y="841" width="35" height="42" as="geometry"/>
                </mxCell>
                <mxCell id="sFZHLIyC35yN5D26raUc-34" style="edgeStyle=orthogonalEdgeStyle;rounded=0;orthogonalLoop=1;jettySize=auto;html=1;entryX=0;entryY=0.5;entryDx=0;entryDy=0;entryPerimeter=0;" parent="JSNP4mhpRl2PcN9VcqDA-1" source="sFZHLIyC35yN5D26raUc-28" target="sFZHLIyC35yN5D26raUc-32" edge="1">
                    <mxGeometry relative="1" as="geometry"/>
                </mxCell>
                <mxCell id="sFZHLIyC35yN5D26raUc-35" style="edgeStyle=orthogonalEdgeStyle;rounded=0;orthogonalLoop=1;jettySize=auto;html=1;entryX=0;entryY=0.5;entryDx=0;entryDy=0;entryPerimeter=0;" parent="JSNP4mhpRl2PcN9VcqDA-1" source="sFZHLIyC35yN5D26raUc-23" target="sFZHLIyC35yN5D26raUc-31" edge="1">
                    <mxGeometry relative="1" as="geometry"/>
                </mxCell>
                <mxCell id="sFZHLIyC35yN5D26raUc-37" style="edgeStyle=orthogonalEdgeStyle;rounded=1;orthogonalLoop=1;jettySize=auto;html=1;entryX=1;entryY=0.5;entryDx=0;entryDy=0;entryPerimeter=0;curved=0;" parent="JSNP4mhpRl2PcN9VcqDA-1" source="sFZHLIyC35yN5D26raUc-32" target="sFZHLIyC35yN5D26raUc-1" edge="1">
                    <mxGeometry relative="1" as="geometry"/>
                </mxCell>
                <mxCell id="sFZHLIyC35yN5D26raUc-38" style="edgeStyle=orthogonalEdgeStyle;rounded=1;orthogonalLoop=1;jettySize=auto;html=1;entryX=1;entryY=0.5;entryDx=0;entryDy=0;entryPerimeter=0;curved=0;" parent="JSNP4mhpRl2PcN9VcqDA-1" source="sFZHLIyC35yN5D26raUc-31" target="sFZHLIyC35yN5D26raUc-1" edge="1">
                    <mxGeometry relative="1" as="geometry"/>
                </mxCell>
                <mxCell id="sFZHLIyC35yN5D26raUc-39" style="edgeStyle=orthogonalEdgeStyle;rounded=1;orthogonalLoop=1;jettySize=auto;html=1;entryX=1;entryY=0.5;entryDx=0;entryDy=0;entryPerimeter=0;curved=0;" parent="JSNP4mhpRl2PcN9VcqDA-1" source="sFZHLIyC35yN5D26raUc-30" target="sFZHLIyC35yN5D26raUc-1" edge="1">
                    <mxGeometry relative="1" as="geometry"/>
                </mxCell>
                <mxCell id="sFZHLIyC35yN5D26raUc-40" value="&lt;p style=&quot;font-variant-numeric: normal; font-variant-east-asian: normal; font-variant-alternates: normal; font-size-adjust: none; font-kerning: auto; font-optical-sizing: auto; font-feature-settings: normal; font-variation-settings: normal; font-variant-position: normal; font-stretch: normal; line-height: normal; margin: 0px; text-align: start;&quot; class=&quot;p1&quot;&gt;&lt;font style=&quot;font-size: 13px;&quot; face=&quot;Helvetica&quot;&gt;&lt;br&gt;&lt;br&gt;&lt;br&gt;{&lt;/font&gt;&lt;/p&gt;&lt;p style=&quot;font-variant-numeric: normal; font-variant-east-asian: normal; font-variant-alternates: normal; font-size-adjust: none; font-kerning: auto; font-optical-sizing: auto; font-feature-settings: normal; font-variation-settings: normal; font-variant-position: normal; font-stretch: normal; line-height: normal; margin: 0px; color: rgb(181, 0, 19); text-align: start;&quot; class=&quot;p2&quot;&gt;&lt;font style=&quot;font-size: 13px;&quot; face=&quot;Helvetica&quot;&gt;&lt;span style=&quot;color: rgb(0, 0, 0);&quot; class=&quot;s1&quot;&gt;&amp;nbsp;&amp;nbsp;&lt;/span&gt;&lt;span style=&quot;color: rgb(111, 90, 30);&quot; class=&quot;s2&quot;&gt;&quot;to&quot;&lt;/span&gt;&lt;span style=&quot;color: rgb(0, 0, 0);&quot; class=&quot;s1&quot;&gt;: [&lt;/span&gt;&quot;user-id-1&quot;&lt;span style=&quot;color: rgb(0, 0, 0);&quot; class=&quot;s1&quot;&gt;,&amp;nbsp;&lt;/span&gt;&quot;user-id-2&quot;&lt;span style=&quot;color: rgb(0, 0, 0);&quot; class=&quot;s1&quot;&gt;,&amp;nbsp;&lt;/span&gt;&quot;user-id-3&quot;&lt;span style=&quot;color: rgb(0, 0, 0);&quot; class=&quot;s1&quot;&gt;],&lt;/span&gt;&lt;/font&gt;&lt;/p&gt;&lt;p style=&quot;font-variant-numeric: normal; font-variant-east-asian: normal; font-variant-alternates: normal; font-size-adjust: none; font-kerning: auto; font-optical-sizing: auto; font-feature-settings: normal; font-variation-settings: normal; font-variant-position: normal; font-stretch: normal; line-height: normal; margin: 0px; color: rgb(181, 0, 19); text-align: start;&quot; class=&quot;p2&quot;&gt;&lt;font style=&quot;font-size: 13px;&quot; face=&quot;Helvetica&quot;&gt;&lt;span style=&quot;color: rgb(0, 0, 0);&quot; class=&quot;s1&quot;&gt;&amp;nbsp;&amp;nbsp;&lt;/span&gt;&lt;/font&gt;&lt;span style=&quot;background-color: transparent; font-size: 13px; color: rgb(111, 90, 30);&quot; class=&quot;s2&quot;&gt;&quot;type&quot;&lt;/span&gt;&lt;span style=&quot;background-color: transparent; color: rgb(0, 0, 0); font-size: 13px;&quot; class=&quot;s1&quot;&gt;:&amp;nbsp;&lt;/span&gt;&lt;span style=&quot;background-color: transparent; font-size: 13px;&quot;&gt;&quot;otp-generator / message&quot;&lt;/span&gt;&lt;span style=&quot;background-color: transparent; color: rgb(0, 0, 0); font-size: 13px;&quot; class=&quot;s1&quot;&gt;,&lt;/span&gt;&lt;/p&gt;&lt;p style=&quot;font-variant-numeric: normal; font-variant-east-asian: normal; font-variant-alternates: normal; font-size-adjust: none; font-kerning: auto; font-optical-sizing: auto; font-feature-settings: normal; font-variation-settings: normal; font-variant-position: normal; font-stretch: normal; line-height: normal; margin: 0px; color: rgb(181, 0, 19); text-align: start;&quot; class=&quot;p2&quot;&gt;&lt;span style=&quot;background-color: transparent; color: rgb(0, 0, 0); font-size: 13px;&quot; class=&quot;s1&quot;&gt;&amp;nbsp;&amp;nbsp;&lt;/span&gt;&lt;span style=&quot;background-color: transparent; font-size: 13px; color: rgb(111, 90, 30);&quot; class=&quot;s2&quot;&gt;&quot;transaction-type&quot;&lt;/span&gt;&lt;span style=&quot;background-color: transparent; color: rgb(0, 0, 0); font-size: 13px;&quot; class=&quot;s1&quot;&gt;:&amp;nbsp;&lt;/span&gt;&lt;span style=&quot;background-color: transparent; font-size: 13px;&quot;&gt;&quot;email-validation / phone-validation / change-pass&quot;&lt;/span&gt;&lt;span style=&quot;background-color: transparent; color: rgb(0, 0, 0); font-size: 13px;&quot; class=&quot;s1&quot;&gt;,&lt;/span&gt;&lt;/p&gt;&lt;p style=&quot;font-variant-numeric: normal; font-variant-east-asian: normal; font-variant-alternates: normal; font-size-adjust: none; font-kerning: auto; font-optical-sizing: auto; font-feature-settings: normal; font-variation-settings: normal; font-variant-position: normal; font-stretch: normal; line-height: normal; margin: 0px; color: rgb(181, 0, 19); text-align: start;&quot; class=&quot;p2&quot;&gt;&lt;font style=&quot;font-size: 13px;&quot; face=&quot;Helvetica&quot;&gt;&lt;span style=&quot;color: rgb(0, 0, 0);&quot; class=&quot;s1&quot;&gt;&amp;nbsp;&amp;nbsp;&lt;/span&gt;&lt;span style=&quot;color: rgb(111, 90, 30);&quot; class=&quot;s2&quot;&gt;&quot;subject&quot;&lt;/span&gt;&lt;span style=&quot;color: rgb(0, 0, 0);&quot; class=&quot;s1&quot;&gt;:&amp;nbsp;&lt;/span&gt;&quot;Bienvenido a nuestra plataforma&quot;&lt;span style=&quot;color: rgb(0, 0, 0);&quot; class=&quot;s1&quot;&gt;,&lt;/span&gt;&lt;/font&gt;&lt;/p&gt;&lt;p style=&quot;font-variant-numeric: normal; font-variant-east-asian: normal; font-variant-alternates: normal; font-size-adjust: none; font-kerning: auto; font-optical-sizing: auto; font-feature-settings: normal; font-variation-settings: normal; font-variant-position: normal; font-stretch: normal; line-height: normal; margin: 0px; color: rgb(181, 0, 19); text-align: start;&quot; class=&quot;p2&quot;&gt;&lt;font style=&quot;font-size: 13px;&quot; face=&quot;Helvetica&quot;&gt;&lt;span style=&quot;color: rgb(0, 0, 0);&quot; class=&quot;s1&quot;&gt;&amp;nbsp;&amp;nbsp;&lt;/span&gt;&lt;span style=&quot;color: rgb(111, 90, 30);&quot; class=&quot;s2&quot;&gt;&quot;body&quot;&lt;/span&gt;&lt;span style=&quot;color: rgb(0, 0, 0);&quot; class=&quot;s1&quot;&gt;:&amp;nbsp;&lt;/span&gt;&quot;Gracias por registrarte en nuestra plataforma.&quot;&lt;span style=&quot;color: rgb(0, 0, 0);&quot; class=&quot;s1&quot;&gt;,&lt;/span&gt;&lt;/font&gt;&lt;/p&gt;&lt;p style=&quot;font-variant-numeric: normal; font-variant-east-asian: normal; font-variant-alternates: normal; font-size-adjust: none; font-kerning: auto; font-optical-sizing: auto; font-feature-settings: normal; font-variation-settings: normal; font-variant-position: normal; font-stretch: normal; line-height: normal; margin: 0px; color: rgb(181, 0, 19); text-align: start;&quot; class=&quot;p2&quot;&gt;&lt;font style=&quot;font-size: 13px;&quot; face=&quot;Helvetica&quot;&gt;&lt;span style=&quot;color: rgb(0, 0, 0);&quot; class=&quot;s1&quot;&gt;&amp;nbsp;&amp;nbsp;&lt;/span&gt;&lt;span style=&quot;color: rgb(111, 90, 30);&quot; class=&quot;s2&quot;&gt;&quot;from&quot;&lt;/span&gt;&lt;span style=&quot;color: rgb(0, 0, 0);&quot; class=&quot;s1&quot;&gt;:&amp;nbsp;&lt;/span&gt;&quot;no-reply@miempresa.com&quot;&lt;span style=&quot;color: rgb(0, 0, 0);&quot; class=&quot;s1&quot;&gt;,&lt;/span&gt;&lt;/font&gt;&lt;/p&gt;&lt;p style=&quot;font-variant-numeric: normal; font-variant-east-asian: normal; font-variant-alternates: normal; font-size-adjust: none; font-kerning: auto; font-optical-sizing: auto; font-feature-settings: normal; font-variation-settings: normal; font-variant-position: normal; font-stretch: normal; line-height: normal; margin: 0px; color: rgb(181, 0, 19); text-align: start;&quot; class=&quot;p2&quot;&gt;&lt;font style=&quot;font-size: 13px;&quot; face=&quot;Helvetica&quot;&gt;&lt;span style=&quot;color: rgb(0, 0, 0);&quot; class=&quot;s1&quot;&gt;&amp;nbsp;&amp;nbsp;&lt;/span&gt;&lt;span style=&quot;color: rgb(111, 90, 30);&quot; class=&quot;s2&quot;&gt;&quot;cc&quot;&lt;/span&gt;&lt;span style=&quot;color: rgb(0, 0, 0);&quot; class=&quot;s1&quot;&gt;: [&lt;/span&gt;&quot;cc1@example.com&quot;&lt;span style=&quot;color: rgb(0, 0, 0);&quot; class=&quot;s1&quot;&gt;,&amp;nbsp;&lt;/span&gt;&quot;cc2@example.com&quot;&lt;span style=&quot;color: rgb(0, 0, 0);&quot; class=&quot;s1&quot;&gt;],&lt;/span&gt;&lt;/font&gt;&lt;/p&gt;&lt;p style=&quot;font-variant-numeric: normal; font-variant-east-asian: normal; font-variant-alternates: normal; font-size-adjust: none; font-kerning: auto; font-optical-sizing: auto; font-feature-settings: normal; font-variation-settings: normal; font-variant-position: normal; font-stretch: normal; line-height: normal; margin: 0px; color: rgb(181, 0, 19); text-align: start;&quot; class=&quot;p2&quot;&gt;&lt;font style=&quot;font-size: 13px;&quot; face=&quot;Helvetica&quot;&gt;&lt;span style=&quot;color: rgb(0, 0, 0);&quot; class=&quot;s1&quot;&gt;&amp;nbsp;&amp;nbsp;&lt;/span&gt;&lt;span style=&quot;color: rgb(111, 90, 30);&quot; class=&quot;s2&quot;&gt;&quot;bcc&quot;&lt;/span&gt;&lt;span style=&quot;color: rgb(0, 0, 0);&quot; class=&quot;s1&quot;&gt;: [&lt;/span&gt;&quot;bcc1@example.com&quot;&lt;span style=&quot;color: rgb(0, 0, 0);&quot; class=&quot;s1&quot;&gt;,&amp;nbsp;&lt;/span&gt;&quot;bcc2@example.com&quot;&lt;span style=&quot;color: rgb(0, 0, 0);&quot; class=&quot;s1&quot;&gt;],&lt;/span&gt;&lt;/font&gt;&lt;/p&gt;&lt;p style=&quot;font-variant-numeric: normal; font-variant-east-asian: normal; font-variant-alternates: normal; font-size-adjust: none; font-kerning: auto; font-optical-sizing: auto; font-feature-settings: normal; font-variation-settings: normal; font-variant-position: normal; font-stretch: normal; line-height: normal; margin: 0px; color: rgb(111, 90, 30); text-align: start;&quot; class=&quot;p3&quot;&gt;&lt;font style=&quot;font-size: 13px;&quot; face=&quot;Helvetica&quot;&gt;&lt;span style=&quot;color: rgb(0, 0, 0);&quot; class=&quot;s1&quot;&gt;&amp;nbsp;&amp;nbsp;&lt;/span&gt;&quot;attachments&quot;&lt;span style=&quot;color: rgb(0, 0, 0);&quot; class=&quot;s1&quot;&gt;: [&lt;/span&gt;&lt;/font&gt;&lt;/p&gt;&lt;p style=&quot;font-variant-numeric: normal; font-variant-east-asian: normal; font-variant-alternates: normal; font-size-adjust: none; font-kerning: auto; font-optical-sizing: auto; font-feature-settings: normal; font-variation-settings: normal; font-variant-position: normal; font-stretch: normal; line-height: normal; margin: 0px; text-align: start;&quot; class=&quot;p1&quot;&gt;&lt;font style=&quot;font-size: 13px;&quot; face=&quot;Helvetica&quot;&gt;&lt;span class=&quot;Apple-converted-space&quot;&gt;&amp;nbsp; &amp;nbsp;&amp;nbsp;&lt;/span&gt;{&lt;/font&gt;&lt;/p&gt;&lt;p style=&quot;font-variant-numeric: normal; font-variant-east-asian: normal; font-variant-alternates: normal; font-size-adjust: none; font-kerning: auto; font-optical-sizing: auto; font-feature-settings: normal; font-variation-settings: normal; font-variant-position: normal; font-stretch: normal; line-height: normal; margin: 0px; color: rgb(181, 0, 19); text-align: start;&quot; class=&quot;p2&quot;&gt;&lt;font style=&quot;font-size: 13px;&quot; face=&quot;Helvetica&quot;&gt;&lt;span style=&quot;color: rgb(0, 0, 0);&quot; class=&quot;s1&quot;&gt;&amp;nbsp; &amp;nbsp; &amp;nbsp;&amp;nbsp;&lt;/span&gt;&lt;span style=&quot;color: rgb(111, 90, 30);&quot; class=&quot;s2&quot;&gt;&quot;fileName&quot;&lt;/span&gt;&lt;span style=&quot;color: rgb(0, 0, 0);&quot; class=&quot;s1&quot;&gt;:&amp;nbsp;&lt;/span&gt;&quot;document.pdf&quot;&lt;span style=&quot;color: rgb(0, 0, 0);&quot; class=&quot;s1&quot;&gt;,&lt;/span&gt;&lt;/font&gt;&lt;/p&gt;&lt;p style=&quot;font-variant-numeric: normal; font-variant-east-asian: normal; font-variant-alternates: normal; font-size-adjust: none; font-kerning: auto; font-optical-sizing: auto; font-feature-settings: normal; font-variation-settings: normal; font-variant-position: normal; font-stretch: normal; line-height: normal; margin: 0px; color: rgb(181, 0, 19); text-align: start;&quot; class=&quot;p2&quot;&gt;&lt;font style=&quot;font-size: 13px;&quot; face=&quot;Helvetica&quot;&gt;&lt;span style=&quot;color: rgb(0, 0, 0);&quot; class=&quot;s1&quot;&gt;&amp;nbsp; &amp;nbsp; &amp;nbsp;&amp;nbsp;&lt;/span&gt;&lt;span style=&quot;color: rgb(111, 90, 30);&quot; class=&quot;s2&quot;&gt;&quot;fileUrl&quot;&lt;/span&gt;&lt;span style=&quot;color: rgb(0, 0, 0);&quot; class=&quot;s1&quot;&gt;:&amp;nbsp;&lt;/span&gt;&quot;https://miempresa.com/document.pdf&quot;&lt;/font&gt;&lt;/p&gt;&lt;p style=&quot;font-variant-numeric: normal; font-variant-east-asian: normal; font-variant-alternates: normal; font-size-adjust: none; font-kerning: auto; font-optical-sizing: auto; font-feature-settings: normal; font-variation-settings: normal; font-variant-position: normal; font-stretch: normal; line-height: normal; margin: 0px; text-align: start;&quot; class=&quot;p1&quot;&gt;&lt;font style=&quot;font-size: 13px;&quot; face=&quot;Helvetica&quot;&gt;&lt;span class=&quot;Apple-converted-space&quot;&gt;&amp;nbsp; &amp;nbsp;&amp;nbsp;&lt;/span&gt;}&lt;/font&gt;&lt;/p&gt;&lt;p style=&quot;font-variant-numeric: normal; font-variant-east-asian: normal; font-variant-alternates: normal; font-size-adjust: none; font-kerning: auto; font-optical-sizing: auto; font-feature-settings: normal; font-variation-settings: normal; font-variant-position: normal; font-stretch: normal; line-height: normal; margin: 0px; text-align: start;&quot; class=&quot;p1&quot;&gt;&lt;font style=&quot;font-size: 13px;&quot; face=&quot;Helvetica&quot;&gt;&lt;span class=&quot;Apple-converted-space&quot;&gt;&amp;nbsp;&amp;nbsp;&lt;/span&gt;]&lt;/font&gt;&lt;/p&gt;&lt;p style=&quot;font-variant-numeric: normal; font-variant-east-asian: normal; font-variant-alternates: normal; font-size-adjust: none; font-kerning: auto; font-optical-sizing: auto; font-feature-settings: normal; font-variation-settings: normal; font-variant-position: normal; font-stretch: normal; line-height: normal; margin: 0px; text-align: start;&quot; class=&quot;p1&quot;&gt;&lt;font style=&quot;font-size: 13px;&quot; face=&quot;Helvetica&quot;&gt;}&lt;/font&gt;&lt;/p&gt;&lt;p style=&quot;font-variant-numeric: normal; font-variant-east-asian: normal; font-variant-alternates: normal; font-size-adjust: none; font-kerning: auto; font-optical-sizing: auto; font-feature-settings: normal; font-variation-settings: normal; font-variant-position: normal; font-stretch: normal; line-height: normal; margin: 0px; text-align: start;&quot; class=&quot;p1&quot;&gt;&lt;font style=&quot;font-size: 13px;&quot; face=&quot;Helvetica&quot;&gt;&lt;br&gt;&lt;/font&gt;&lt;/p&gt;" style="container=1;collapsible=0;expand=0;recursiveResize=0;html=1;whiteSpace=wrap;strokeColor=#A56EFF;fillColor=none;strokeWidth=1;dashed=1;" parent="JSNP4mhpRl2PcN9VcqDA-1" vertex="1">
                    <mxGeometry x="51" y="166" width="508" height="283" as="geometry"/>
                </mxCell>
                <mxCell id="sFZHLIyC35yN5D26raUc-41" value="Request Body para Email (Múltiples receptores)" style="shape=rect;fillColor=none;aspect=fixed;resizable=0;labelPosition=right;verticalLabelPosition=middle;align=left;verticalAlign=middle;strokeColor=none;part=1;spacingLeft=5;fontSize=13;fontFamily=Helvetica;fontStyle=1" parent="sFZHLIyC35yN5D26raUc-40" vertex="1">
                    <mxGeometry width="48" height="48" relative="1" as="geometry"/>
                </mxCell>
                <mxCell id="sFZHLIyC35yN5D26raUc-42" value="" style="fillColor=#A56EFF;shape=mxgraph.ibm_cloud.ibm-watsonx--code-assistant;strokeColor=none;dashed=0;outlineConnect=0;html=1;labelPosition=center;verticalLabelPosition=bottom;verticalAlign=top;part=1;movable=0;resizable=0;rotatable=0;" parent="sFZHLIyC35yN5D26raUc-41" vertex="1">
                    <mxGeometry width="24" height="24" relative="1" as="geometry">
                        <mxPoint x="12" y="12" as="offset"/>
                    </mxGeometry>
                </mxCell>
                <mxCell id="sFZHLIyC35yN5D26raUc-43" value="" style="shape=rect;fillColor=#A56EFF;aspect=fixed;resizable=0;labelPosition=right;verticalLabelPosition=middle;align=left;verticalAlign=middle;strokeColor=none;part=1;spacingLeft=5;fontSize=14;" parent="sFZHLIyC35yN5D26raUc-40" vertex="1">
                    <mxGeometry width="4" height="48" relative="1" as="geometry"/>
                </mxCell>
                <mxCell id="sFZHLIyC35yN5D26raUc-44" value="&lt;p style=&quot;margin: 0px; font-variant-numeric: normal; font-variant-east-asian: normal; font-variant-alternates: normal; font-size-adjust: none; font-kerning: auto; font-optical-sizing: auto; font-feature-settings: normal; font-variation-settings: normal; font-variant-position: normal; font-stretch: normal; font-size: 13px; line-height: normal; text-align: start;&quot; class=&quot;p1&quot;&gt;&lt;font face=&quot;Helvetica&quot;&gt;{&lt;/font&gt;&lt;/p&gt;&lt;p style=&quot;margin: 0px; font-variant-numeric: normal; font-variant-east-asian: normal; font-variant-alternates: normal; font-size-adjust: none; font-kerning: auto; font-optical-sizing: auto; font-feature-settings: normal; font-variation-settings: normal; font-variant-position: normal; font-stretch: normal; font-size: 13px; line-height: normal; color: rgb(181, 0, 19); text-align: start;&quot; class=&quot;p2&quot;&gt;&lt;font face=&quot;Helvetica&quot;&gt;&lt;span style=&quot;color: rgb(0, 0, 0);&quot; class=&quot;s1&quot;&gt;&amp;nbsp;&lt;/span&gt;&lt;span style=&quot;color: rgb(111, 90, 30);&quot; class=&quot;s2&quot;&gt;&quot;to&quot;&lt;/span&gt;&lt;span style=&quot;color: rgb(0, 0, 0);&quot; class=&quot;s1&quot;&gt;:&amp;nbsp;&lt;/span&gt;&lt;/font&gt;&lt;span style=&quot;color: rgb(0, 0, 0);&quot; class=&quot;s1&quot;&gt;[&lt;/span&gt;&quot;user-id-1&quot;&lt;span style=&quot;color: rgb(0, 0, 0);&quot; class=&quot;s1&quot;&gt;,&amp;nbsp;&lt;/span&gt;&quot;user-id-2&quot;&lt;span style=&quot;color: rgb(0, 0, 0);&quot; class=&quot;s1&quot;&gt;,&amp;nbsp;&lt;/span&gt;&quot;user-id-3&quot;&lt;span style=&quot;color: rgb(0, 0, 0);&quot; class=&quot;s1&quot;&gt;],&lt;/span&gt;&lt;/p&gt;&lt;p style=&quot;margin: 0px; font-variant-numeric: normal; font-variant-east-asian: normal; font-variant-alternates: normal; font-size-adjust: none; font-kerning: auto; font-optical-sizing: auto; font-feature-settings: normal; font-variation-settings: normal; font-variant-position: normal; font-stretch: normal; font-size: 13px; line-height: normal; color: rgb(181, 0, 19); text-align: start;&quot; class=&quot;p2&quot;&gt;&lt;span style=&quot;color: rgb(0, 0, 0);&quot; class=&quot;s1&quot;&gt;&lt;font style=&quot;color: rgb(181, 0, 19);&quot; face=&quot;Helvetica&quot;&gt;&lt;span style=&quot;color: rgb(0, 0, 0);&quot; class=&quot;s1&quot;&gt;&amp;nbsp;&lt;/span&gt;&lt;/font&gt;&lt;span style=&quot;background-color: transparent; color: rgb(111, 90, 30);&quot; class=&quot;s2&quot;&gt;&quot;type&quot;&lt;/span&gt;&lt;span style=&quot;background-color: transparent; color: rgb(0, 0, 0);&quot; class=&quot;s1&quot;&gt;:&amp;nbsp;&lt;/span&gt;&lt;span style=&quot;color: rgb(181, 0, 19); background-color: transparent;&quot;&gt;&quot;otp-generator / message&quot;&lt;/span&gt;&lt;span style=&quot;background-color: transparent; color: rgb(0, 0, 0);&quot; class=&quot;s1&quot;&gt;,&lt;/span&gt;&lt;br&gt;&lt;/span&gt;&lt;/p&gt;&lt;p style=&quot;margin: 0px; font-variant-numeric: normal; font-variant-east-asian: normal; font-variant-alternates: normal; font-size-adjust: none; font-kerning: auto; font-optical-sizing: auto; font-feature-settings: normal; font-variation-settings: normal; font-variant-position: normal; font-stretch: normal; font-size: 13px; line-height: normal; color: rgb(181, 0, 19); text-align: start;&quot; class=&quot;p2&quot;&gt;&lt;span style=&quot;color: rgb(0, 0, 0);&quot; class=&quot;s1&quot;&gt;&lt;span style=&quot;background-color: transparent; color: rgb(0, 0, 0);&quot; class=&quot;s1&quot;&gt;&lt;span style=&quot;background-color: transparent; color: rgb(111, 90, 30);&quot; class=&quot;s2&quot;&gt;&quot;transaction-type&quot;&lt;/span&gt;&lt;span style=&quot;background-color: transparent; color: rgb(0, 0, 0);&quot; class=&quot;s1&quot;&gt;:&amp;nbsp;&lt;/span&gt;&lt;span style=&quot;color: rgb(181, 0, 19); background-color: transparent;&quot;&gt;&quot;email-validation / phone-validation / change-pass&quot;&lt;/span&gt;&lt;span style=&quot;background-color: transparent; color: rgb(0, 0, 0);&quot; class=&quot;s1&quot;&gt;,&lt;/span&gt;&lt;br&gt;&lt;/span&gt;&lt;/span&gt;&lt;/p&gt;&lt;p style=&quot;margin: 0px; font-variant-numeric: normal; font-variant-east-asian: normal; font-variant-alternates: normal; font-size-adjust: none; font-kerning: auto; font-optical-sizing: auto; font-feature-settings: normal; font-variation-settings: normal; font-variant-position: normal; font-stretch: normal; font-size: 13px; line-height: normal; color: rgb(181, 0, 19); text-align: start;&quot; class=&quot;p2&quot;&gt;&lt;font face=&quot;Helvetica&quot;&gt;&lt;span style=&quot;color: rgb(0, 0, 0);&quot; class=&quot;s1&quot;&gt;&amp;nbsp; &lt;/span&gt;&lt;span style=&quot;color: rgb(111, 90, 30);&quot; class=&quot;s2&quot;&gt;&quot;message&quot;&lt;/span&gt;&lt;span style=&quot;color: rgb(0, 0, 0);&quot; class=&quot;s1&quot;&gt;: &lt;/span&gt;&quot;Tu código de verificación es 1234&quot;&lt;span style=&quot;color: rgb(0, 0, 0);&quot; class=&quot;s1&quot;&gt;,&lt;/span&gt;&lt;/font&gt;&lt;/p&gt;&lt;p style=&quot;margin: 0px; font-variant-numeric: normal; font-variant-east-asian: normal; font-variant-alternates: normal; font-size-adjust: none; font-kerning: auto; font-optical-sizing: auto; font-feature-settings: normal; font-variation-settings: normal; font-variant-position: normal; font-stretch: normal; font-size: 13px; line-height: normal; color: rgb(181, 0, 19); text-align: start;&quot; class=&quot;p2&quot;&gt;&lt;font face=&quot;Helvetica&quot;&gt;&lt;span style=&quot;color: rgb(0, 0, 0);&quot; class=&quot;s1&quot;&gt;&amp;nbsp; &lt;/span&gt;&lt;span style=&quot;color: rgb(111, 90, 30);&quot; class=&quot;s2&quot;&gt;&quot;senderId&quot;&lt;/span&gt;&lt;span style=&quot;color: rgb(0, 0, 0);&quot; class=&quot;s1&quot;&gt;: &lt;/span&gt;&quot;MiEmpresa&quot;&lt;/font&gt;&lt;/p&gt;&lt;p style=&quot;margin: 0px; font-variant-numeric: normal; font-variant-east-asian: normal; font-variant-alternates: normal; font-size-adjust: none; font-kerning: auto; font-optical-sizing: auto; font-feature-settings: normal; font-variation-settings: normal; font-variant-position: normal; font-stretch: normal; font-size: 13px; line-height: normal; text-align: start;&quot; class=&quot;p1&quot;&gt;&lt;font face=&quot;Helvetica&quot;&gt;}&lt;/font&gt;&lt;/p&gt;" style="container=1;collapsible=0;expand=0;recursiveResize=0;html=1;whiteSpace=wrap;strokeColor=#A56EFF;fillColor=none;strokeWidth=1;dashed=1;" parent="JSNP4mhpRl2PcN9VcqDA-1" vertex="1">
                    <mxGeometry x="575" y="168" width="443" height="279" as="geometry"/>
                </mxCell>
                <mxCell id="sFZHLIyC35yN5D26raUc-45" value="Request Body para SMS (Múltiples números de teléfono)" style="shape=rect;fillColor=none;aspect=fixed;resizable=0;labelPosition=right;verticalLabelPosition=middle;align=left;verticalAlign=middle;strokeColor=none;part=1;spacingLeft=5;fontSize=13;fontFamily=Helvetica;fontStyle=1" parent="sFZHLIyC35yN5D26raUc-44" vertex="1">
                    <mxGeometry width="48" height="48" relative="1" as="geometry"/>
                </mxCell>
                <mxCell id="sFZHLIyC35yN5D26raUc-46" value="" style="fillColor=#A56EFF;shape=mxgraph.ibm_cloud.ibm-watsonx--code-assistant;strokeColor=none;dashed=0;outlineConnect=0;html=1;labelPosition=center;verticalLabelPosition=bottom;verticalAlign=top;part=1;movable=0;resizable=0;rotatable=0;" parent="sFZHLIyC35yN5D26raUc-45" vertex="1">
                    <mxGeometry width="24" height="24" relative="1" as="geometry">
                        <mxPoint x="12" y="12" as="offset"/>
                    </mxGeometry>
                </mxCell>
                <mxCell id="sFZHLIyC35yN5D26raUc-47" value="" style="shape=rect;fillColor=#A56EFF;aspect=fixed;resizable=0;labelPosition=right;verticalLabelPosition=middle;align=left;verticalAlign=middle;strokeColor=none;part=1;spacingLeft=5;fontSize=14;" parent="sFZHLIyC35yN5D26raUc-44" vertex="1">
                    <mxGeometry width="4" height="48" relative="1" as="geometry"/>
                </mxCell>
                <mxCell id="sFZHLIyC35yN5D26raUc-48" value="&lt;p style=&quot;margin: 0px; font-variant-numeric: normal; font-variant-east-asian: normal; font-variant-alternates: normal; font-size-adjust: none; font-kerning: auto; font-optical-sizing: auto; font-feature-settings: normal; font-variation-settings: normal; font-variant-position: normal; font-stretch: normal; font-size: 13px; line-height: normal; text-align: start;&quot; class=&quot;p1&quot;&gt;&lt;font face=&quot;Helvetica&quot;&gt;{&lt;/font&gt;&lt;/p&gt;&lt;p style=&quot;margin: 0px; font-variant-numeric: normal; font-variant-east-asian: normal; font-variant-alternates: normal; font-size-adjust: none; font-kerning: auto; font-optical-sizing: auto; font-feature-settings: normal; font-variation-settings: normal; font-variant-position: normal; font-stretch: normal; font-size: 13px; line-height: normal; color: rgb(181, 0, 19); text-align: start;&quot; class=&quot;p2&quot;&gt;&lt;font face=&quot;Helvetica&quot;&gt;&lt;span style=&quot;color: rgb(0, 0, 0);&quot; class=&quot;s1&quot;&gt;&amp;nbsp; &lt;/span&gt;&lt;span style=&quot;color: rgb(111, 90, 30);&quot; class=&quot;s2&quot;&gt;&quot;to&quot;&lt;/span&gt;&lt;span style=&quot;color: rgb(0, 0, 0);&quot; class=&quot;s1&quot;&gt;:&amp;nbsp;&lt;/span&gt;&lt;/font&gt;&lt;span style=&quot;color: rgb(0, 0, 0);&quot; class=&quot;s1&quot;&gt;[&lt;/span&gt;&quot;user-id-1&quot;&lt;span style=&quot;color: rgb(0, 0, 0);&quot; class=&quot;s1&quot;&gt;,&amp;nbsp;&lt;/span&gt;&quot;user-id-2&quot;&lt;span style=&quot;color: rgb(0, 0, 0);&quot; class=&quot;s1&quot;&gt;,&amp;nbsp;&lt;/span&gt;&quot;user-id-3&quot;&lt;span style=&quot;color: rgb(0, 0, 0);&quot; class=&quot;s1&quot;&gt;],&lt;/span&gt;&lt;/p&gt;&lt;p style=&quot;margin: 0px; font-variant-numeric: normal; font-variant-east-asian: normal; font-variant-alternates: normal; font-size-adjust: none; font-kerning: auto; font-optical-sizing: auto; font-feature-settings: normal; font-variation-settings: normal; font-variant-position: normal; font-stretch: normal; font-size: 13px; line-height: normal; color: rgb(181, 0, 19); text-align: start;&quot; class=&quot;p2&quot;&gt;&lt;span style=&quot;color: rgb(0, 0, 0);&quot; class=&quot;s1&quot;&gt;&lt;span style=&quot;background-color: transparent; color: rgb(111, 90, 30);&quot; class=&quot;s2&quot;&gt;&amp;nbsp; &quot;type&quot;&lt;/span&gt;&lt;span style=&quot;color: rgb(0, 0, 0); background-color: transparent;&quot; class=&quot;s1&quot;&gt;:&amp;nbsp;&lt;/span&gt;&lt;span style=&quot;background-color: transparent; color: rgb(181, 0, 19);&quot;&gt;&quot;promotions / information&quot;&lt;/span&gt;&lt;span style=&quot;color: rgb(0, 0, 0); background-color: transparent;&quot; class=&quot;s1&quot;&gt;,&lt;/span&gt;&lt;br&gt;&lt;/span&gt;&lt;/p&gt;&lt;p style=&quot;margin: 0px; font-variant-numeric: normal; font-variant-east-asian: normal; font-variant-alternates: normal; font-size-adjust: none; font-kerning: auto; font-optical-sizing: auto; font-feature-settings: normal; font-variation-settings: normal; font-variant-position: normal; font-stretch: normal; font-size: 13px; line-height: normal; color: rgb(181, 0, 19); text-align: start;&quot; class=&quot;p2&quot;&gt;&lt;font face=&quot;Helvetica&quot;&gt;&lt;span style=&quot;color: rgb(0, 0, 0);&quot; class=&quot;s1&quot;&gt;&amp;nbsp; &lt;/span&gt;&lt;span style=&quot;color: rgb(111, 90, 30);&quot; class=&quot;s2&quot;&gt;&quot;title&quot;&lt;/span&gt;&lt;span style=&quot;color: rgb(0, 0, 0);&quot; class=&quot;s1&quot;&gt;: &lt;/span&gt;&quot;¡Nueva actualización!&quot;&lt;span style=&quot;color: rgb(0, 0, 0);&quot; class=&quot;s1&quot;&gt;,&lt;/span&gt;&lt;/font&gt;&lt;/p&gt;&lt;p style=&quot;margin: 0px; font-variant-numeric: normal; font-variant-east-asian: normal; font-variant-alternates: normal; font-size-adjust: none; font-kerning: auto; font-optical-sizing: auto; font-feature-settings: normal; font-variation-settings: normal; font-variant-position: normal; font-stretch: normal; font-size: 13px; line-height: normal; color: rgb(181, 0, 19); text-align: start;&quot; class=&quot;p2&quot;&gt;&lt;font face=&quot;Helvetica&quot;&gt;&lt;span style=&quot;color: rgb(0, 0, 0);&quot; class=&quot;s1&quot;&gt;&amp;nbsp; &lt;/span&gt;&lt;span style=&quot;color: rgb(111, 90, 30);&quot; class=&quot;s2&quot;&gt;&quot;body&quot;&lt;/span&gt;&lt;span style=&quot;color: rgb(0, 0, 0);&quot; class=&quot;s1&quot;&gt;: &lt;/span&gt;&quot;Hemos lanzado una nueva función en la app. ¡Descúbrela ahora!&quot;&lt;span style=&quot;color: rgb(0, 0, 0);&quot; class=&quot;s1&quot;&gt;,&lt;/span&gt;&lt;/font&gt;&lt;/p&gt;&lt;p style=&quot;margin: 0px; font-variant-numeric: normal; font-variant-east-asian: normal; font-variant-alternates: normal; font-size-adjust: none; font-kerning: auto; font-optical-sizing: auto; font-feature-settings: normal; font-variation-settings: normal; font-variant-position: normal; font-stretch: normal; font-size: 13px; line-height: normal; color: rgb(111, 90, 30); text-align: start;&quot; class=&quot;p3&quot;&gt;&lt;font face=&quot;Helvetica&quot;&gt;&lt;span style=&quot;color: rgb(0, 0, 0);&quot; class=&quot;s1&quot;&gt;&amp;nbsp; &lt;/span&gt;&quot;data&quot;&lt;span style=&quot;color: rgb(0, 0, 0);&quot; class=&quot;s1&quot;&gt;: {&lt;/span&gt;&lt;/font&gt;&lt;/p&gt;&lt;p style=&quot;margin: 0px; font-variant-numeric: normal; font-variant-east-asian: normal; font-variant-alternates: normal; font-size-adjust: none; font-kerning: auto; font-optical-sizing: auto; font-feature-settings: normal; font-variation-settings: normal; font-variant-position: normal; font-stretch: normal; font-size: 13px; line-height: normal; color: rgb(181, 0, 19); text-align: start;&quot; class=&quot;p2&quot;&gt;&lt;font face=&quot;Helvetica&quot;&gt;&lt;span style=&quot;color: rgb(0, 0, 0);&quot; class=&quot;s1&quot;&gt;&amp;nbsp; &amp;nbsp; &lt;/span&gt;&lt;span style=&quot;color: rgb(111, 90, 30);&quot; class=&quot;s2&quot;&gt;&quot;action&quot;&lt;/span&gt;&lt;span style=&quot;color: rgb(0, 0, 0);&quot; class=&quot;s1&quot;&gt;: &lt;/span&gt;&quot;open_app&quot;&lt;span style=&quot;color: rgb(0, 0, 0);&quot; class=&quot;s1&quot;&gt;,&lt;/span&gt;&lt;/font&gt;&lt;/p&gt;&lt;p style=&quot;margin: 0px; font-variant-numeric: normal; font-variant-east-asian: normal; font-variant-alternates: normal; font-size-adjust: none; font-kerning: auto; font-optical-sizing: auto; font-feature-settings: normal; font-variation-settings: normal; font-variant-position: normal; font-stretch: normal; font-size: 13px; line-height: normal; color: rgb(181, 0, 19); text-align: start;&quot; class=&quot;p2&quot;&gt;&lt;font face=&quot;Helvetica&quot;&gt;&lt;span style=&quot;color: rgb(0, 0, 0);&quot; class=&quot;s1&quot;&gt;&amp;nbsp; &amp;nbsp; &lt;/span&gt;&lt;span style=&quot;color: rgb(111, 90, 30);&quot; class=&quot;s2&quot;&gt;&quot;extraInfo&quot;&lt;/span&gt;&lt;span style=&quot;color: rgb(0, 0, 0);&quot; class=&quot;s1&quot;&gt;: &lt;/span&gt;&quot;https://miempresa.com/novedades&quot;,&lt;/font&gt;&lt;/p&gt;&lt;p style=&quot;margin: 0px; font-variant-numeric: normal; font-variant-east-asian: normal; font-variant-alternates: normal; font-size-adjust: none; font-kerning: auto; font-optical-sizing: auto; font-feature-settings: normal; font-variation-settings: normal; font-variant-position: normal; font-stretch: normal; font-size: 13px; line-height: normal; color: rgb(181, 0, 19); text-align: start;&quot; class=&quot;p2&quot;&gt;&lt;font face=&quot;Helvetica&quot;&gt;&amp;nbsp; &amp;nbsp; &lt;/font&gt;&lt;span style=&quot;background-color: transparent; color: rgb(111, 90, 30);&quot; class=&quot;s2&quot;&gt;&quot;image&quot;&lt;/span&gt;&lt;span style=&quot;background-color: transparent; color: rgb(0, 0, 0);&quot; class=&quot;s1&quot;&gt;:&amp;nbsp;&lt;/span&gt;&lt;span style=&quot;background-color: transparent;&quot;&gt;&quot;https://miempresa.com/novedades.jpg&quot;,&lt;/span&gt;&lt;/p&gt;&lt;p style=&quot;margin: 0px; font-variant-numeric: normal; font-variant-east-asian: normal; font-variant-alternates: normal; font-size-adjust: none; font-kerning: auto; font-optical-sizing: auto; font-feature-settings: normal; font-variation-settings: normal; font-variant-position: normal; font-stretch: normal; font-size: 13px; line-height: normal; text-align: start;&quot; class=&quot;p1&quot;&gt;&lt;font face=&quot;Helvetica&quot;&gt;&lt;span class=&quot;Apple-converted-space&quot;&gt;&amp;nbsp; &lt;/span&gt;},&lt;/font&gt;&lt;/p&gt;&lt;p style=&quot;margin: 0px; font-variant-numeric: normal; font-variant-east-asian: normal; font-variant-alternates: normal; font-size-adjust: none; font-kerning: auto; font-optical-sizing: auto; font-feature-settings: normal; font-variation-settings: normal; font-variant-position: normal; font-stretch: normal; font-size: 13px; line-height: normal; color: rgb(111, 90, 30); text-align: start;&quot; class=&quot;p3&quot;&gt;&lt;font face=&quot;Helvetica&quot;&gt;&lt;span style=&quot;color: rgb(0, 0, 0);&quot; class=&quot;s1&quot;&gt;&amp;nbsp; &lt;/span&gt;&quot;priority&quot;&lt;span style=&quot;color: rgb(0, 0, 0);&quot; class=&quot;s1&quot;&gt;: &lt;/span&gt;&lt;span style=&quot;color: rgb(181, 0, 19);&quot; class=&quot;s3&quot;&gt;&quot;high&quot;&lt;/span&gt;&lt;/font&gt;&lt;/p&gt;&lt;p style=&quot;margin: 0px; font-variant-numeric: normal; font-variant-east-asian: normal; font-variant-alternates: normal; font-size-adjust: none; font-kerning: auto; font-optical-sizing: auto; font-feature-settings: normal; font-variation-settings: normal; font-variant-position: normal; font-stretch: normal; font-size: 13px; line-height: normal; text-align: start;&quot; class=&quot;p1&quot;&gt;&lt;font face=&quot;Helvetica&quot;&gt;}&lt;/font&gt;&lt;/p&gt;" style="container=1;collapsible=0;expand=0;recursiveResize=0;html=1;whiteSpace=wrap;strokeColor=#A56EFF;fillColor=none;strokeWidth=1;dashed=1;" parent="JSNP4mhpRl2PcN9VcqDA-1" vertex="1">
                    <mxGeometry x="1036" y="168" width="514" height="279" as="geometry"/>
                </mxCell>
                <mxCell id="sFZHLIyC35yN5D26raUc-49" value="Request Body para Push Notification (Múltiples dispositivos/tópicos)" style="shape=rect;fillColor=none;aspect=fixed;resizable=0;labelPosition=right;verticalLabelPosition=middle;align=left;verticalAlign=middle;strokeColor=none;part=1;spacingLeft=5;fontSize=13;fontFamily=Helvetica;fontStyle=1" parent="sFZHLIyC35yN5D26raUc-48" vertex="1">
                    <mxGeometry width="48" height="48" relative="1" as="geometry"/>
                </mxCell>
                <mxCell id="sFZHLIyC35yN5D26raUc-50" value="" style="fillColor=#A56EFF;shape=mxgraph.ibm_cloud.ibm-watsonx--code-assistant;strokeColor=none;dashed=0;outlineConnect=0;html=1;labelPosition=center;verticalLabelPosition=bottom;verticalAlign=top;part=1;movable=0;resizable=0;rotatable=0;" parent="sFZHLIyC35yN5D26raUc-49" vertex="1">
                    <mxGeometry width="24" height="24" relative="1" as="geometry">
                        <mxPoint x="12" y="12" as="offset"/>
                    </mxGeometry>
                </mxCell>
                <mxCell id="sFZHLIyC35yN5D26raUc-51" value="" style="shape=rect;fillColor=#A56EFF;aspect=fixed;resizable=0;labelPosition=right;verticalLabelPosition=middle;align=left;verticalAlign=middle;strokeColor=none;part=1;spacingLeft=5;fontSize=14;" parent="sFZHLIyC35yN5D26raUc-48" vertex="1">
                    <mxGeometry width="4" height="48" relative="1" as="geometry"/>
                </mxCell>
                <mxCell id="sFZHLIyC35yN5D26raUc-52" value="&lt;font style=&quot;font-size: 17px;&quot;&gt;&lt;font style=&quot;font-family: &amp;quot;Courier New&amp;quot;;&quot;&gt;&lt;b style=&quot;&quot;&gt;POST /users/emails&lt;/b&gt;&lt;b style=&quot;&quot;&gt;&amp;nbsp;HTTP/1.1&amp;nbsp;&lt;/b&gt;&lt;/font&gt;&lt;/font&gt;&lt;div&gt;&lt;font style=&quot;font-size: 17px;&quot;&gt;&lt;b style=&quot;font-family: &amp;quot;Courier New&amp;quot;;&quot;&gt;Host:&amp;nbsp;&lt;/b&gt;&lt;span style=&quot;font-family: &amp;quot;Courier New&amp;quot;;&quot;&gt;https://client-api.&lt;/span&gt;&lt;b style=&quot;font-family: &amp;quot;Courier New&amp;quot;;&quot;&gt;&lt;font&gt;&lt;span style=&quot;background-color: rgb(255, 255, 255);&quot;&gt;&amp;lt;ENV&lt;/span&gt;&lt;span style=&quot;background-color: rgb(255, 255, 255);&quot;&gt;&amp;gt;&lt;/span&gt;&lt;/font&gt;&lt;/b&gt;&lt;span style=&quot;font-family: &amp;quot;Courier New&amp;quot;;&quot;&gt;.superapp.coto.com.ar/notifications&lt;/span&gt;&lt;/font&gt;&lt;/div&gt;" style="text;html=1;align=left;verticalAlign=middle;whiteSpace=wrap;rounded=0;" parent="JSNP4mhpRl2PcN9VcqDA-1" vertex="1">
                    <mxGeometry x="55.5" y="27" width="499" height="119" as="geometry"/>
                </mxCell>
                <mxCell id="sFZHLIyC35yN5D26raUc-53" value="&lt;font style=&quot;font-size: 17px;&quot;&gt;&lt;font style=&quot;font-family: &amp;quot;Courier New&amp;quot;;&quot;&gt;&lt;b style=&quot;&quot;&gt;POST /users/sms&lt;/b&gt;&lt;b style=&quot;&quot;&gt;&amp;nbsp;HTTP/1.1&amp;nbsp;&lt;/b&gt;&lt;/font&gt;&lt;/font&gt;&lt;div&gt;&lt;font style=&quot;font-size: 17px;&quot;&gt;&lt;b style=&quot;font-family: &amp;quot;Courier New&amp;quot;;&quot;&gt;Host:&amp;nbsp;&lt;/b&gt;&lt;span style=&quot;font-family: &amp;quot;Courier New&amp;quot;;&quot;&gt;https://client-api.&lt;/span&gt;&lt;b style=&quot;font-family: &amp;quot;Courier New&amp;quot;;&quot;&gt;&lt;font&gt;&lt;span style=&quot;background-color: rgb(255, 255, 255);&quot;&gt;&amp;lt;ENV&lt;/span&gt;&lt;span style=&quot;background-color: rgb(255, 255, 255);&quot;&gt;&amp;gt;&lt;/span&gt;&lt;/font&gt;&lt;/b&gt;&lt;span style=&quot;font-family: &amp;quot;Courier New&amp;quot;;&quot;&gt;.superapp.coto.com.ar/notifications&lt;/span&gt;&lt;/font&gt;&lt;/div&gt;" style="text;html=1;align=left;verticalAlign=middle;whiteSpace=wrap;rounded=0;" parent="JSNP4mhpRl2PcN9VcqDA-1" vertex="1">
                    <mxGeometry x="574.5" y="22" width="499" height="119" as="geometry"/>
                </mxCell>
                <mxCell id="sFZHLIyC35yN5D26raUc-54" value="&lt;font style=&quot;font-size: 17px;&quot;&gt;&lt;font style=&quot;font-family: &amp;quot;Courier New&amp;quot;;&quot;&gt;&lt;b style=&quot;&quot;&gt;POST /users/push&lt;/b&gt;&lt;b style=&quot;&quot;&gt;&amp;nbsp;HTTP/1.1&amp;nbsp;&lt;/b&gt;&lt;/font&gt;&lt;/font&gt;&lt;div&gt;&lt;font style=&quot;font-size: 17px;&quot;&gt;&lt;b style=&quot;font-family: &amp;quot;Courier New&amp;quot;;&quot;&gt;Host:&amp;nbsp;&lt;/b&gt;&lt;span style=&quot;font-family: &amp;quot;Courier New&amp;quot;;&quot;&gt;https://client-api.&lt;/span&gt;&lt;b style=&quot;font-family: &amp;quot;Courier New&amp;quot;;&quot;&gt;&lt;font&gt;&lt;span style=&quot;background-color: rgb(255, 255, 255);&quot;&gt;&amp;lt;ENV&lt;/span&gt;&lt;span style=&quot;background-color: rgb(255, 255, 255);&quot;&gt;&amp;gt;&lt;/span&gt;&lt;/font&gt;&lt;/b&gt;&lt;span style=&quot;font-family: &amp;quot;Courier New&amp;quot;;&quot;&gt;.superapp.coto.com.ar/notifications&lt;/span&gt;&lt;/font&gt;&lt;/div&gt;" style="text;html=1;align=left;verticalAlign=middle;whiteSpace=wrap;rounded=0;" parent="JSNP4mhpRl2PcN9VcqDA-1" vertex="1">
                    <mxGeometry x="1041" y="22" width="499" height="119" as="geometry"/>
                </mxCell>
                <mxCell id="sFZHLIyC35yN5D26raUc-59" value="notification" style="swimlane;whiteSpace=wrap;html=1;dashed=1;fillColor=#3333FF;fontColor=#FFFFFF;" parent="JSNP4mhpRl2PcN9VcqDA-1" vertex="1">
                    <mxGeometry x="51" y="459" width="1499" height="879" as="geometry"/>
                </mxCell>
                <mxCell id="sFZHLIyC35yN5D26raUc-60" value="&lt;font style=&quot;text-wrap: nowrap; color: rgb(0, 0, 0); font-size: 11px;&quot;&gt;&lt;b style=&quot;&quot;&gt;Methods&lt;/b&gt;&lt;br&gt;getUserEmailById&lt;/font&gt;&lt;div style=&quot;text-wrap: nowrap;&quot;&gt;&lt;font style=&quot;color: rgb(0, 0, 0); font-size: 11px;&quot;&gt;getUserPhoneById&lt;/font&gt;&lt;/div&gt;&lt;div style=&quot;text-wrap: nowrap;&quot;&gt;&lt;font style=&quot;color: rgb(0, 0, 0); font-size: 11px;&quot;&gt;getUserTokenById&lt;/font&gt;&lt;/div&gt;&lt;div style=&quot;text-wrap: nowrap;&quot;&gt;&lt;font style=&quot;color: rgb(0, 0, 0); font-size: 11px;&quot;&gt;saveOTPByUser&lt;/font&gt;&lt;/div&gt;&lt;div style=&quot;text-wrap: nowrap;&quot;&gt;&lt;font style=&quot;color: rgb(0, 0, 0); font-size: 11px;&quot;&gt;getOTPInfoByUser&lt;/font&gt;&lt;/div&gt;&lt;div style=&quot;text-wrap: nowrap;&quot;&gt;&lt;font style=&quot;color: rgb(0, 0, 0); font-size: 11px;&quot;&gt;generateOTPByUser&lt;/font&gt;&lt;/div&gt;" style="shape=note2;boundedLbl=1;whiteSpace=wrap;html=1;size=25;verticalAlign=top;align=center;" parent="sFZHLIyC35yN5D26raUc-59" vertex="1">
                    <mxGeometry x="584" y="39" width="194" height="145" as="geometry"/>
                </mxCell>
                <mxCell id="sFZHLIyC35yN5D26raUc-55" value="&lt;b style=&quot;color: rgb(35, 47, 62); text-wrap: nowrap; background-color: light-dark(rgb(255, 255, 255), rgb(189, 199, 212));&quot;&gt;&lt;font&gt;sqs_notifications_queue&lt;/font&gt;&lt;/b&gt;" style="text;html=1;align=center;verticalAlign=middle;whiteSpace=wrap;rounded=0;" parent="sFZHLIyC35yN5D26raUc-59" vertex="1">
                    <mxGeometry x="685" y="300" width="159" height="30" as="geometry"/>
                </mxCell>
                <mxCell id="sFZHLIyC35yN5D26raUc-62" value="" style="shape=image;verticalLabelPosition=bottom;labelBackgroundColor=default;verticalAlign=top;aspect=fixed;imageAspect=0;image=data:image/webp,UklGRrymAABXRUJQVlA4WAoAAAAYAAAAfwcAQQIAQUxQSCwnAAAN8LZt29pGtrVdt8CSZWYOc3FVdzUMprkY/upkhkE9RlN1YaDCccyMkkX3gu4K3or04dq2iJgAuHP7FMknchwhcKUErpSDKyRwpQSulMCVErhKAldK4Mbatq5Nxyo4wWA0EFBkn0/gOPh+Ahcl8MEEPpzABTn4cAIfTuCCBD6cwBUSuCCBDyfAVttQJ+NBt6UBw+VsKh73C9m03y/JIs9xBL6fg0skcHECFyZwiQQuTuDiBC5M4OIELkzgMglcOYFLJHBxAhcn8IPUNmfTyaBdb4+blfMZsJlLJlKJkC+WCAdlycfzhIMfJnBhAhfn4MIELpPAhQlcnMCFCVycwMUJXCKBCxO4OIFrSODiBH7YNnV1Mh5U6pNOpTwGN5QQnidEEHie54DjgFIKN5texa1Nr+TWJoRwYNu2ZZmGZZs2ZQvheI7jBZHneA4otW2gFCjcgvQC15pehbMkhCM8R6hlmpptWRZlB+F5jveJAs9Ry7ZssEywKaXwofQyriW9jLsnIRzH8zzHCZxhzwzTNCkjCMfznOATic+mpm1T27JtoJTCdacXu6b0Epw1IRzhBJ7jed60Z7ppmba7wceyqYgUTyqy7BMoAcO0bErp1dDbiV4NvZqrpbcUIYIoCTaYk/Gg0emWmzpbhFQ2HQ6lo4rC22BqM31mmhbYP0Cvhl6AXg29GnqBK6UXoUwjvOTzKwER6KRd6fWOWyo7AsmFaKSQDIhUG4/GhtUbzgzDsCxq0x+4VHoJ9GKXSq8FvRi9BHoxejPoZdBLoJdAf4hwvChJSigalmJRBcaNWuOoPGGELzKfiuRTIT9Y0+FINScjVdMNk1pgfwC9GL2ES6SXQi92mfQ60Eugl0EvRm8GvQT6ARwv+CS/Eo9KgViIV6vl4dnRkLoTUjgSCYdDArEty7ZMy7bAPSVAOCKHOJHnBFHgOWK0O6Ne17z1xGAiFIyHBGKblmWYNrishBCe48SInxcEn8DxRG+1B93B7UbkWDIWifDUtC3dsMCFJYTjeEHkeV6KBnmfKApk1m41erPbTIwkItG4BLZlGYYFLiwhHMfxosiJUijE+3yCQGiv0eyOXAZRkaPpXCoUlIkOLi4JhCKZeCwbIaPOoHLan+r0FuPkcDA5Fw9HJDDB5SWBZCkSy0f5QbtRrg4169biA5FQsZQMS/qMgiscyObS82kYN47PuwP9liL+cDCzkIiE6NQGV1gulMK5gqw1T8/aXY26BXy8tJ4KRs1Wq9nXwRWW5EAqE89ljM75zqF2O8ml5VI6ZA8q3Z4OLjGRpFA6my5EOpXT943bKDC3OJ/xq41KTwdXmVdiycJ8knSPv63cPmJuYSUXot1ya0zBTRYUf7wwn1WGxy+PzLufpITiSVmSOQouczCiJPIBYqrjVmugWrcKUYKheMwv+YgNrnM4Gk3miT3TBrXuyLhFiD8QScYkSQJ3mgvGcjmFNyaDRmuk3x4+JZxIyrLE2eBKy/F0Ni6Y6qjRHKp3u1B6/mFenPY1w3KbvjeYW9osGCcvj9q3SmxuYy7p6010C1zq4uLSarDx6nXNuj1ixbWNJO2Mddud+t5gce2jSPu7NxXztpAziw8LYnc4s8C9FnLrT/OjnRflyZ2NZNZWQnTSGIF7zfGCkkxkMr7eu+Pe7RDIL64E1FZvAm62IEj+TDofme2+a98GJLOxGtG6TR1cbo7zKflEKTLb3uncAuGllTw3ro/A5Sa8T06lC0ly/LZs3b0ILynZZCkONrjfkbmNDK3XzruqdcM4QYqnU9kYBTecz6+vir2TWtUwbhbvU/KpUoyAS06ymytSu1xpzKybxIlSMlNMyTa45PGV+6HJWe1saty1+NWH98O9tmaDOx5aeLYgvvzu4IaF7j1P01bPALdcyt9/4j/7l2PzRhUefRbutWfgokuFJ/d8u/9xfpNiWz8parWRBS566t7Hifq/7ul3KV+qtCDqU3DRiT+aT4XFyfaZemMCucU0Uafgqvui+UxYHu8fT25KorQSMMbgtvtihUxEbG5X7JsRKCyl6MQEl50PpuZiwdHOiXpnUnIby0kNXPfER1ux7TcHsxsSWHywwlvgvoc2Pw80vjxQbwSXWt1cVMGVjz3+ZHb8omreABJYXr9n2+DGixs/D9a/PNLuRrnPVqVa0wI3PpD/tNT74+ubsPjxunk8BleeSAtr94d/fmVcO+HBxwvtsglufeDB1tz272vXbvGTx+rhFNx6sr650f7De+vOI0YXs2HOBLdeKj4IqtWjjnmtiBJejMV4Cq69lL8fGbd2+9Z14kKJpXCAgpsfWdzg+qcnk+ukhIvZsA/cfN/c/eC4vtendxt+/tM1UbOoawdAHv5o7s8vT65VaOVnmd7UBld/4/Ns4+9q1yl5//NE13D3AHw//WTy5g+z6yOtfLZZm1JXD4B/9DPx8F8Gd5n45lagPgCXX4gubErnX3WvTfrRIldRwe33JeaK2f1vO9eE5J+VtDK4/8SXX8vyf9qzr0f03j2upYL7L8TW56KvX47vKLw/Nj+XpOABKk9W7cOdsX4deH+mtOQHTzC88XS6f9yg14BTioUVATzC0uPS2UF5cnWclM6vhQ3wBuOP7nfeH3XvJnNPn1tNHbzB5KPnxl8eWdeg9Mmm3TW9AYDo8/uNN6+vQfFni/qAegUgzv8y9sd3vSuL/Xgr3DLAM0z/ZGPnu+M7SGojw43AM+QTSxmp9rZ3RVz6XsYcgYeYWslDZXt4NUJmNWcOwUuUi0vR3u45vZLE8hw3BS+RS67njMN99Y7BpVc+Mk3wEsnaL9W97cHVFFY/si3wFOUna9I3b0x6FfMbm8QGjzHzC6X2onEVqbWN6Aw8Rumn89MXu3eL5LNNaNrgLfLx+wud1ydXEP75ktUDz7G4sTD4h9HlJX5ZnHTAcyT+rWX6ehcIvRzp0y04M8F7XL4frv7WvDvIhcUYDx7k3Gp88K5uXZKSXY3Z4EFyhXuh2vvmJcnFxaQBnmRiNae+q5pwmXxmOcub4EX6llbEk73pXUFY+M+Bge1FQORHmcmfzy5HWvlNcuhJACS2nr/9nXop8tpHuRF4lP4HC/LvTi5l7vHDlkU9CYCl9dKrL+8Ipee5QwO8SY7cW9P29i9j6UGiAp5lYmme/4/GJSw8TjUt8CqJf3GBf797sfDjZW0MniVfWIl0v1LvAnOrJR68S+VxbvqydiGxsJXSwcMMPZ9/tzegF+ATj3IWeJnhlUXjy8YFiP/Bgh+8TGFuPfrde9v5/WLL7oOn+enC6M3ZRT79bDymXgYEln5c/1v9Ak9/0+mBtyltLvi/PgBCP6DwPwNty9MAmF/NH/3B6WWehTQDvE1pY6XzqvdB6WeRMXid0fvRycvehwSfZTQDvM7A0vLwTYvCD/Jb61QFr1MsrPPHh7qT48JPnvXB81R+6m++HXxAYuunY/A+g483v375AcrST6bggQYfptVvOj8gFn4aMcD75NcWlBfHDo5f+W/GALzQ58u7u+r3kYUfBYfghaZXk+0v6PclfrZaA09U/Ghpe1f9nshnnx1a4ImuPWrv1hybsjIXAm80vybX35r/n7CyFLDBG808kN6e/n9CaS1KwSON3g/V35gAJLOW4cAjldcK2sueQ/NvPQroHgmkfj37fQsAuM17+Rl4pffmzfcnALD+cMMAz9T/v83fNyiU7m0OqVcC8Jvct8dTRxa/X2yBZyrmVnJ/OoLQg9UxBe905WH9O1V+tGhS8E759Erqi/rqhjIAD9W/fm/3WycWepCzwUu9/3T3NdlclMBLDXzMtU8Lmxx4q+tPjrvrsgmeauqn/Tdt23HlPo83LU/FV1xL6v6Z7amA9PSBbYxnHktg8Ve5/T54q1ziSeof204rs5XsgscaeDQHDfBaF5ZjQ/BaSXArAt7r/bnz95qzCn6eMMFzXZ0TwXNVUjnwYP28BxNajTbfOidCIf1xdAC4bPhH2tdjx0Qh8CgzBmRW2AwPjyZOCYKfR7s2NgP8+uY3p04p/iBVBYS2tNbc052R72luBBitvKyMDwwnFNicV02UBsRP/b9XndDGVguw2s1wuep8+PRqkaI1obyv0XQ80f9k2IDXZh+Vt51OcjWlA2Ibftjfnzkb/scbHcBsfSWfVp05Gf+T0JCiNiCsR98MnUzxaQ+w29XCm46DyS34Z+hNLllrOxfh49gI0FuSS/TOnQqXfUQofgPKs8kLp1L8/AgwXOmetkOdCX+/OERx+BLXGTgS8anSpigO8UUDNdWJhD43bUBys6nzngOR5guA5qaLpx0H8nCziugsnDSdh/ggpuM5SmbYcRzyst8ERDfsG8+cRurn54DpSkX+yGH4VgoGqsPNi07jSaILuG5ePHcW0iPZRHYKDkPIpXWK7KR8DUeR2WwAtiuJmqMoLdXRHQgLDoLIpaiB8IQdhPBAGAO+60s4COWhQREePuQgkgsjQHiJzzmk8xPAeMW4c1jMVVAeX8I5LKUmKA+vOIZwQrRRHk52CnKWUMB5JKcQvtcFpEd0CrHNBtJDBKeQzgPWwzuEQqyN9QBxCFv+MdrjEMmGrGM91HYGUo6z0R7LGSR8gPZSwxFE8z28x9YdQXLpDPnKrPXwHqo6gnTMxnv0tgPg5KgJqBe/aNuID7UcgPBoBoivNXUA0pMp5mP0HUAiCpjvcMQ+JamhPuMJ+zKxMuozm7FvKd/FfMZGkH0rKQPzaZoR1pFgDFDfk1mAdWLaxH0qhsQ6uTDEfeqmyLrQxxXUZ1q3CeuSpSnmQ1sGsF5MGjbmM2hkmJf0TwD1qWaZNycPUZ9WrcC8x4qO+pTPBNYFcsRGfOxhnwPG8ynOAsTXPOZ51oXTY0B9DnzA+nixjvqoRzLzMost1Gd4wjMvGzMwn3HTD4znQiEKmG+tW2Qdv2jPcJ9OinXismGjPuW+wjp5cQaYr1GdAOtDBRXz0Ss8sN6X4gDznZ6EmZeLn6M+o+M48/LxGuozOEswrxgdoT6tHmEdVwzZmE9rEgDGC1keMF96rIVYF1geoD7W+5nEvPk+6qPVbJ51wfke6tMf8YR1sSLFfKZ9CqyPJCeA+bZOSsxb9I9Qn/ppnnlLPg31aQ+CrCNLPhPxoUZvCqz35zmK+Ng9DVgvz6mA+ZqvJeYl5uqoj7arMC+1WEZ9hi2Zeen8BPXp9YD1XNYPmG9/ILKOL3EG6nNYy7BO2DQB9T3uhFgnPZiiPrO6JrAulNEwH3s4pcB4PikC5qtVJGB9IjpAfUbvssxbyDdQn+F+innL6Snq06sR1nEZ0cJ8zA4BxnNx0QDM91QNs07OzwD1fTvzsy70pI76mLsznnWx1RbqM2oB81NBE/PRWyLzQkEDMN/eeYZ5RbmL+jRO5pn3SFFRn/KxzDppQbAQH2q2NWB9LGxRxMdugMQ6OWYA5msdCYR10Xwb9dH2JGB9ZrWM+oy2A8zLZaaYj90ygfVCyg+Yb3cUZR2f4FTUp9XNsk5YsmzU56QdZZ1vawao735PYJ2yrGI+dtsQgfXJMGC+s5oPWB+PDVGfyUmEedlEGfUZ7ieZV4p3UZ92VWbeXErHfCY9YH4wTgDzraox1slFHTBfeqIprPPPD3CfQ93HusBqB/WZ1oBnXfC+hvlYLQ1YT4omYL6DWox5RbmO+nTOi8wryEPUp1tOM29D0VGfeltkHX/PZyM+dNo2gfFC0QTM13gvAOsjhQ7usyMzL1asoz76ocS89GIH9RlWBeblUxTz0Rs2MJ5LKFPAfI8bc6wTFihFfc46cdaJ6zPc53wgs05anQHmazSmwPpY0sR8jCowP5DUAfMdvcsyL58soz7DwxTz5pJt1KdbizCvFNEwH9rpAesDMZFiPrVplHW+NAHUd28WZF3gXgf1MfZ1H+siK03UZ1KlHOtiiQHmY/ZnwHo+rgDmO6pHmJdWpqhPu1xk3n1ljPqcn8RZxy+KOuJDaX3Is06Jg4X5dA0RWB8O2RTxsWrAsy6UUQHz1Q9EYH129Qj1mbwOMi+Za6I+naHEvFRUxXxGQx8wnvjDAmC+3X6UdfwcZ6A+Z60k63ybBqC++x2ZeeszzIcORoSwLpSdYj56ixBgvJAggPlqdQlYn4p1UZ/xXpJ5xXQD9ekex5i3mJtiPmZTI8wr+m3Mp6NKwHguIdiA+NLaLMQ6f2kKmC95r0msC250UB/92ORZF37aRX06PQ5YnwkB5jtuScD6SGSC+vTPs8wryQPUp3taYt6WrKE+tarCOu6+ZGE+9HwIrM/4AfO1ygRYH0irqI+572NeNFdHfYwdiXnp1SrqMzoIMC9fMlCf+hAYT/xJGzDfer/EOj5HcJ9aO886YcGgqE+5E2beYw1Q34M+x7rwnIr52K0psF7I8ID5To7jzEvHm7jPfpJ5xWQd9RkesW8+NUZ92lVgPVfwW5hPv+dnHZ8UKWC+h1qEdcrKEDBfuj+TWRda6aI++pnJsy48h/tM2hRYH00ZmM+0LgPrlRgFzLd7lmPemjJEfZonJdaROZ+G+rQaAdYJWV7HfOyWCqyXi7yN+FhVS2admBEA89UPeWB9cqGC+mjv/MyL52uoz6QqMy+RamM+tKsS5qXTFubTG0rAeC6paID5njdzrBPXLBv1OWiFWMevmID52nVVZJ00r2M+dKhSYH0wb2I+eocC65W8CpjveCfBvEK6jPr0d/LMm0t2cZ9mgHmliIb5WF0NWC+lfID5tlSFdVLRBNR3m32BtQHqY+/oPtaFH9RQn0mVcqyLpyeYj9kxgPW+BAeY76geZl5WHqI+rYMV5q0HpqhPtRxl3iPZQH3KPWB9JGzbiI/VMn2sE+McYL7WKQ+sD6YmqI+5JzEvvX6E+kz2FObll4aoT6sFzM/4LMyn342yjkuIM8B8G90C64QimKhPuZdgnfhUA9T3oC2yLrisYj6037eB9YmAhfmop0FgfTg8A8x3ehZhXjpRRX1GJ3HmLWW6qE/3QGbefGSG+WhNYH4owgPmezpLsE5Km4D52ud6gHX+hSHqY53oPtaF1tqoj3FkcKyLzg0wH6NGgPUkEwTMt1+LMS8n91CfdjXPvAV5hPq0KknWcUvSDPWpdQXWCUuihfjYHU0E1idDgPmap4SwLpLvoz7argysj+abqM+0zL5EsYL6DHp+5qUWdMxHHWnAeCLkCWC+tXaedcIipajPcSPBOn7ZANS3NVBYJ65puE9N41knbaA+dnsCrOeLgPpODiPMyybrqM94O8e8UrqJ+kwOksybS05Qn3aHMG8+SDGfaZsDxvM5DlDfbTXAusDSEPmZSawLPaihPuapwbMuvNhDfQZ9YH4yApivVheZF4mMUZ/mwTLzVvwj1Kd+kmXeQ3mG+9R9rBNLgoX5mF0dWB8N2oD4WlVKWOdPzgDzNd5IwPrkchn1Ubf9zMss1VCfQdnHvHRogvkYXWA9kSI+ivm0uynWcSnfDDDfcjvDOuGJQVGf9y0/6/xrKmC+s5oGrA9HNMzHaHOEdXzUb2E+s3M/sD4aVQHzHR8mmLeUr6E+nW32laIj1KcxAtYLKZ+O+XS0AOtIWAHUt6pGWSfnDdSHHs5k1oW3OqiPvmsIzFvCfdpjkbAuntQwn3FHAtYrEQqY76CWYF5eaaM+rfMi81bkKepTPw8wb9NvIj5U65jA+kCWUsTHqls+1olZHTBf85QjrAtnhrjPex+wPj5XRX2mxwrzsltD1Kc1AObng4D59rpB1nEJaYz6VDtF1gnztoX6VNox1ombBqC+p0OJdb6nU9Rn2tCB9Tk/YL7qUQBYH4sPUJ/xbpp52dg56jM6TjJvLtNHfXoVmXnLSRPzsZpjYDyJhkzAfPenIdbJBQ0wX/pe97NOWeyhPuaZKbIuuNFCfbSKRViXKGmYj9XWgPVSClDf1tEC8wpKD/VpnrFv1TdBfRqNCOu4FcnAfOxGH1gfzICN+NhNnWedkBIA8zXei4R18VIT9VH3/MD61PwZ6jM8U5iXzPUwH7s/BuZnghbm0x/4WcdFFRsw31qnyDph08J9Dpph1klrM8B8jcpEYJ1cQH2sgc4D64MpDfMxmhywXk4QwHwn5RDz5rKnqE/nTYF5pWQX9Wm1/cwrhlXMZzjhgfW+pI9iPm1NYZ2QIYD52qcq84LrPdTHejMTWRdaa6M+WhM41kXm+5iP3bOA+dEIYL6jlsK8WHiM+rROSsxbVkaoT+0gzrx7io76tLoC67gVwUJ8qDoE5ofCgPlaNSCskwsT1Md85wPWJxfPUB/trcK8/FYL9Rmdi8zLJAzMx2xSYDzxh3XAfJu9LOv4LD9DfU6bKdYJGyagvkdtP+vE5yrqY5yNgfXxCOpj1AmwXk7ogPlOT2LMi0YmuM9eknnzmQbq0zuMM28tr6E+tSawXkqAjfk0JnHWCSk6A8z3WA+yTk4bgPoeaTLrgg9bqM/swOJZF1/roT6tHrCepCUL8+lXU8xLKlPAfLvlAvNKcg/1aVayzNv0q6hPvSayTprnLcSHjnvA/ETQBMTXPBQE1oWSKmC+xr5IWBcr1FEf9cgPrE/Mn6M+k4rEvExmgvnMmhwwnghpP2C+9W6OdXwJVNTnrJNmnbBsmKhPuRdgnbSkA+ZrNqcc65QFDfMxmxYHrE+FAfOdngaA9dl4E/Xp76aZl4tXUJ9BOcG8fKyP+nQHAvNKcQPz6U84YDwJRwhgvmfTIOv8Cypgvvbbmcw6ZXGA+syqlsC6wFIb9RkNOI51oRUN89EHBrCeLxDAfHvlFPMWlQHqU9svMW9FVlGfZivEOrIqGpiP2Z4C6/0F3kZ87O6MZ52QB9TX3BWA9fFiC/XR3vmZl1k9RX2Gpwrz0vkR5mN3JsD8rAKYb3+gsI5PiRrqc97MsU5YtQD1PeqEWSc+U1Ef63jEsy5Q1DAfq2MA8xN+wHy1isK8UGSG+qiHUeaV0mXUp3eQYd5qboj61M+B+SXFwHx6Iz/rSNRPAfM91yKskzI6YL70RFdYF9zqoD7G+5nIuuhmHfXp14H5yeQM8xlVIsyTIwQw30Ejwby01EN9Os0s87b8E9SndhxgnbAqGYgPNRpTYH0oDTbiY50QiXV8RATM16jwHOuCyRHqo51JwPrU8gnus+1nX66J+rTHwPxEeIr59AZh9kWDgPlWOyXWcTFxhvqU21HWCYsmRX1O+j7W8WkLEF/aHwPz+ZSJ+Wg1gX2+go75TA7i7BNTBuYzPko4gDDFfAaVEPOIKADiazWnwPwwNTGf2iTCvpw9Rnzovh5gX8rCfMjRTGJfzMZ8jHOTdwDmBPFpD8ABimDiPYNKxAlwQPGe5uGKE0jaQ7ynfZp0AjFrgvc02oITUGwd66FqxwYnKFIL6zF3eXCEhNhYz+yV4hCAYj3D/YAzsClHcB6rOQFnqBMB6en0wg5hyPs5nOe4lXEIAxLgcZ73HcUh9HkF51HLfXCIJgiA8ap7CjhFg/AE4+m+KjqGLh8QMJ7qdsAxtPiQiPB0mhw4xiYX9uE79rYacg4NTg7hO+p3M8E5TC0SRHf0WpeAg7RmvITtNA5z4CSNnhDHdg73ks6iKaZxHbtXGYCzaIkpXMf4lvDOwqyIOYLqNLdD4CytMz4nYjrDagecRpPEfZjOfrngNOh0SuIcnmPudvxOA6DdT4fRHKPaBQfaaeUiaE7zi4wjqRbiWI5+sCM7kfZxIY/lfNtJgBPVGlzCT1Cc/usZcSQwbtJ5AcMZnzXBoRq7+n0Jw3n7Vd6p0PfqShC/sc9Px8SpwPk0Gcdv1H/neHCsRn2cTGE34712FBxs6zC9hNzY706T4GQH32Q2edSGdl80OEejHdNIRsBs6t/4weFqZ+pyELGZ7n0lOx14e/Ysg9j8rhEFx3tWTpYUrGZ2dOID52tXapF1rGb/j3lwwqOv/M8klMbePSY+R2S9mBULIkZT/c4Eh2y923+2gNAc7Wg+pwSn23PrAjZjN3d6CjjmyTbEFgRkprXdBSc9+7fJr6O4THXnJOao4FUjtRz2XoZE4T2XwQTCQa9l2NKiBa/Fauz1feCs7YOXK089l9m3ZC0seiyzb/btp4+9lrdvRms/91qqLysCcVjQfuVbKHDeSvtFw049y3gr7bdtXcitZoiXon9bt6RwYlXyVPZ2J0Fw3NZZmd5PeClUe3nit83NTcFDscf7hyGwu/xG0kMx97YlgEZ/fdFLOX81Akf+1c7H67yH0vj3SRTgxSD5EfFOpl80wgDw5duP1vzeyT/v5jiA939e3ox7J2+/FH3ObLjfSj4SvRLreH8cB4DB19OHC55J/e0wBgDQ36vln3sl9ZfDKADA7OBUeh7ySMYHRxwHDn30T/zHGcEbMVtft3zw/+9sp5cKHon25/dh+N7B3/l+lvRE7PbLb8LwvfY/Nz9bEDyR6f4fg+DYzbPj7mdFb+TNn2IKfH/5n3OfxD2Rvb8LxuD77f7LnV9teCD20W+5EPzgZO+79c85D6T/H9V53rmBtbef2IoR72Ow29AF+EHtq1FwI+N50OFhpc/BB+59F9/IiR4HHezXZjx8YO1rvrgS8Dq088NBABz9ZOe9/zdBz6P//t/CAnwg/d32R+thr2Ow/4UtwoeaJ1/a/znlcXRfv5uK8KF25WXzJ8u8t2Huf/veDw5/9rIuP8p6G+bBm34KPrx3vB/7OOZpGHs7/SJc0Nwpz7bWPY23O2oBLnp43Ct85PMyOq/PIuD8u+8qxccB4l3Ys5OjNly48ydtaS7pXdjTs/0eXFzd2UttpQWvgqrne10BLmwevhHXSwHPwhjsnlO4C/a/rSm/jHoX4397H5IvBv3XL58+CnkWrS92s/IlgLa9r/+i6FX0vv5iQYbLPNwuf/qI9yjM3X+049ydAPrv6sEHeY9icLDLx+BSawftwOO0NzE52LdjcLnqzjm3tEm8iOHBoZGAy7UPjyaxj0JehHa22w/zcFdsvzzO/VLxJKb7r484uOTeb9sPF1NexGT/4FyAy57svIx9nuE8B6ru7ZXh0unpF9NPFwOeAzWPt/d4uENO3+11fvGAeA9vvh7OweUP9/5c+DTvORjvvhllRbh8/fjt4WfPFI/B2Pt3c46/PIDm7pcbP414DY1/aaT8cKccvT0Kza0p3oLR2W9pPrjKzrdD/+qCz1Mw2/ttVYYr1fZ2hdx6wkvQ6qdtVYSrrX2txVYKPg/B7JZrQwXumubRH2e/XPB5CebJ6y/jPnIlAP/+p9KDB7yXcPTddtwHV936p+bzjYSHsPvVflAkVwTWP3314NGyh1D55q0mkTsHGOWjvdLzrHdw8nUnIMGVW+UXg8QnGa/AOvuqGw7C1VuD92/8DzdFb2B4+PWsIME11I5fT0tPEt6AefZNLZmAu+nRb/nScoEjXoA1qZ2ecXAtt9+oixsxnxcwG1YrxxJcz+4XrfDKsp93/9TeWeUcrqn1Ys9eWouJ7p8xOaue2nBntX7/TeLeU8EDsLe/3k6G4Jr2Xn/J/bc13v3Td744jQbg2m5/dT7/65zrN97+7TTjuy4AjW/fKf9twfWzjn5bDipwhx3tn2nh+wXe3bM65wczWYLrOzg47yfu5WRXj7ZPDoyQANfYqB109MJmmrh4RvPwzI7BdbZ7+/VhbGNOcvHs3um+GgzAHfflq87mVlZy86bto4OyDNd7/2/NxXslhbh3s/b73Spc99G3X4aXH2Q4106t7b6ZwnW33v2jvfB43se5dNa0d/qiA3fgwfGX7aXH65xb19nbq4aLAlx3+vJNK/vJguDSjV6/qSTy5NoB7b/cG6w/K3BunNH87vW4EIcbONvZOU4+Xwq7cvWdV61Qjr8LwfBw31Lic0mFuG5UHVQ6I4ODmzg5OtT80fm04rrZ016jPdI5uJmt/TM7nJhLSi7bbNhsjCYm3NDJ6e7UH8mVQsRds6ad8/7UIHBnHn/zsnNvYyHqug1P355qEYHcCIDJyz+M8z9eDLpt7ZMXp0ZYJDcEoP3lS7r8UUl21aa19ztNSeZvCoD5+o/d+McrSVeNdg7enIh+Ae7Qeu/8sENW72fctO7p+yaXSsHNpcawfH7KzT3Ii66Z2Tp5N5LzYbjJtt4pnzV8y5tZ3iXrnOy37Gieh5tM7elp9VhPPlwIuGRa7ehoGMwqcNee7u70Y7l81i9wLphtWWqj1WhacNO14287ynwmFZF598syjUGr26xxcPP7+6+0wHwyE5J4l8uyjGmj2+pM4Ra0T7+rcIVsLiaLxN2ilqV2u51Wh8DdvPHnV52ljzdjLtiksv+qEi8EuRsHAI3dL1uhRw8XiOvV2t8+G8cyEtyKdnn3m17wyYNF4m61zo/edqL5IH8bAMDg+Mtj697jNcXdGteP357xuaQEd3Rz0KwMpnZsIRWT3St70qufj0BU4La0xq3KaKxzC8VUwLXS+73m+Uz0KXB7GsN2dTyekVI+E+FcqcFgUjsHIipwi9Jpt9EeqWYym0sorpQ2GLfOp8D7JbjbW+9eHPPFuUI+TNwpa9Lvlk+rnAC3Kq2+2O0kV5ZSYT/nQtm61qqWqy2Jg1uWVl/sNDKLc5m0zLlNVO9Vap1KV+Hh1h29enMiF4vFfERwncxxrd6u1ASRwN3fnp7tn7XM3OZmRnCbeqe10xMjnM+JcPtq3ePdEyNWXF1OuEv92vlZre3LFhJwK5vDg4PTDlmezy1EXSOtUzk7bampTCwCt7M9Oz05qQxy84WlAucW2YPqabXWDqbjGR5cQrXRanSIJPuCqYio+In7YxuqZkyGQ9WYmRbc2u16o2YLoizHYn4xIHMuj6Vruj4ddzVDNy24zXuNZqcviD4xEAyHRUkSObfGNHVdN9XheGoaumHBra61W+2WLvh8UiAaFUXFJ7g1tmnMZuZsPB6Z5ky3wHWcHrx71+ZyudRSUZHcHmPYP60Oq00jGlZ85PYCALt6sHvQFecyiaVcIODmUHXSrrQ7tbYWiygSf6v9/9r2UeVoEE5n4ul8JMD7XBjDMKe9dqfTb3dm/njIL3K32/eeHZYPalwsG0wtpAKi4sJQlarDXrs56DQnXDSiSLz7QE1dV7ut3qQzhEAy7PeHQrLk4znqklDT0Gf6qG8ak+FgIiiRiBQFFlqGOVNbneG0MzLFeMQvSf6gJAg8RxwHcRqU2pZlmNORYRrqeDi2xGA4oER4YCM1TNMat/r96WSkmpw/LEuiKHAuCLUt0zD02WRqE1FRlIAcBHaapmmqg25vNumNdcrH/JIkCjxxP6htm6ah69rApoIsB0JSwAfuZq0xqDUmYigU9EfCftknEHBJbVOf6bNB15qNhxNgLT3vDqtt1fAHA7KkhCVR4Al3a5Bb49Ykt4dl26ZhToa6oU+nUx1YbLRbo257ohrE55ckt8Q0TV1XdWD3oDEd1AaqqQmyIomiQKjrAbZpGbquaRTu0FZQOCCofgAAcMoCnQEqgAdCAj5tNphIJCOioaX0yUiADYllbv/Y6F//0dlv4D+kxJh/zn4U/gz+Pj/tgIgHT/ZP/G2Nj9H/zv9B/k/+74/MH+H/tP9h/uX+a/yv7e+gxk/6n/Tf8n/dfx8++L0A80/N/+n6Gnh359/mv9R/jP1k+fH+r/6Xsg/un7te5B+mn7wf4v9ovrP6Ev+d6BP+T/lP2v9zP8fPdr+wv/w/w3wAfyP+Yf+79/v//8antHf371B/6F/6////3vbH/fT///Ld/Vf+J+53/6+JX+7f///k///u7+lP8p/pn+d/vX7X/qd88Phv5H/cP6R/c/+n/ZP/L8B/j/2n+L/Mb+u/8Lnb+WeDH8Y+yv77+y+1L+b78/m59E+wR+Qf0z9avcZe++yfsv2O9gX8A+vfsn6GHvP/t/z3qr+l/5v/1+4D/LP7H+sPI7fcP+H7Bn9B/4n/c/zf5d/Tb/g//X/F/+v9rvhL9d/+z/WfA1/I/6l/1P7x/kPe49df7ef/D3Dv1i/535///8iBtNb5KxV1P3ehFM2S5PwudPNJ3/3LgokWiTbWCljk8QaTxBpPEF2dB8KeInkgFH7w/k5UJ6Ms2etweQzeqO/84tRcOrrFFnQfE2XIT5N7ED//d5vakoOUh9L8TqoGWESerHwfR+ZshGbZEAS4ROMvUJZNN8HUs92Lh1D//QIrpmag8LoOfd5vakFtrAD4frzIzb+zxdUuMgdeilc30nFHTFuNq//+CbT2UwYJ2jWLTexA//3eb2k7Ogw8J39SzoD9glY4ElilaDTbWyGdjCv7L/98rK0GnCjknd3d3d3dIiQHnerJpmS7zpiBkHXZHZjYZlp0UWr0kmsJPGHl4lTv5bYdLgpQP+00ErP7vSSawksUrQacKOPQT5ESjwD7l1IM6j5/6T/5JrCSxStBpwo5J0RQmv6lgV/758rj/03krTontXnpxaPymsUUiY4MvZcrlcrlcrlcrlcrlcrlcrlYqOzyXI2GPwnXr66t4EdjsdjsdjsdjsdjsdjsdjsdjsEBsyxL05orEd3Qy6ud7vd7vd7vd7vd7vaCJbxaQRNnT02T4Q8q1+xAyMxrKxRWq7/JuNxuNxuNxuNxuNxuNxuNxuNxdquc3kqpUF4GXCQ2nRRaNG4hhqOKE6FhZ9fEJ//Rwj9jcO/IpxKJRKJRKJRKJRKJRKJRKJRxdJ/BUGNQQgm9qmSQIAQPp5/AQ7NhpIRl98klEolEolEolEolE/n8/n8/n8Zn/xBPQrf8mzvkUIhS/64Yp/6smtvIOw2Gw2Gw2Gw2Gw2CpsNhsNhsNZ2E0F3NqxQltcjDv54uj/6t4wQyZDi8Xi8Xi8Xi8Xi8Xi8Xi8Xi8XiFQJKfLxmYnrFt7nJzW+SsTOySl5Fj42zMu238Y8q2cKhwZYg04UfFPpPsyAMPQvS+UnifUG01vkrTootXpJHH8rm/04w2GGaDRnFV5qDTh3shHrQacGecJP1BIFruYwV3uOiwW9pWjByVp0UWrJSEAFDVy3gim06KKV0AGcHPHcTH/adYT/nqNxuNxuNxuNxuLtSHz+fzhLHWJI0rGoGnficLjHMeJSFtDtKqFQqFQqFQqFQqFQnmUNualWNWCc6gmnmJuCXQ+SEU8qhUKhUKhUKhUKhPMojGYzGYqX7EE7esko3TlP46Mw1zTVfAGYzGYzGYzGYzGYzGYqXHWLE/7dsFjYyL9IGnCgmcQrpEDX++hDb3EJp4/4VGpneK2E7+HZMplMplMplMnY7JlMpgDRAhV2OLWDIRPZoZV7EwmeuV5ngdP5s4NKk+JTXF5re88l03ceM6ZtnCcw4Xsb8XWMwnEMwYmOaaghp0bK8jGhMWYgJkHQ+jdXQp8NHSXpI//ZNepviZz9SLvbvKt8N3xkwxZrC8807VISBPRsm/vwFN//F5qrZWmUymUymUymUymUymSp/aXVsWHY4hk7jrU3aJK/DJa87u6OK/T+hDmScPUOhe2THjo8pdCPKWKVoNOFHHPnb7R+GzaL5mN86+sbbWOBvlUdIoSMSi3JzVylaSU0i0a4gYapZlGSf6pe3Ey+wTCf7Zru83m9gLzu7u5rjv4nkwfgI+KN1LqxHDKnmiIiktbZIsUgsAUODLEYPcbNICu/asRr3hTY11rOFHHlQ0w0HPEhgc4P9lOI7rdZZ5J3d3d3d3cx+qNOEUUnIuklK2/cSSD/YTX0wOg2mt8ladFFoYAXnEz+dtbHQ1q9miuVqsD83vJDGG01vkrTondW8aeeCpn46Mg4Vj8Vdy21lPpwplWElilaDThSLJ63hPWB3TvuiPvixoe1NbFFo7vqIeKObATBF+cBw92Ii4LdV6STWEligCp0QweDd6iL4B1tCwWKdFCTMNyN16vSSawksUrBf08XYUjcawGu3jHv2jDtLcrR2qrFRStBpwo5Jzo4XUerUNgdPb50tOOvL8Q/gIEx10sUrQacKOSNs4SFcYT69LevhWDG3yVshCbJsGnB1MQXJ5lBVA+AgVHF3QEnRwRCMNprfJWnRRQricd/mOe9+mLewu+UiEKbkmxiAvO7u7u7u6HVcj6saH+f37/03eWzQ2u4viXn57KqP17zixStBpwcIUuzMX+9MOJb0wxKLviHYQyY5W9JDlK0GnCjkndzJdu506JY2s9uszSIY4K+SdHXG1K8xPRa8/yAI1zE6bwcG23yUaXFAe1JQaycNb+upsPDISIi5UcI/KPZlF8CqUA+BrCQMCS/n84WWqzhRqm5pSHen68n4FDHp7hb0emqZbzik0BLvOLFK0Gm2bQymk1+tFks2Rm9RVZhY9Z7mENvLi93cS0ZseVQnmZ/ZQacGeWJXRfdElczEfdq/hQyeqTzRed0ZYyQYGkJfNBAGBfFj4Q6+poINiTcHbwZ32QvZjMZkrlcrlcrZjK59hqlC97+9+4SiU2LPgFBq8Ck7mLbtlLaQqvVOZzL+kWbexTcld4Unm66Qq7yb8xNIhxzYfv0ZJVDO+4bny9loW3ybl5IGbTSG7cL/ja6v+T6fTSEND92LFnk1xm3Gx8PTBmtoE49YTubZmVf+5QsbBroE8UyY8J4nVuYxDzucNNQxQwZRaRhpuILjL3TxhWg0iKs7gg1mKPxM7SW9KvXRI5KvriOkizuVtBpwo5I6RBC12tuvXpEsMPCcPxDaPgp/J+vzQBIi5yu8FLVFoyrW3L+0CDEuvlmLJjtQDWA3Sa3x2rynVhBE86HYjKl3UEKOSc7E6GwNlFXV5rV/5C5k6XvGkZpspxuXcTtXjvmR5QarHHVorHynj11DXM64Cf90GO0tFFo4I74Q/K3kym1Iz/YLAzOSgtRmLxHPwo2mt8ladCS41nTyOWEHCeahvs5udnBiGOAPxG3rDLRMX510sHs6yupvaXIN6PTm/7UNlaDTaMtZPt3jb0HNbCbTFFq8c/Whf05D5VRLmQf0cH+nQwpbQZ08I486hK0Jw5gK046CshiOpNhw4aURl9ETr6KLR3fRtzifoQ5A8YO3q9ro9ZhA2D46hOiPClaDThRtQtFsVg1MOhE/+aJ9KfSxPITa7OtAu5kQFdf3JWe7e0Ozr1BjYPjd2GT6/ctzW+SYtkxnl20rBidtxlh40k1hHrre2uwbzIuaWWYx1JnWv5cLjStsZkMdyf3VNE/omyjVE9AXo/2IeeWSUsRFSDHoIEtWnvL2Lv/taUe6OL6SbgWrL6i0C24xsE2WtBpwo5I6QeINEXb4OIpw96B4LJWFFn/Ov5wco7zM2mSYel8joWO2jrkqsjXz1Ue70F6uJW9LFKI1m5HMPtzjbT387T1aWKVnx1mKw/Pf/vnlOinUupnfHv5JixiO0YgF4x4aZBZYnx12UXFYuBmLwbE8vQ02Q1vjwGgRIKejqJwQvx8gOVamv3/JMZVP/5254x3d3d3dzpwQtpbbJqr2BLpfWIMoGSwYfn8AKcEj6CWuk63pH2Et0itubw8piQNV+5aHrQaOBJ24vXsrDMDvBvRyTu5up20Mz8Xo7YdrTEa6MFL5zYqwVvT9OxFAFTbzk272stJSn53GeR3Ht7Uzi0JKgFA81vjyHRUI8j1//02TBfHsoEqz0Z0purip3lEClaDThRx/OV7Yaelm25YzLR4G5Xb1Nb0LtIwxvsjZIx+QcnnrCcyVpU8iVSD4tmrw5q1G7I9pWg0ZCvr5vgFgz3iWGmYx3dzJW53/BhaQnTv6dk5viC9jjqQEt1ttVpOG6PFMROhSrFCvFqJD9ApKH2v9ixSi8MJyAYg94DOhspgUJNinr53c6IRYI3VBtNb5K048zj2h1Nt9ASZUWvkjvzaSBGI9Z6GyiNTojLWfbjUIHc4KzzJMSrS8/BB2CA1xu7u6HUJaQXOP72SBB1TA0c1htNb45APdEAWZLakWFvKmadLoV0ckY/CezwFscPDELtuidMmpXsCXTRHB0uVrCYHXlbu7o4fVAWvTXaV9iyP/9RAZyZ3qxcu2hdFp0UWr0kj9vIu2Xn6XWbk6dN1vYBj9K0kqOpAUtoLgPElB5CihXkpZmTygQ9eantVM8gqPTWElKBnzvRMYlobcDJEmStOhQa3QesnJ0kAT2KNkzYqIJPjvCD7ErDXGxMF9u/L1m00spM4cJjAvoOfIjT7ON6SSP5/1Eq7IJgMUP7cpOcjgI4sK4oPUYLOdarTootXo6pu86wOL9XbOndg2ehC2HtiPfFdWXIVWFqyVfTEM6y1Nb0J2sOA2m23ZQxmQYYdnWElgznXD1IsKJ6nQhV06KLQLP7cZ/pin2IsE2bPgZpYT4cYWi10/fHHVjksoZhH1WdUyb/OkEBIhHcI1C8FrfJPC3D5RGQaKZYzE05CbQvabLrWUTh7SK9zhRyTu7nSDrNb8abJn+Atc14oFdDjyzzmJNMySm8bI3aq8KEW97PgEEb08H0hvI3SvCl7dCuTuh1XJMERwGdy6a9JkAxS5aWKVnvIMo4iy7to4TUENOpdXw7ME2J44La+n0aZ9b/qFHX3J/nbfak9n20a36vKdHlbu7olE/7uXuyfdfBI0qT4JwkXkq+byAsyFeVhRyTu7udXZN2GjIn995Wy5gQV/Q8WD6SSaZt1nlWBQRmFKSF8b1bc7PPwNQvX3xTTglOH4X99Nb5JrwJ1nS+KUAqSOOgbTW9IfJ5gA+nv4BxjjLO1VuVcxaA/jqaBEfovSGO7wZVxMI5I7a7HyS7fOOp+QeqY9R1s2A0251wsZR6BxWTIxN0jMkBwC+NO7iXYMMmRw6pxdVqtVqtVqtMUiDbJWoenWJlCpqXciPQ8EuR742/Vy42GVrndzf8nGbZlGql4h0HwlQUVGmvCLzHabzr7JF8jg1qoepti5db5Jie/3ebvDjiXpkJn9b5KvrHFEmonOnBF6XaddubVZRsk5uuPgPzojbZ8cBSvppwZ8Xv17pQOJX58wHxG9YCvkkXXkqy9s6j6C6aIddETSUGKLV6STWElg/aMKWYe/ci3lbgGezrb0XORJBy0GnCjoU2moPJFE6AHO2cPYBCl9Ct0LXkCWnG00zhR9JFjC+rQpcYzMqX0otXjNom2GDmMoOAbA6Lm5Gr1LAlq9JJrCSxPH0Nucl36tayodhJnCUtFFo2+ryQvI3b1ED2tgT88e7u7u7u7u7udYe4OnRPQ4oi7x6Z9QxSFGk3BN3ds4Uck7u7u7nSH2VH3MMG0I18KDL8ANAXnc5+2iVWxRQl81L9CDThP2KR2VZDyNQhewNLlYn9TmRKDThRyTu7udYnt03Vp2RBo6o/VjmDVedUpYoH9oETs+WGjv12+6hbnT13o4o5J3d3d3d3Mdygy0olr6/HZIkZD+LScpBwLaqMusJLFK0GnCfY76f38tbEQc/I3Xc7HhrCSwZmFSmmotAyojlgvO7uZJw7L+5G1Xxo0OBBZLwkRQF53d3d3d3OIGvUSnfSWVd7AiuNVdDi/+Jet8eRqTzmAnSEJ5AoAUGLUjGd20yStOii1ekfPZLSnjZEvv41FPxnd8z6R2QqHnd3d3d3d3MWeyNUQn9p0QTTtQx+BmoGMRmslGmrqUTLRXivJPwxt5Vab03rQWozFllm4zPVjWnanDcz1b1hJYpWg02xCZxcOKHizuPlWII0UFAMBZXKOParXhROkvFDdj/fkEMFAHWC2Yu7u7u7u7oXHUDXvoaFnDNImqRdUnJF4y5pzM4d/ab8bXi3yVp0UWjJoTM/6i2a5dcJp+fT33F5Bl7d/yjkkZLDCHj18G+NphMdPtCk42kgN9JBb3Rifw4ODUdGUWd7PEqUGnCjknc3b7am+oS1T2jhZd8SldH9h9xd+8163yTuht5is8d+GgEhPMaLWPydmVx+jPWw+BR5a9LSRYwtHlKVxD4FHkm+B4PBw2LoQr///geTA2GHyWFwyNfN4tPJNeiRhu7B6gpzOZzOZzOZzOZzOZrcuoUZ+zUgnP2pOx7vV+PbMi7rRavSSOWvQYSPlHoaTmaLBcUqKHEcV6R6w6sgEj1KXF6ymXgt7aIafNKqBQKBQKBQKBQKBQKBPSJR14aP1CR+nB029AfTclmjFnCjkkUFwfLa6Vlr2SpOo+r0kmsJ5ClZ7w4YpDADLg+sW93dhStBpwo5J3d3dzImLdPklI3VDLH1OhmyUWr0kmsKSCNprWF0kR3G/8NePW6qKqac7StOii1ekk1cRedLSyfqWr9WpKxesJKfco+dJEqx5q3djZmmKpBJrCSxStBpwn6km0JFJljZWOcBgwdwlPzfehStBpwo5J3d3dCziU50lxhpT9WFpovrymas9xLV6STWElilEDgvf/3V+nciLTntGagzADS5acKOSd3d3d3TgmfkZcQn+DU8xrkZ/f3Oqo0lilFJ3rUpH//eYrL2aJkP7ZyZs7nc7nc7nc7nc7nc7nc7nc7ncw0P+dpPEeKQQD+3QugI7sV32yVe+HVQ5JKJRKJRKJRKJRKJRKJRKI5RnmuUc5a0ymjG2mQbDrU2N0CgUCgUCgUCgUCgUCgUCgUCgT0erU6zn5SADFvy1RTwpAGJSZ3O53O53O53O53O53O53O53O53MOqg0DvXNzFPa0/rhLV6STVyggCVakDsAKrCladFFq9JJrCSxSseCncChXdZ32K+vhl+Uck7u7u8Mm01vknbmQjYIQot5ZuR/ZpWnRRavSSdcSWKeJeXeIWViNuhIgsXiu1Ck7u7u7u7u7u7u745Gt7tBu+oftXpJNYSDjZAU/gM8W0PEgMhJagzXH0kmsJLFK0GnBwoU5Nl/5siXQHKssLidqoePrRCtsUrQacKOSd3dOxxyqiLwQJL4of3I0fuFHD8cIgYYATlLypE06KLV6STWElhjCjz9D7+3CuetOeYh6s2668r3VZ/ZPpzxzOmCCSxStBpwo5J07Igo3mcEBQun9x0yjknd3d0wG3SpnbkE0NDd4uWsWm9iB//u83tJhNuX+5AxNXa87iMYyLEQz0wHllHScf/axab2IH/+ALY6RZ04/C63/QrAS9gtfDOIgN7HTEv/TStPz8++F7oBV2bZuB8fVPMppKn3wvdAKuzbNwPj6p5lNJU++DhQopjgnKmLyGq0k1i8KKuJjXeaY2YvWUHsScf/axU5zVn7svFyMDkWKVoNNkAAP7aRJcUYee6jlFdJTWiL73OZqxHONbXIh3rOPFQ1Iwe+wSj9K7SyRcbDykmDov3XHdYjIcnnqiPCNrXQVE+tiDND+7EG1aZk9rhDDbM571Ow3e8iS/0tyRAkTSSnGmJ2/QYrEvQGtkHSIZNyZPa1NeiqPxhZt4u4KancBv2L52jOv87vo/dSTFltgC8AwziPz0K8ieRBSGAb6RF/0pYRFqmCLCUALLrNIOZvshH/iHXtGJzZp5aiKSe6O6bFif8izsBUZKjqILH1LNfP6iZBHMbL3mKP/XA6mAzf8RSE1Db0NroIKiTORu5okPsS770eYKw/OLK2LN+FPSp2YkALfbkByas8Meejpl364glZ00jOCXC7wM7p5RNaPXxC3QphWybaGHdz+QsTdtjTKBmxVdHCD3L0zjFHkiszK8pv3XoP7ZoKeIJBaN8B+TAuYN/2SGcIiWIYzH/8BX/T4xn52kpz98ScycdgUUrZ4t8irisk6xpMB6Ee00TnzO5Zb0VyDDbbgwOIsfzJ6I04V/IxH4IOQDwNNVOq/F746A9AIskSqAmRMkDWZA/3OxH/Is9+mn+I2BS8OuFaW75v3+4leEVer73/NQvw5lnj/Tu9pOULOGFvsR80cB7WLhiMJJTjl4cfME6YCK/O2nvXpJV4zztti3E5IsXjlGr575ppv9P2Ydcb3KOl7sHZ7y4h5uizgWI0ps1Q+exVpPaRHjI/Mfa5ZQCP/XO0k4FzKh39BR0le9CJZaj/K7W93tKncYAzggnI+QT/rrJJpo9xUQDFbcKEGNX729M1U9qAP8j8ouLg+iPLBE2/aiIkUDjjDpQFVXUSDYw/BBIicRhg3legTuyRHCv44AqYAei0KfnXTevGa+R1ymB9mnHowQwJJx5Mzy/2CeETg9v6HR63ChIZf9VuTPAVGRQlKGVG4rW4zekp6GvDUxOeBGMJQcIeEAM3JPJoDZqGDvGmW1dJsVJqFHDEFuu0ZV1DoGiYk7Nf/W4hoGnI6uatDwDrQHw2pl1aHJTwEeEAVqh9BglfxpUQG+G9LthXQDGc3Am1dcf6DMbKs+I8fLXEY1PdSCywrKatkyErJt58g8OXTy+//4C83T8D4nq0rZMAjMi3GV7EIpM7Wo+3dztsYAHZIkVZ4TZKgVJgC2FfxjjRDwwkwGaEPo2uOuUuv00B0+Z6oVW7KLVh1yl2H7QvE1b1KtA2d1WY2NJO7cs6RqxKjacEgnxr77mxhivNWYXNQt5KwT80znEaMt95NhJfcxAKdG8xsSu8gcMB0hX482mScdohF7pYxL8UCNM7bsZ5xtQV2EQKRINCrLw3Rhw7ZAfenETHWFIO6k14HN9fciZVtCsbcILe+xcHqMIiziC80Fmlt1bC3NZ2kazWAAAEP4Qu5IiOc1Q24p7nxBiNGdw2JUvkXM1xei+To966Hi6Mjq+qqrdfEFGT1/5qiiSiha9Kvo1T6Sy0jTb02CwCOAcEKbav+6gNeVPnQNfUvDmdNVMT2NcYbWbUFrGrc0s4fZp6ZvO+MjcUUQkTui39RDacVkuVKAzAAAAqO2QBUcOgEQmKvCzj3Yu2L1bWN8MzzrG5n4A7KS1lPwRh1Dos65daqpb1m+lr1iP3A8k/0hq31DwlZG+or4F3A5g7qm2OUBrgcwV0Y6JJiCCr0NDf/+mzAJPkFEtOTjdZZa7nyuXvaWB3OpUiiqvYXnDTqXaX89svWuOnPvgAABnpu91zIDKctCbW7jZ+5Myc4LRu+P3IBdoaCxYHr1WZ1z29xyK+BvWnC5W0DCyzBKamaGDB5Vr318eAkh7zJ0f9BMRqcN7ZRJhh08RooKG4otWoGld12+LsgNIJnM+cWt/EDD2729Wa0SNLxaogQ0GN3oAAABvXxZ3+GfHPXbUYZYX5euqEDwD9nzXHPuvk7ziRkGYAGqKW3dnSxyKuc+tZwgsAif8TSYAACH6bxwDiAxrSPM2pa4nJv3rqEFqw3t7pp6EAq4g+qMMLptE4u+fhvfM0n4CjEv9zh0tX8YPki/XFInK1KcL5426iCu/PCJW5cIO7hgdaADz6aN7g/JD+YK1FASaHNvQe7XcZ7Sk5BFRf9mbYW4qkzJiaEb7TkAHjTV0wn3P91qz+vyt5vyyJ1k7NzqD8YBrq+S2hsBe3OoPxgGur5LaGwF7M7LemvN6HBCiZeYuP6Q9x+BTo5sxcwx5hhXxD31+eyi78CORHoDut40iHWYARXk8ZhFsyd2gOm6j5GbiozWkRB9u4umnT6aRXE57U9zSdR+UxSTzoPSgFy34GCPo1ubbuNNkxOqvCTAtl32uJ6AJkw2nKVFiqNCe9jZ5xl2SXcqq9R7SRsdRiFwF1vEM9ZjGunFgHgj54hWr2BlpR5cPpaOrIxh8k6tY1bmlm/ygFkAMGJGq9H5fDyPsxU7BIwt8dm7/RCLSG9ZiEC3bHrNw0Y5HtbLX9ebcYlYgw2ZkrXwSIae/m282ymXcq1BxZlYo1ygEKK3CV3V9vm9fSbqMgYU+DbKCTMtWGTDUMPdgu8FyUYN87Mh37IpB8+mQ3iGjxI0/rywTNdOO9whttPC4xMv+MDzPprOQuWoqnIo1z5j1vJ9BZHpa9EvJvgop5oxyrmwKQRbUIfrO2qjNgUeBTvPmqh/WKPS2Z4GWpnlZ13eJOI7Ao9ZNLOu8U651tl7+BjIs67xTLD2Xv4VSqfuwqI2q3xBeztcf84kXwT+ibJAg5fqC/BdqUoxFyY+EzeHL9uEbGAcg/B9zkJ+MJUpVGDcnoZhGaZKbdLVsvurTC8arJo6PcIMyZ5+WsNRVLeJrtubGvUDUiQGmMfWg/CPVpg/yxz+RJ270PlW7gPiLXlZ6/5WoGaoSQr5SZc813JKX6Mb2mLXeRcFBs601HkvAYZplsY3lOYro3znnfmZ3+BSdzDqdhMWOA59C6H/nEL+t05bJ4upj0vYWSaGGPS11YL0F0eVOAAAAJBVSTewgBbPgRaWw1gmFJCdM/MbScub6xPrxNW5YqIATB6zRfVYMOfoC1OxLEpc2rQNagSNztD9WICZU0/U7+XX12mg03O+BSw5Q7pxwBFg3g3ZDXyNFpNTUe64ta17m4PZ8M6hY4R8itPAamFBTHee/euf6pKtUrSW05lQTcdCq7TfQ5EWkzebLYaWpIlBwoVzotBoVlHwQdC1AHPqLXJYah972WefreMhk1dQnxL8Ch5I99EWkNfsvXW/5F46XZkifq+s7A9OQkifqfPEz+Gi7bYCb4REDonzUYztACfzpvbtzh+QP6UXkyS3iK3w7QMHW9cK8iRIeDtBEfGXRnanSjKI71CbZGaWGIZ2wjFLOpw9CVyEXqS46jttNautnnZYtMjUfzgBgsvV5LvRm8ZdLjzfQEGhn68FhrbWOy7MELGOkiIkdDQZbZnGJZS3btfVEgJI6R7d0fFN5LXHhT9dv3mjF2yQXltPbM1ymGicFlQ9IvZHa3JJr17S7U7MvsS1dZHNWrL28xl3uDKqUOlLKUO5gXWBbcH8UoUW08ftDkP0gYSjwxtd5qhfnpvfdy6/Uom+kqEFBoEdzcVCCg0CO5uJrZU5DC+EEdAQjG+VV2ZDIrtTQbIIMz0ptvxdRUH7hnL2uDE9umjnrU8+nIlT6ksyK4Gq8Yb+oLEpesXqZFaoIlwTiaDLSLsYOvODMcn+lyLGq3DNtKn8WRG+nD05QK6CjwSuMkXJNSATPrIAvZjgVeTVfCiUUPPPvmbrPiyDxlWYoTdYxobR8kQVtEJkhvcFeZ3u/8AG+U2Ksrzvpylo7zmG5vfiI4p7u0OsIhzhwJu4/4tam+uy1SEM8U5Y2+TvGUNO2a9gAAAAAAjMyD1VigbMscR4rjjo0zSso2jagczrV51YUP8AyYH/MM3JUuxAp7NlI4YUw0SqPMFIgyIfiunWb0E9zrUzMwtHLNIbdHV5RSytBCwL9CpV/qPI3gs2x7C9PW1K8RCAABbcr7rwDCy0FBhQSj7VLbhgdWzykq347WyY57aQzbbRzZQSbRr0QKOIikd/IMv3UMPixX0KYRLyfKVSbpq+TvL5Cdtelmbuj6H6QHRtU7d5Bx3NNXxYYAAAAAAACulyLwsncIoz7DUYwZYBw0XVeSGcZO4SURGBbcC5U9xb9LmrisNjXSxdicSPciO0RdI7P0jntmsAghRSqFQx3bYO/FywuAYXXTYMIrriKKxCqdYKXpyXOoWWAAAACKvdMDRrdMM40oVR3CkN8z8WDxG2AH5vL2JzCI5wxFdResx5P971EgpDEo0S4bMdAnRXJZk39qnRt5WZcNv2d/NnT98vrperQCjK1K1zf+kfmkyGDJ69c1Z9QdV89iuiwWPmrB0P+5O2fDPn5foqIjaLHiJIU6m3ULEPFXMIpnRvZBCUNcVTzLryExXVttRX3mum1tavRQ3FVSS+4eYlEqk+uiA04QD9apRys8jgcux7lM+b4iNHRGiwpHRzim6SwJA7nCyL9dsxhxd3zFYz5tMSU7b6b5yB99w5TNlA6cRLl5EPqaND8BrYTYiucj5EaqniY0La5/PdDO2Ngr8PV06IqW0X8kFOTk5OTk5OTk3giz9Vb2MTrB4wtHYx3GXlsNBzI/6f0mkRFnyApPIxhD/CQgtGd2EoXiSJ6+wPcQNHqMmFJ5Zk/bJjHFaAbMix//w8gQNKoVvEyMk8NYBoWDa+26WP1rTRLar4fiWGxZvITX+QCY/FyS0DkziYJgwzFTWP7Vk17ijyMLU7qH+QQuNNhIggnfvX958znHx06w8YjfdOkA5a0VT8+coXu46TNM9oAmtX4vJxKMAWkrwsVOCeEWdJcL1VbAX0Lnh5MWm7eO2bmxSo2LN4/iMegLJNiKAG+HsLe2Zeivp3CY2WSJFalyBs1xUoctpUtPmp5ms2IwHvySZgVSxGYcQ4s2Eb5uMRo+/dHEV52JJ5Rj+BCifyHiVwMXUWkLIr1wwYRHtSWe946fXX63qDgjBkFGVAIXv/ubBYdUdJR6Oc18LPReUZE6MPrAQ7/E+RQOONQZwXNHAr2Zyxtd6ESqhpm+A/pSUy/U8F/CGiH91pboc7t7oDl8iFaTdkvepxdOAD7kX+NvMrEsS8HOJzHF/0rRxdrPdS7nWk/aAuiBxCqwqFSYIKbUUId3t5oxsHziScZtL2IoGDY/mlahtAK+IdqJdaOOjTrF7jw8nckpCvOAX2ikgH8QOlF4lFaapE3n377vb3i6bHgv7yijDp/ZL/C9fRxHd3B2nQWQczMngaWpcv0W2upb6/xBdNdoZWBUPe7cDVTA0djFEFLjbcAfZRcfHERbIzRZ7XG1FAwQmcOj1M0eKptJIp5lXR0gwnDg7tz1PStnXrzTUB9gxjimMlcvbaNbl7kQhq/Bdw3wRy/mLWpmnYvbk3wMVIT9UAeVVvMV58FOcJOcWs8dJQgdZ6nYpkeBiwENGyNGP+B00Cp277bNYjN30uHVRvSt3d+dELSupt5lYlitxooS3HeZ6/xSGcXF7CfS2N2HtRxjZGS5lkpQfgIa129gUdZCg3fYy6ErlrgRSk2ZXA1JsPR3n2XAt8J1w2oBD/vHZlbcgTDYucTJ40bI6ax/3fOh0+XoU7420xrJKj6GKVXIcCk4ztNP+OhXYoWLi1qnO0sXye1xVJr9ZK1eZvekzXND0VmpCzHPiSZ16jwjTxR9SpqzK7o7gs7o/Jl3Ag1gOnrN/2Vf3cHgYqJz7exrOnDBUF44wSB8XqUHhIGe5SNOkc+CVycI+S3UDPby9CRBQFuFsVQy8iPGGDviLHNXaNnzUT0Cm0Lk3ymFDPhoSXeijUQ6Pu2jzqsut+rxoztMNxZDWLjZzI4ka8zqV8+3L+p6ro5Dc3Oz/rz8/68/P6OtQAB9H20A1rNd/OFbBAEn4WL3Zi0zgcXYdx9MVnBC6qqEXkUZ0Es9E0iSq7QYNOCUpHqOb21XGJhdJRJxtgbHF7jVoI240Z6uJ7IaDVP2tX/E2QNqozj/DQWiM4g2y+3hGUCgtNKm9uG2ub82o1Vp7qj0ON5RmZB0R72VFfvUBKsa5HX4l7e0OX5G/gO1InBL98j+2OMS7qYYKvCGjM3Wisjej+fOrJBJsGL4JDMq+B42iEEmzS32imPuNXi6M+AHdtMHhBD0BMAawY5doWcd9L29/qGz7BrUJsf4v3Xf8UUMCeIf7UgqQ7OhqJ/4aMFPFKROhqJ/4aMFPFKROhqE+TaSp4srXnQE5xLk5bOK8B4ieOjA8Y9JgZZfpk5KDFt/XEdZBN1YSohhc4nVHjcnWeYbT/8Svr2vI4eeQge8IBlxk40sWqPvyErQIUBZ2DJjbZRnla0AGbJcVtoeIanzCwa6DhOGZjZ13+Uduz81M4AbEHaGZXACDVYWVhQvqkleVvthcIiVq8H9cGcblodYNkX/8122N4jtDffktUAF2FBrvyWaEUEXzQDiIbM+cf386YMpy5j9KONMZMFMwnSB9cf3hWuo+AjwvDPyE+pQa/fMQSXChSprL410KIR2n+Io0JPn5mA1PiM1OThYwdwdAg0YeXjMzM7htXQEw9bpFAAAAmlFAHkZ1KasCfsrMR973u974SYVmK1fDDQ9jW3yWCbxHswXj3wYAnLKdI6vSjJpUZZG2gVWS82l2b3KUQ9JQIIm53GW344OWbPEt7ZDYN26uMAXyPwpOuFADWwedjAuG8sloaYuwYtFRvOlxUMPHuQ9BCOhfHNBk7yrXfL8hjXDhURTL8Zsd5IkpBMJhc2gDfkBJXsx4J7JXsv9nFUDpicTTpONkAfcDTdw3wGkRO9cimYNBUDKYnJXODekcTPAIQK0enT0FqpBdQPiPTVddmzVLMcX7l7qtxFi9figX8OEflk4Ogi+sIIeTV1fJtIzE96wrUq/J3c0DUiASZA8pm/GaFzETO96qY+g0Timp6KyWsft/YzaHt3bOVyTYfDQVW5RKTk1qYDhhy0Z25FeClxcZZNCDdAlSPqEQ6tnag+eRcpOetVEEclkchjAAI3Gmzdajp4Fk2qzWeCVpfKe1vbTDOtWU+A+hYGoX9+DIXAgdahAzndB2C524dNiJIazzn8M9lRPkXyXWfhjYovppORlXCUtnf2h00Zxpm5tBNIo1Lc5X4BU8mnGUNGZQ99oB9i2ZQClgcYnmWeVjAqVG5ivkvGebb0jbS3A6g8BlURybF6gxkdc+JCHvhKxgKWtXVd9zLYfNnT9qs8MIKAAAAAC/a/kdE3xTdFEbmMhqcycpQNyL1CZtItCiH1/i/FOmFrd2WHPlqyKrC4ThqAh4dOdpJAmElunCtxz1++yNP2eKYQgKFyd2HLbDxfC/uDWSnp/C5SXxksJnuFo1glpdF+/6i1IUO+GYmHULyvslDaeY3qoA3Do/yHvg68cetkRFsh8PRp49Xb3+SSb2cqtnhjsBb0cK6jVg8/A6dWvvK/EAgn02DULzKHMD/t3dwHwddreKcy4RUvE7MEFsB7rynvwCM/V9eVqgIujE9IAoe4DKRrSJPSzccwURFszK19TUAme8ehfTnz9REhP/LOkr+gLCkcuzmTgX1CZN2Nd2XnTFS1yaCJrc+v8ApanuJfRImd28zzlL+jN3zI3xX1OIL8CDdwlqKVA9CF58NBBCBWzH1SzUpwe9ci2gQ9aFNRDECERMewILPQ9bMU9PEswElge8sI9ciRt/cdY0+sHWYQX5W/18KPMVwlFBUQAVoJnq4nshoNTArZ2sAAFwQ8U0LHnM5xtyZuLJ3KDbkUyoz1/1QKqBUA3r9qG732vA2vRVum94KKOR7JJAGZt7tavkMqbQpUxXC8q0ZDHhkNeV4SUdU1NcTFGOy25ziBSIQl6WlUqdWwfAeIE/3twSxLnB/QhMcjwQP3dnHVbOEBtzxxzfmmHtubgu8xs8ytLRQo7PoYAEr3csDY3Pq6UypKssnzQoYn1Qk+ox4q4W+2AVeOOu7LW52WpmBhVfoKrwWHOBe/wXYzGIfVZ5A2LDtIfSeguaQhwLDMtFup1PxrDrEisEw3dLQKI8dFm3823Qad/uP5C1B2vCVH04WDHm0d/+Ssn5l4e1eMc+uNzSVHQhKrUDAsKojOk69Pf4dfhzmoQnFTKzzx1/DIC1SRUTaaRaJ5kHnkAAIPwup4v33W1PYEgCF8drlIUccJFAFqRLgIRxlKdvBvMg8eIFqdKEHgIiNYsaUPKIntBjavY1t9tZB5pozCUYvos5BgYx5lSpOOGJXNPpacO3egP0TKKmrY9W7YHYK2gFyenIo4oYd9TsOhNQGEcsHw+IH9k4qOYCbe/RQdrAIIeXVAby4rXoJzXrWwK7Mkv8RQE9qw+96Fapdh68M6doBxISZ0okgNZHfdhEstfS8eRq8eDtS4J87ozsPPQc15lC6u9vm87FwGGIbQYejnnHoQXMffXxcWMBTeansJEK5PcIQgAcKMxIoYQyxEyjToyKZJU9aMHVJskopGC4IdqqG0STdAcuzLB0yFXbQucltGCD2zy3b6KvVLZvsaGHUfazDfUPIDEX2wodf74GxAr8LZov+CQJeqVf2zVoJBram58hs7hnPN0rb/LihZh6zDKu1znWS6lFSa/26fWO7MHWF0xJkeJFthAzz0YVNzzmejMLAAFsZfEeOkkEM50vO7kAJP5dXF5YkzGgxi8cMFVFxXRD5ysPSu8qtQBUfkr5u4/gL6y0Y83Y+TIwmF7cH2qYcuZ8iOCvxN6gZXArDgH76coBL5eWACKWfVX9AVuU5H3UBwY5SBw2AcqGcQc56yq2C5JAHS3dJnkps8CERvhL9j5tAuXKOIrnrW6fb/EEgRcnqwAOZbJlQGB7gxLQk8ZXb3nEZH9phl88n+ZA2V3uUjSrefvw0ECftayx2ibDNjBH8b5TcDHkhuAeZLUmnkl3e3RNIHAVW1n+jIWTUe3ulO/MBLJOsFSpu+h5Y4f9jJa4YhcCUS1bhtrnAO8iiRcESsYI2DMJ/k6zVheaqel9DcjLwGVnqLdyMucyyaHPQ54nDoAMUA/uwDCqW2zaKyJV/zaIuSpTRObJwccLbwWzFPP1DDGpUIoJBC6NcSlVRLBuyR6Th1PtCE6OiFGzY3AFNsH4VIM4tnSeQ1BTg5RlKqPm/+OqnI5U3ArwoVgZBPa7YqRIFgaimEVPBJnfrEET+zGWEkivvNwVqsdN2HyrWSDF7NcmAxW6eAMfF0sKMvHQWA7TJl08nDTt3B8um+Smsb+e3uNLGgsPXpui3MElm5t+wPSYcUE7jyMcuH0CscCeA84Rc2wC0pQbrZ79jI8yWpNPJLu9uiaPooFVjKyeHVoQ8BM79wqVvdywNjW3Hu6kXGMrj8WXkdkCwabfBcrrDLTtjtwawJPwPxazwxi2Snw/PICKxgmtjUobrtgi2QI/Q+RzKY2wycijMvBlASCtyicQlcAqscS01bsubrGQo2a36Bu664UALrS7A5CQM1tdH7AUtWLCBzsern4PsW1hFqGkzyNvaEWhqQRbJdQeHiHHviPsyBvNEEQayoDExuiE+AU4AO8W45xzv+L7M0uoqxLucs2cj+pg0E64RUJdbQ9Xnm88dTGQVRvF0oWTd2TfC0xkYaG5Xk47dxR/vlhhOfElFQ7hejQijmAr5h27199n93Dekjy1yAyOwBc/ognLTB9beUYgy4zZgTDxcuHLzSiDI1/1/e+gXVFFequRKhJyYaG8DxSw+s7OKo+gRkEJ6ReEl53tPrRABK/dREbNdqhRrthMOPWAYD3CpPxEbEKORSk4tgDUc+J0UBYMZEOTehL+lEBXqt5eX9V+kdV3V1Fh2PEurLKgk0ZwosS+yjDxtBrbRafPzZUe7er7guYAZIk+Z0XINckWRdhGF2GrR96aX+fzDKhVe8e8TLB+w8yT/K+Y6Gbszl7QN3Irwn4j/h23VqlcFmRunauABlRwFLMNUkG3vYZ216rILV6d3pPzNxIUziFLe+iHfoOYmlia6yVvJuAC09WtsQGknC2wFlB/ojedzuut4U6gTFYIJVRAm+FG4Na7uUSQe215Xpt8YytA4SZ8bgNxf4Fpyo7E6t1r0Z6i3fBbArM2SKhiEkS/T/A7GcZkMb6akwHmCvFWXRo9Ut1V3oSGpCdMT/v1nBPT+XDBF84g2KXA3ErSuJCdEk/HYugpupieqkw8RGz5Z+1tby8v6t76IlSTHJIFsl1ZZUEmicnM1yDLWGfG4nVwDnhodl6WgP64kO2TnMnLewTdxsUqtJkwfqLi0G/0V1SMR44z6vO1BTXDqko+/R1QOBAdkr4tnS6raxssaxdUcgqgD5dimik6NLlOHunvgMK/DauYprfAtMYCsl6cJhytqsWEDNGkkaVC1gfH3vbeD5ojXoezSxPwDNDsu4JMDiX9HZk4v76OJOm4oOt1BEcSXdgJe/QA/2lY73YghDXwTKTA5Tw7Vd3D3+B7eSEi9xq0EbcaM9XFVVjKydjQBlsghHSx4U5C5wbFcIJDZKEMf21dPyBgaDzSRoqnpCO7Gy0R1o5PoIoVhf52D64HDi6wt1IVFAcUEeX589Y5oStUoTuz+ARkgE3uGTnwPds8wyu3SCcZTC1XIgonfuFSt7uWBsa23NC8j5N0Td801Qf0NVpX4aCFRNtWPXGA/vgmKH0+TNlB9O/40kD7ceUdsCFmQ/JDTYCgZ89s/k86sxB06FOBnJwAG2nGZMOLEuVGGRkT6KIxF0SBuJf0CPh3QB6o6IwO2OQkXvcgyhHZpGXH3uwTvMHgoRwfJTqRpGFHta81471D/fCpOBEhXhDDU0WgNjuQ87FwSSfFeRGNj3YTcS9KzK+LixeckSm6KfDNxLSa58DvhwJWQU58qXewzRf7FNdT6U7Ao8tbbVvjhJh8g69p4d5wpxt87EQ9Debp9Dp/6UvCZxn2NWWXERkSuS1Ss+/h6zjRlfhalhhCgKP9jcKhcaMRwlWZMTPsvJYuhQXPUU440x6oPlRdiX+0gDdorIcal6oVMkc9A+LoM5TOq5MRIkEUwSt/eK2WKrkPdKe93rnoaLizeAa5E6quiFEqdn2jdQmYY+2IjtKdUuS5R0YgHaPXqtUzAq4qzQDB+BbAqGAhvfFQXcE5t0coZTWrkRufx6tctGPu84GH03qZIR3CNGynT/kQfFrs1KN+pAV514ouhtioHRpe7+kY1x6RLhuVdmOEn1649MobOgHUeWxtPj1rVb8CIB+qaKAbbr1xv4iAwnmQjF88R7N9jI4N/Ll3ByhNIQpdtULb6MoIDYfVwuI7ev1yRe0lYzqR7MA2N3rW8tIZE+iaPvahXvBZWp17cwOWhY21O6do7NGiY1HrHIAG+5dpaD+odkSW4eOEqxoRaBePBYnXzx3UGt2Y51zOcWRZchRtiao2HIVKTcI4JPvRo5NMA55NWLyY5KvcEvWVOXQK48cnzW6gxQneco348V+6e+C3xmxa4s1N41tZ9VFJYftIevUAsbbRokuNCLPA15ntCgYke0G8GWO3XrmQxMcHHRLs8ASrFMek22/bsGLA+4mD6kmQVvn8j4ds6cKBQ3cX8aKrqjUWxMuFvQ8AjI4RoKMqISZjkuj11YPpnHGEB2ql1F0e+wGvFVJrLqQ1pZZNPQePL4r+8+s/EykRFzoS0zJjJfDgpxPUSSi1iwbKjVzBZjLEaoFug0D6+Z4Yw+KGLp/L3nMi4q2rUjgZja+xb5czMPFLA+rO66orhBDkQTtGBFL+Bd+LMm3Zz8E3DryFfSXbQJj0WLXHjUc3phVQTdxWOIE5/ECReoqhVOoa6D8uVWiyHZZ4yXIBquyhdOz7j2zDoewkxEDuzDvE8pbABMpqogcathiutw8crD0rvLRWcJJQp2HkgBtnB48dTSBzWt7eTcHRu2/X0allRSDworFEYMaWSAbE3bEYAdy3WICLl1VDB4KTAZcI1QzbZc+/yUPjm8PIHaqWd/a6Gq6UcT7FTs+hBa8R+2GnsQCVKVf9gOdRBKYj71199O1iBTje63f8u7Ro68zNKb7MSPV5l36rYuqa33Dqt6J0qkNIiU7sVW8gPyt6OJCQ3HayAGddizw5b97BrOfXbuwSOPS9JaF8buGVuIH18uHr+O/O53roXqKXQ8psEMwaoVUpOBWWFYKzIv268PR+ZQVc590WLW6/8T90698jFurrUmJ3oBC6SXq4fYVGmS9eMYmptzY8hEWnu2Ry5rBqmzZh5F3aJOkaXJ4EnYwbsJuJfP/skQssTlfNw0Hd/uoruxqV33oXYzZ0WGiA8Cr5o/Kk71MacVopoJ7sUQxASwrq2Smstg+T+Pu6jElRy7Ahyc35ph7bZ0HBwZmMKIMeRdyHMQqiGHjDPjnu73X0LML8RhWT/QM39+vJVqCnu3SnQh4q7v36Bj/nKA4G1UnbTT9ckutVkDC2grY1jJiM4kvUX+eCRbH2rkzPIWt36kBeoZwGuiE6GvK+I4y3hHOJnnvqAGxpesbgbd9Vku4TZIn41Fb1mYy+fpJ9k1WhTNlBZjYTY4RkkuSQKCwB9FxA5mr3jOtCz2wtl5Ks8tJvG3bQozJqvvYOwBNk9q1HC28FsxTzzzhaVFx5I4n2DM1zE5KMyUe/yZ3Q2d99sPWibEMsjb14jkq4hcVlKisJz8cdnhv0bURxogJH0YJGfdp6+0Wc6TIClmdQsQTKfutvgQvoWuAZ4iqtfvp96GQsVxzBSR7jdfiDPX2B5K3fNzdAvqIiaVlNL+j+CouV+neQnOp74hJw1XFFHnyxYspfdxGy4O8NVjvp0KDPsTYa6wyMD01n9H9LlYzbfvS9hUtVCp1RhSQgA085K6DV3oHyPDcxtk4RrE16AOUy3bs4kIlh8dFZiMuo/zHidc1g+ksj6BY5XJVWXPGa5a1BWEh5OivXgAAA4FsTR/aBj+BcUZA2s3a4eg9mdRK2mbZYVr2WlJwhLBTN62x6Sezu8fG804JWW8pvBRwiOR+7wXn9j/hjTVgPhSJp29/ioEGQwRF0CjEXZtZQHh4AvRu9+j2Na+lvG0VSyt5fZB5UOz53nfOSRYC3KZpGvaa0ImjFaATS3lNrAbkROtX13isNPvQNDnEZqxdw2wXqTMXPTcSxmSo77cbnZMd5psnvTsu+9zkj5AC31yoYC/9efIjvHMmfK8nGVQyo1/DBF/s7r39ALLI0LbAuvTmY4T66aC6FcppbZrpXqsidN6J6Xwg/SnmtACio2lrCOcYeVG/MZCBZd7TLYb7aH2y5Z4lnTjUr1HRqQ9RMqRSjWJ9W9jtEey9CZnoTJuxre2ubDNvIxkqsXuvhOYGwZW/NOnNZNy6ly10C+Gh/aA47jMKH0v5I0nKsefUfRMMQ869TaHCJPNdLnd6sX60pYLHObKldBoEiPMdhRPRa8Lv5FCtFuDpctFfwYphLejKs7XwCUs3F1PmgHFz6VJItGgbV+xsq6etpnLUkvHh/xMJkUenNV92p7jgTeaHKTBxAmntRTvLxkGZa1ulPQ6kY8DOMLsNWj7z6jFeYimsjb6pKLhrAk1r1lJVqvaqV3l8LARaC+UO1WrcZUm8lQBuyEPQPAXl0MYhhXbklM0lpts5N64FK7pjwVOMghpdBf5gqNrz59Waiea2YCANYj6d3EKrPSYySaZa/GU3mDHEPerA7yu2/dbfNjo2AbwBtCzesHo9mO4XlramH5uKDrdQQ/Z13YCXVS9oSyn1pcfbOEBtzx3zNgq3clmVNW8EVRKRkcptkfWnoI/NzyMzMbh9knfpsdORk+dC045frMuqBYXfjk39ZZ57HD9RziS3+sY7OhSJ/pYFZgkCg0zjoRWYSGR8TMMio0zhS5d0P+pXP+6Sr1ensrzor32P0/6bbTf0edyMf9mZhCkaakZesK5MhXWq6kuoRSDwu6F5HpRbeBNP5U/H9m24yLWvGBE7lPrcZB52LgPJw+PB0QP+yW7S0bNhKZJ1f5/MtF+pAVl1vvAe5JPYJWgVn4hUXjIO61TA1xjILGyFDx8l4dvlINwOKwacsEREACgipkACC2lKDvVmb9LIu/YdSl2K+lbY2d7acEMKC9YATa4zMRsJkiUaYNFuOeX5FJzdDz5x2XuAtpxIMhUSpPSfoqIkQSFhVyvLlj7DbcqT1E8DoPEUr4lAi77/TBbzlYz1Ik1CsTXoAxEwbAAUe+IpNI2HMW8EBd+AvGGvD/P0p5sLcNtc35tR+ZUqh765eZZpC8iJzeBkVS6xLNJjQaVor8RvB5X8jRTAYfZvGNTIXsFk0isZn6OxDun8+NcssFxtttvlIM4ahU+Nx9bWJLvwgc1quWHLvOhcko0/bDduz9TToT5bTfNynpLxTX38CFBxwYOD0ro9jcaHM0AGeagozqo3JqrrxwRBLHff8h9T3t+vZpD2tjLzuKAElkNSz9Fl/lTrUHrV6Em208nQZpPs/TBJ/wWItzAPJp5JqVjcDVnpVN4DNP69AWfl0koxGhJ65i5K7UDKIOX+rnKxLV7H9Exk7V35ZVfbEgEdEY2PUXcS9KzMkO1sLzvgY1qzoEAjpA1/WtwbTnEZbx/09OB+o2OfZGDq8kYucdnWDflaeku/ni6aZuTSEh+xfa1VVypL1i2VFfbfW9Xrm++3Y/PWZq1I1g07KN3OqDOHgKXCogTT4RVYC191qCKgNriYf4qA0tzSiHgwXNGiK5vlAM+1LpmjGOY8pDfAZMtSXsfa/No0jLODe68jAJq6vk2xxF15yZYep1dSEgMMb3A8paadtg7ffsHXFKNkAyyC6VLuhkNwIp9o1TRDRbf/ESBf0mmmSSaUc7weSbRTHLmRtVbCUWfhPnsuMw8XbkCUkdgXS3/ECuTW5zyjLnsRQzzs11n+KoBAGtT/v0NuP01UKVmFjI7u84KSBfAkSWFLqcwwnvmOx+YmxtGPO6o/TvjylcKtRUyioRVqQxWZpgggDTfVHga+xaHeXdMuTYtp4QLZMssbiMhFPngub766ChJ1CLQY9i/s1YVMmvuMsXkCUpEBti9fibs7bVIpRNzotu6hmlneV+bRp4Kf7HMpAnFcTKhswDY4oyfjByQu3t30P6QAWPo4jbBwEK6vJGLoa1iWPo8qzhaASWbyiR8TJFxWlPpWAJsh9jBH55An9+Q5QyZZgH3fKpFUwlhAQoMYsulOSNDuSbecVS19JkEIhnItdJEN4zfweppabZ0h7rG4esedYZJk6lZNhNXkMYR6ZH0+trGt5fYyZskM4p0GrU4IeyrOB4BX9WOeheaMV3X7G/UiQftGnJmQsekmx+wG89HULRgJ3Xn98cfJeHZypvFQn7LuUXJmFVLn65KiyqLnPAiR+xwDynq7KayTa37qsfeh67gLw1qO0ZuV2FB+iuxBAB8pZh44wu9akqdavTlm6Km0NckoJ0eMf2D/AB5a3BRArjtGIZesF+SpmOpVvih+Gv7qmk7z80MQ11BYAzNq8KKxP+13TCDgFrPOJ3NNCRuGtpPq9O710VTyACi/jQZYCwE6lNd2XnTBkzFbG2PHskgiPUgBA+BjLJS+JFeyk75edQGj20s6pKou4l8/+ycGX6Lom+vmhzpg8SfovjlXcNilOhgi+bIhPemShn5MUswqPQWftn3UExp8Ps3vuN63xGihA+tG22mjhDzQs18KblX5tGp1Jr0CGCL5vqOBUouNND//4Kx13R4OJ7BbJSYebl5XnPXeM+vXYKoP9FC9aZN+hy8q959TxnzizQzzr2X+B8CMzcKRBs3YOJ7aqotLtpp5QZ1wDTNDM2ecfFdiODLu+759RhhDTYghkKiVJxudGK+Hy+MtfjJihcxvH4lHwL9OubHImPcMCxkRS7uwtZpj2oIziTKyxxQkOTfHnHrfzqULl6wcpnG1PEiPXbOfVIX2dhOLHbysdjKE4iN/UU0BNR8v6myt5dKorpjEdy2c2yyNu4gFho02n8Mu+KHKwTbgWw5keEWBK2sLkdm6otZZ9B1h/w9erjqpziqvR9vOqKaH/iPP6tMV4J3aek2P/hOyuk+zRBR+1cZaIcyZIrxOG1nk9Bvo/c7nAI34iI9cEVU/qYCybdh/EmurKMdGMAOxFXT2wkFvlSPRl0G2YjtPcs7b8Cyt0IzMoB0EifiE4UEp6B8UgveG9s+gEfEBMsIkRM4LjB1KdvQpxGuzoxMB2gj7SjjTGMsof2nyl1ZtxJkigK/C3sFnpTqnbK6qCnjj3f3CRpEvBgZ8Iq8t1BF9ZwVWROt1bDeOT/SN3QIaBdAk8ClfvmMp2RC+9BrPeirF5O07lPbT/GlX6GMAqo3IYfTPJAK04hLzrzdzF3ITAlfbK6qCoYgVZn4SlNLXdMed4WhOUhvrGFx6fBu9aoqM1I8riNKCkt9NwdVvcSrboNO/3H8bAOJA3zztkqtPSQBo80SJJ7jMJcSg+Zw3D7GI1j5yWHCvN9tD31HqbNDwN/lG0etoO+hA6x8D88hKu12x9rGUcKH4K/UJQkpZ9z6hDQpHBbTbPgQWGoW6YKScDyLpj9X6HPwIc8Jbo/hyZlDvX3kUliY11SsQhl7YYBDOAQfH5nVb5ZRAr0Kt3UvlRwwVTVc2KTvDKeBy1y5CdknFsAak8OFWMbJjqYau0SAG3900NYVBJJwTi10jxF5YPTp3qnNmOv8XMFi3OgnFcliHMQIayJNEvqhQ60nYryFzMwL2nRvqHPlGVwxFWcLs0IObfKV18Lkl8Dpct1AkP2/tOJIOc0Sz3Dj2H2eg/GcqV6HlCd7VX+Gv5nYloCbzYNYgrgmmgNd93ahlMWzOxFFEK7IUMD3z4jy1WDKpa3M4KUQXenAL2hFn6MgbVtHp4Sr6cGiBX0qKkl1zRGvRVBwdEu0QeFdyvEbBWi90JVfEU8t2B1sTxOVsKheVwkDPfHyUddWZGcITlzP9/sxMfQBjVBopvTuhqathAMuUE0NP6Ywkt04VuOev32VhgWMiO1Z0hvPk0uUSNulXD4nOkUzdmWYUvSD83YucRzvSpTgtQ2bJ/pjgGR0Q2D8rxgUO7MPgkiBf4CaS+I9rRBFURrwk+tLPB7wOBNFKadnJCQDHnA3FHzxJ+G9c3HmiiHds03I6ITF4OD8l42lcAHOaiudDPTtC8I0raq5NNb5GBEYwJoTZMGY7iAdh23EvLLU4dMTS7ZbcR+OFTjX0ibSKAt9M0l++6H0exq7EsGkCNIGBTXNiQqjf9zzsNyoy5rFOjo1Xw+VBKJudOYeT0YWYT77EgoEs6otSsRiVr5GvQckLzBIqevpowaLuoFz5uvvLAAs+6oMkfBx2ltjWPngucDbXZYqeFeMABs1LmDhQQao0Wjvaaksq4Zn7LKfzARoJyC1w8EMKC4zITw0AP5/lasFSpgm6Oqm256qN3IKIAmldoJ6vTlaZC0/xph+qjVSzvSHYZH9jzalq4Y21q3/v15KTTyLMIGYOCcWvQUR3Er2C+7d3LnF+9zmFvHVsl246zZU7MCIDwKxcft/OCcDs586LAUGpCASIvBqzI5NujJdrBRKyAkkAZm3u2aGi3ASwh0qRbM+p9B9iFtWZ+Qw0fdm6JLHO6NrBR6ssFxR8V/Rw2QnaVmT4vPMhPEj/WUO6USmt2m9ZF7Oy/4HudKsU2z7AAFTrZwSVLjNpg1BhZNu2halv4IyvW+94rIIIZYLjbqRIeldL/q7XS/Stg04DRMEeDnNFCw6P4YgZI+vaF1at9PRnoq8vPFnFL389jeoowDC/zACZvuyhefiRemvy1y5jzPy6SU3dA4sN7oTOlPEBFDmXKdqcVH0/1M+zga6CQ8FCOIDX+5JouFEA8vglEiLQ9takksDNQBlTSExoGYsOcTP6rMV9Oujt1llXYp8etarflFw6APmZOJEMIDHXjIxiaQntNpOwayQNt3OU8CpgaCGw21vZGa68GJIyqT8G6cthpLVJcqkvIuifgFqDac4lQOQmLXiRTkpQ0VPkaPZNuphdVJUs5cI52qcNbTNFTMfAznCMcMwp6VlF3BSCkQ34gJ/pacRtKPAY9eNDZh98omhsIav9rd7gSyNK6zzU8SEo7O7c/KzK7S42wCkfyG6l6CbtW9L5/3PVG0Ma13FiTPWgFT44UKxXnWzQCmoHyUSP4G4aewA9cjVtFt9uD9PliVfEvtcQpvn4ewm+vPHWr9GVKFpFrry6u21fBI0W/rue6JrO3q0OEal2UjvShZ1+tQE1etTnoK0+CpDfWPlIa6TtHX/jMZ+QlFXLvs3Zcu4CjxLnPQDDPPGF4MEFO1T0cfqn9UIisoPyWzLAKAZ9qXCwnf1Xo9h6FPQMXaa8PyPoMZPK6G9/bObIbCvm/wVICDgBw3PHmEtoDcCw2z/FGT8VxV4FHMefdnG3KJ2c8kw8dWdcYtb+nmP3U1mV+3SjYwaUuc6YtUKhEADfJ8YW7fXLzLKIGYgZI+UCbw5VUexHVYQjklF9THYN9IjQknCMvZUaMIvmgJAn4Mf7v8tDnUIPkg7Wnn+lqzD3PSViv+lGssB0IUu2hTRX8HqtzvjZdxT1BUwjxx05DxXhV9r3xrLrfuv+5UVW6IAmSodHl4yDPi56DR3h53Y572ZYtfLNtXn/n84J2kQHb37ah2WdxuvQEPC8QbY4PsOGvo1LKikHhRWKIwY0skBlxOnMFLBaOCGkZPTYFzu/8X3MzDxhLBRf/eBSQY0mEOND2mOLqANOqq5Ujo4igh+qjhx9unuT4xRWYrmvtXinm9/5eLeCYO5dgQm+ULolsYTi8ae//DT9u2kHNs5r/zZvf7kQ2sipMmYrY2yPtKUh8uoJA1AMVl0nPAinsZPK42tTBhwWdUlUXcS+X8CvNpn+xzZw6oJYwYI3dLd5vuNleOMEgmlDFkTE/zhulLTTuy5+mkvCawkUZrK+7Gw1S8ZfpfP0RPa4w6QgNji9X8xfR0h+5JUP/iZi+yCmLtf1UYB+jGHzY4yUqIF/v21ydmQKuMLNuYIYtXenyHcYZ9cfTUaCC9cTBlJ49OugIj6ETC++moUOcN8zD/7Lgabf8gRccHZYnKzVBzlStgcRaw/qz8uklGI0JMD6+FyWbEld01Nn5cLda38Lj8r+BTArjALjX7s9g5YSyy/SgZzSrKEUEz9qLw449VG19Csshzl63+L7N/btyjo4W3f+ioh+u4V5OnSaA+ESPdIZI9CWmpKplctsgoGBU5svp2jxPxuiiQxvqo2TSk4KrQZN94pNJPZ3ePike5ZFXTn3eH6sVzo/MDEXogtZln6+YCfnu7mhCplpfC6W+4Cf7zF4qlnrKQf04GFNRMsW67qUm7WesBXegsPuNgbnXi1djTnvm2KV6a3kQ9ESFQ1c2Gi4Tn5ZFlsXjBJH73j1cfcs9n+iu3DGjgEQ8LUnjbuMhVspQjUMXtvHf68lJne1Ymi0KLuGpgxltf7lGN8uuBjANiDx8pbgMi0eAJhfZEGC1/Vg0DS+LzMmNCb/qoAGrA+1qHA6gaCOOKf5RRINd+0KvPkQoiry3L2w7pgExdsXsJMJ0T+S6wS5Bt59PQF2j0jw3U03bxkJ2TvxJswxPgEkvXgtey3bh+9/l4H45N3BgWk/YNUmQp25YP3W51Ts4GugkkBQVoQGw+rhcR29gWLayrg/LIGJjtR1+C8LURiHRXuJlUNpabwaoYJnT5QOObpLW3Ht7HD+ka9AJLN5RKZ3JpCe02k477YlcmjYCyrtLsxVnK8nGwif6Wm/1NEzAcPMPajPtcwtetDlTSaaXu78aHDt0hJMLfM6y65Op5t4nkIt6Xw6zFAJ+NeLfKY6XE+MA1xipvVQrztxJAC9PMXa/Kk5muuqhTW6q+0Pj2M8c/0Nqhb89Y/l8HZ3CSM37GwThP8tMwfUkyCt87ufK8c6tP2ANR0kQ9DCBUkV3DSgDQVCwclkqPa/No01yIJRoU9NtLbY7r99WWukOao+k1zRQY3uBDEXnk3BvDENC5iJne9ibxHNyyx1NsLj0oaCMdf1i72FyX0pIIpH90BP0yXNAcrN7Q2B0PkRC6PFKBP+s6otSsRiVryNgDq4AzZLisGgu85cTCXOQUzBU/p77OA3ZeZ7mWn7nk0BHhjjZ44UEm8KVGVJ9bgzzdyXgNCIZoKsO4bsM7lz5Ky8wcdXKYc65DI41uDac4QF9n3QTCcDKd5eMg25mQ/l8qmAxSyFl/vaadbv5Dde5TTAlCnYfFejsoFfwLiIAuXO7bSzqkqi4yp9ra1ABO8oIEvEzdahNGmbFQjJJgP6RXfYaPkubbmLVTxIHqYYxdNP0VER4nGOdM3lMEexKhSRBeMQmxe07QXDcdlc2+L4LR8tKTjpzarNysN+Tje+6gf1O8zHqx4JkRS7ov9lYgVvXLQmJLpeSJ0RXeBEGnuQgFYd2MKVcso3qlA18xT+61HM5xZhBgTMH7qg+27Q9qsXSru3fEiuTKe0vOm3KBIuJ7h5z2/TDhbFJyK28CafzRfsUQ9izqaxTbCcQ+eV5cC4uVJu8LjoJxuqzjwktp/SQXFP69Fw2eWWM9coruwZFO5GyeImtXm8G/bfUdw5yoAdAnMh3mifWEq3sWkEKVtUASg5i6pE/38ZF+cQw4JCmxXw+VhQz0X0raZwgxTPMtX/GEhPYqBvGMQ4Wsm9xI4MIBJ+hKOzJIzpTddoJYb3QmdQPXHRCf/8xUUw3+1fNWxd2tMW1OdOfouQs3OoicKCU9A+KQXvDe2fQCLEfQKoefKLmwvqWdrSCnrEgc6KjETbxZ/AC+yCFr+C8RxEtyghR9HWBWTeZ9rykS3yejb5MkLcOMcZLdJ5bTfNynpLxTX38CE59XIRPfW4YqU5RVOMEjzSOxUDf0LP2T4f+Ioet4Ty1TPQ7admWZgiACqNXJz9YAtSi3hX5kTohYap3VstW6idU/6ZODbk11FMkGz2mk4BL/LewPs1WBVxf1z/TbKMKrFiKVhCFojWeBss7QR8knGuPCNOsySvl2KQqvhb2oC41+7PYOWLOKXy75mizSAzUR/gu+QUzGZrz3bZ1njMDKOvwgsDYtrdiQmY5ehEBvSSHqeMXt/MWJeH5HzWsGDcDeu9uNj1Fxis+Xatjh6+t53SFtWbBqXVW3yhCeO5jP2hmitVhZWKx9pdV8jklcYtYx6nQDoCLeVaW/9EvBNhYvFdcZX4YEogHkiEmHQuFi4CWlKF80N9+T0Wbx8RnyNAdkK1VS0op0UlBSAoRLmZr1w4Xg2OB8vaYSMrNYg/C5LoX53KN78zXlVK5MJYDqs5APUqWFbdjsXRwT/S03+ppwJ9wAofaN9ABCiAHcqtjnpDlv/sMEXzQEgT2QrOErZhiLuKA4mXZnH2jHDKass2JmuXUc5BkwtsUtekNnWghLwB5VMCrtWVdCPXKQ8c2CmopRpn2DV2Yfk5xExdry+pqbCdr2Nz1baWoNt+Txm4n9RRimfOO8bI/vUx5ntDQkdusZOQ8d93rXwWFFLKiL3Bemv9RF9U6gOy9B6AR+ZQxHQo3FeRJVMd2tkIX8Vm83gxSQ1o45pqMz7gGgG1xMZ0IUOYF5+Q2Hxzghw7XipU4MzAbsFAUV8HlRvy39pQxpC3HhJtlE+jmX5KORlKmE11diniqIsBMds/xRr6osqfxL+FI1yArwzmWRe2PXYgsE/PhaTERLgajI9i/kwYWdUwezAQAB/ksdawOAe/CHV2oqbwcqMcXEnnoqExM8Y+ZfEIfCvWhn0JLK60GvHGCPuWjYSewo08feB1sx0NtKmCFnnxv3MPc9KJIexRmiX/H8sqvA2wZ7X9VjAWJQBELOB4BHANZQc/vUfcaxQF148hxMFn0AJ/Pmt86Yc3Tgtyj8ULzKHMD89GJJDwaX1ByAMcxDL1dDz/o85giIlRVorvOmr64yb9DvlyzyhHKPM3KekK3N9C/ec/tUGZJfv0nQaJ9ykYWDUvfbZCjIXiOIluGgY7HZ9uChUEYnztBsPWozBt0nalInx53f467NP5HKtEjjTAHvJjEWepp1D9q0wz0dtMHnVoVv49/Vo21GzmV/PnSnbyQZAd2DSpo2UDSFJG64ZYqZe2wJazy2ajI/Y4B35gaehwWdUlUXGjPVlTShM3FKm63tGXnlblnYo0yyTe/JFjfLrhJ1yf5kDZXeQfHN4eQO1UybVMTVAGGiVCLh6BOdJiWTeXlQo329lnWxkGDpwtHSH7fvAfNYh8HUl1CKQfecpZ60YoqwpIFiXAyZwBvX3GZfSNBb5ImYbP1nH34mAuaKeMyZ4/mChQveFC8/Rtw1osDTUSmaW4qhYIDYkqxoRfOmQIUGSOvd1ikYSwTJP4qHLkFC0OdEJmEApHLTufo8NsLsAaL2BswPoSOO0c/b14jkq4m+cR//rXxbAM+wJcg3S9ReZnbtA32lpW4wiRytU9i/TcdHplp/jTpFXcK8nNBSiTKXNoUw46gDY7iAuiPrBInATanXWPpdSMZcfO2/CKvKwmw7p0GHlW6tj0lCN9onJ6PYcCzi96sKtB8d8J0xbiAAZmCwWuFt/ddAZ413AKmBVb3jRgj9CBTwgfI8El3b8YrhvfV0POAjkjWxPGKlfZpVl69Eq7KFAopkAlJS93bRaFhmVCcEqb2r3VnVVnUAbvowgXDeWey0km7g0em0B3WPjDXJz6/LKaek24PPpivWZopOaUouMqfa2dA6Ffoo4gLazZGQavqmtyQvy+SID7kSv7hjWKhVxHZUwnnGgGL2VI3hrbl35ZVeM70u3CIeOrrhHZgMFX2+2iCGq1fJXjbIO2i5fwnJ76glQXw/MW/FT1d9MIvoEQEg0ER+g8PlKWmnFnnd2VSH1xUJNveVAG6fv1g6Q60QKXNMGpEANBHHFH1HiRhAa/3JInPXIYiRcnNBIf1DoSmwO0hxewj7kM89Yq+rsLX7UOfdddiCghErFjmH6iQQzxG125+u26RV6dyp8Bbwr/ltPJ8D4O/1kXtj0ED5vqZkMDzd7xsXRWiXMErj/57+XBqHmlCDP46KOoGQMLfN5zV3FXFqc5uOHoeIaxkZrK7vzWXWc2z7LblFRHdLSoS1zhL2Y3Ty+l/I4U43A61L8j+Jxc2BA0ZoQHpewMzuAUfJ/pJStqQ0HCdX0p1Tly6+41BNyWDBdJnsvPH3tCfbe/GsJWtQIQEiAjyDCoBObjh2UXcHaacMbDVZhRXVDU96eDLjiRQE/eqjQy7LixErtozfhwmWImUadI6jzBMeHkfU5HoIdiS7r2+ekWNfLgC2Iv+YEL5fSWsJuibjvYFVaADYLerRaQijiyDjFt/rXLbZ5ZYz1yia2eVPjVDwASv53r8SVZAjSBgU1zYkKo3/c8mgGTOQ3KvUSmwHOpQZv8ttYTiGDZGAido18Ps+2Ai0F4mzzLV/0NgyYCEFMirh69TjZZ1VMXPFQRhh5I7osiYwgWhulLTTwBxkCTSOgdhYRMLzb2rtmSHZaMa8QIoL0ooVEPZO4VTn0Xvda35/pkOo6dTJDHxg1H3RcbyoI5nLnO8VlCMDbTizeQu1uL0MIT5mB9fC5Lpr21UviziQpwbjXPZT1EnHUtPFQLSFPNlmfssp/MBGgnIICNtHg7r9ZTLi05M5E34QHmrHVHKUHnvGQnGZKj/CpbjbJZMNvIEKP33FjaybWxuquPkZGTD58PFRP78R9j93iH4wdlnDLrpqbSv7/2mm430kb+vXdouSLxLJgLR3Eu1UUmRcTB9jatFt388TMGCYkp3BVcLjKhC1ElOYkRKlHZo67Xxr8uS7WFxlcwBaHwka9dyDigA6uPwCwnopQQhdW8ItXy7E3eF2GIlkcv4fD+hWlfmm5KYzB2NawAbYwCj/SOgCFFyIKEV4815n9TZrZJYCNAQyNgO32vaPi9HislU8mTLE1c7IdE6PNCRvvfjVOUHG35uTFyX1fETO98L25R0TnrSBvk87IssCT6VOJPOvtS6dqsUP/s4KnjtRDltHffNYjauxKwJ1qp3ACCJFxo0Gnkef93oc+1jWU9xzd0qLcHRUh7Oj+FiJmDwtT25uj+0Q24cb9aUu5IU02g7WYyTHjHL7IGdUAcUWiSiLd5sYm3a8KoBz3endCe2QYaOUKFpOC0STZOXZMQFu4T2fYNw5m0wW8ZCIidOkzWN43tSfHctyICErWpu3MBqBuiQpmr1I5B+iFwLfw6CDqyocAWxfLxQWUGSm5fZ1klpyL5LJvaQuh73oqdQYRIoB7NpKTqiplguKPiv6OG46heBU7VE8PicRKselmJS+/WwAG1vXnHp/EAjY5Ex3uRgY2ofs5x9K9sUAvyOZFsdWXUJo4/LKuyhtkyO+oMcR1Zf34ym3RihMx0V5TDZNbAan+FEg/Ygq1DLLa32/X9vRzL8lHHeDJcF2Ts7xPKGrOaBNKIBfoSG1YjGCSZL1hfemjQqD67EFgn588eHaTTmh8bVUxoTqE2sGrZFFx6WpEBti9fiUHqO8zei4BNsWkKBfgG5JpGGOi+oyBcf1FcCh3P7K6095Z2C59r9OgiP+gUIOXb69wqMZsX/vf2Vwi4aY6IPN3q0MS4gOU2UWvXaSxfSzvO2ish0rUigqZ5Vt0oXT2XWnRke5bPrDxsUHbecvOYDoBngO5D/CZqaC7PcQBPlhwSfxjzJCQTTeCzmV8t7nacHB9IyqTsrElgfL13tAbPZCXpgMj9xTfeGd3g/hR7rAfltrGt6PInATYqgzaRjKRimA2w0feeGNv8cXig0IFQwKBpscjlYaBPP0hOWD26cuNAMDDZIU8yWjbD5wRqUibfsP+kViCI5nfNgrJxnYg2IPICl5Vmzd4d+/EB3XHhVXQP+06gLgX7gmlkjA2PC+22HB+PKg3VkuadP+zUhv6ejRDvzhV+5LLdeieuIcWqvQYYmQwop8MVeZiZYhSWyLKxmj2W+ElGXPRcYlMgL4tmhgeqj8xdEXKSCX3AjgpS6MRMPR+ogeZn414hhhMuUwVOUd3SBMnhc0gHsPgIxWvYGeMBkZ0/IsjAsNxFgfeQxJy0ymmO8ZCzpG9Uc2ay9ONWBd+QU2dzBbnAXMctU03lB9KshboESzJPhcN7fBWFj/JjoAS84DDm3cvuUFQZvqs3Mh3+CUUghA+WKwHdvOTPKq+4314Vx2vrhEz6WlIY7pzvgCoJDFEyFv0j78TEZ54EohTtppPw/Tcwktp/SQXFP9i53qdVixNFmAAk7kQbNDY+1odAOAIw+pm71Xu2cZdiGKNYen0xraYc+EEcEGH2arlEwm/tSx8Usej+ZJEAlD1usycngyxPVV5vVzAtx+3K6Qs/2UbkPXZJg2AZ+bUVAhextTbjPLPj9AYcosLaIREl489+QjmXxT+o4PVGAIFFhaCaj7fGBSTtIwHaeVW/2HMdOl2RqkBr7QCRope+3P76KY04rRTQYmmWLXyzVwIcAAgfC/wpLQPMwr67KGksSgDRTwUoEWdUlUXGVPtbWoAJ3lBAfw9HH7aAZaz+1KeNLai2Ld8wV0/tW5TbZDybaxEvs6AJF+xXIXol7Qdw+ZJfFFEHPpg/LEMjy1aOUerM5Iev9PU4K6LhW43HXJYD5tiLPjY5ma4v+k000juJ0NrF4wSR+949XH3LPZ/ortxRo+Ss4Zj4Nmtg6A90jYWJ1ENvgDAfA92zzDKsieBPI0UwpNAH2miEQ5tD744/on26thWzqXbVckCfl6f9G5lXAzCdvF2EhuaNGBcQ4J9in7GB+0ZqoKMATlHn9hCAUjMAIAIpUxUYdSvwA+8sA976EprpAetuUgcNe6lpQDCUuUeKeIAlXNAEHtGarjgDtpNs75wZF/FTvwV/kdj+N9VHBleTjr0WQHlMFoC5JL8VeEZHQHpY0TTYn3wYiRRUTQmPDxtE3vxlV7QDln7HcsuB5utldqV0A8NOjuXlEo1bUFj/Nep+Spw0Y8M+CtdOTAieuMtvphVZPUx+8d8HugKuqCT8NiIXjnu016lo2C6WVuL0Ic6CkKKWvNGarSgCtsztlWHY9ZqgaNA6BAurjdg9kKt0yYOnUY0lRMAgDJAXJ8PYwABHBVpdishH67UQAc90o1x1yc5GSzCWu6T4E02HmvwOl1SFuXxSOvf1G7aI7WEgtkCggM/P3R0ZuTrDRvY0H+MAGCEvPQvF4E6+FU87S1XSJHK2htfImkBPIiZ3vedTrmXv/QxGxJqxhpFbrYM+1TELQQ8FrwPKIgUoyT7fjY9RcYlMgBJ1dHGR4HYxrkJzRshWlDA/AANkdOULvFeby/fcsdTg09JSNfwPuLskOIloQZlMaDLthIKquBxvT4+YGGr0r9McN3LAgUXBqs8pqKL2s0LFjHWUtqj6+8UXPZ3AKPk/0kpUtMFh537gD3cN9m8AtvtKBN6ETm2rFHfc3n7EoKPeblJ5joyPn8ugLIjWzFDXnq/JPAqqyw1ZsiTgAECN8LDzefX3ikC+8lv0kIl/EMIUEtz2cVYB7ZpfNl3X7y+Bf71+HU0T68KaQIMrHcEVqvxr/sZjyEtPMfH/dkqKtFeAj97qKu/VA66hLs7ffMCfF2OhAOrigEGTqImWDBweDwDLChOHc8R2nmoW3gTT+aL9iiZzI8oQ8SwRnb5UtH++lvP4GMgAy3/2Gff13VV6gAHEycpETGzl3+FeTio2oACKqSqeWEyI2/EUmevumIwpbveHwrP25TFng9blMgJlGnSbTWoRHcDgNIRkyRZX+gA09gXnzszWWK+lbY+O/i8+y1f46Tw0kZAfW9kIXlScLOQxz7zXEYVqWYial/edoSrNZ+0fuV6+QyecxY2spKdFhqdQ9QebotDD1pXm3bGrFdV0nacEJH/2r/71Ztlp1Qvka4IxDN1hxyh93TRq7T7gZkRSdkCYycuy8fjdFd4yxDpbH36OXrH1k6gCeCFJ4Gq/zwVyOZcR/rqEuzt98wJ8XY6EA6uLxNQACai0A9WPq/stz2cTYV2Pod39R5Ko863OAzGb/K60uwWUZSFj+EA6bC+c1/NIeQdHj/38+pnmhomoJEuyuXa8VA33nHmXODa2ZGsL8QR1zVd5plY44ABLP2weumnbbwebB8o7VFTpy3qqCPTu4NBwiCUWw/VhhZyAepdx6OEPMh+zf1fFfkqFQYy22aAB+ib9JOPoNh1wlMtfpvDMzQGSEpYSJ9ENBYJvmnthH+CSygExFAo1YGipO+XokWkkq9IdhN8Mmw4eICdLOlcX9miqR9y8PpEh0hYh3MEcCEMIkUn1MZ1DLrdFx3LcsdvlIMxk7SsyfO0XSkLVm8AJWqFmRKfHK7t5XLzAQlUfZfXCsrg9CF2ERWUq6MlbGAs1nox/YrFfoo4gLazZCp7oxL7Y4maq68cEQSx33/IfU97gC1cTdA9CPCwuxmPe3V0AjkQwguThW4aZJEv9xl3YAZx/dzqg3cuK2+Ur9nlcNaOOaajNhUQldX8ckGhY/UUdfMoBd/4Z+4ws8kP/qQJajY0piyktBETa8PzvLApgNBWt8/DhIJNOtmmrnCZRrrefcAkjsxeADNI5H9FcjeGVw6rKdG0uapIIoGXazKzRTbEO3CnLmdWHVLz5/roD5JY63yyq9wj3+YU2C/yDxfIjqnYbCak3r6tiVAzHYLRfvNpAfsvC1tHrdrxz0ZQQO+xByM5kQIe1gBYCIORy43fP0YSz80myMFTrugrm0WEQGm2UpDNFpMiDCW447MM2HZBwaP3H1ZTLhI1TwDpPAJNITeuTCAZxJmfKHWCf3mZjkclxlcauJRhjPiVZkhO6OVtj/PEly97lUv37L/4/ptoK5YWLjC6Y8oCYRJVZq8mSgaJouUqwWka5EH1UAOdFnPKtr6PM0vOP11sgbVX7/l0E7u4EU+0fxoqpmHuirNRtZHWWzj2lRRWZhZBFnSmgZhBjAp+Ssl/MipUPM2AhF/B8CGkfk5en6B6lKHLkNkxWZKZVl8IlL8Oi+YkTVhqy7905gbiMSuSAkbtIHsGz9sDYxlj+s6onXAht0yPEJvXU/UvJDEAFUWVwTVYAyUj1fD/8gdM88tyW8sN+11oG7ga4z5B89OH4rYiwkfCc6Nw+U37K4m2b1Lf+0uNRkxBV9mLw49GIQZ5A2LTE8EkhmBf5hwR7MMwJNs+akBv1qzdfvDyNZfNRsAz9Rn167BVDgcB0MycJYgyvEFdceVOUxgP9vZc8BG7DTL+mf2sDDZXOQ5YRbOqPj3+K+FNuKmJr2gMrUyvmbQ2vbKOqDnKLSWm4lk8P+AOq193gVX2cqj4rky0cAMWsDmH+P+jkBMklin2ugTljHl6HSDLwGVnqLdyMunjGzzK0tFCkVnuRQBliMS1eGA7qZ47ptDp1qvPfGkysiBmpqnEKWz/d8MIgTBDdSIsdGvxY12ahithraVQrXUIcX/+RyFxrymRgmAkWqHS/wNvjHEu1bm0rlq7kZqmkkMT61kcdy01CnS1HueKXQRD4gHXFfbmgE8KtSWOG+9O4eDnNFSLjA3+f5mGczdHtBk/+A0Fbz56qRLGm8ci5JHXlUlxci6jHgD8vNK7hr1TD2d469Pl8DxzE+RDGH21pIpmgI5jFniOYAvjULwKGxQG/Uv3GU7t11QAZmJbZvZYNtxyqOqvtuzW3Lg44wCTrHPCh9A6Yc6JsSL5nJ+ASiXTh1BXSQFn5dJIcfypMDNFTOamYoDD745gGOWed8dqp3IhVARCjyFEnYja6Az+aYcH9K5BbcIj7TYVSSP94NLFj/lHRwtvBbMMsdfIIhKQlA2mffO2AjkoUmvOqkGmx2Um9GtVqEZ1IQCn8QWtdy+vvI5sxouH7DUnETq3xQ7ql3ytpOgStn2Kv2ybyhappe/xzc81ZGUfWfyulezXm9iZivNBVpyPTlY7mRi71sQ833locU3fL61qGsAsOpUTkmLkmf6bcYA1q2GkqLYxOzSBKG/pp0GJNEfB4NOY0ha49S6H1yMVztWOw491JWIAfh4gcTH/XaxlzHmDFJdEaIAfm4c2GxUBAPzzZZqEtbrhYKVi1N815kIwvo5uxmbY5k1/U8Gr5s9rt/5TfDt0eQcYIwXdcX1VJw6APliNy/jIzWV3fp+mmW2nK+ZcMIYMEYINzTAH2UXGjEK08iO98Q8DIpYAbBwQArvjDjtKdUuS5R0Y3BDQOJ9QRHv9ySO8+UpzaLJ6+Yp6RpYTmBsGWptXa6goMXlZqGSCDYiHU2t1IENJuFNTFOEtdAcf66hLs7ffMCfF51zGMR5k7TmLDxM4kwsuRKAkYtJabQvJ9yYLB0LY9S28CafzRfsUTN5x9+jl6aOvA9EkdciMA7iX6E0bqixbxYxj+4e0pGHgEIrtoV74RaLARhJHr08e1TQhZ94WI2RU5Ps1GSFUKVivcHZPpyh/tVeBgRtWGmLFSrLQWmFsJATIAZ2eNsDVHdLXC0bXkXxevzC/NbZfVZXNuV1FdCvbDuv31Uf2M1NmMZ+Ze1icYYSd5P3i8LN1Y6BifArwpSkxZE8UJDoGyRdgUM8PaO2u74AVybtOJ8N8S2GWUuAcSCRGzRA6ScwH9Irw3Gat3ulIFheZYRIqVXMjYkKpHvj5KO0edl/JmAdq4VfA8NcvgNO5ekBvwtD7PNTQN7UNQx5dAgTjdBGMbWpRwvokd2xjIIyGJUAA71CB8ITf3cu9uUV+lk0Zl3xmHAlaGq1uCvbRKAraARLPYNrdeqaTEpQhQiTkTUj0VPpiZVkDUQGqTHuZzjjoeADhZLMHOvT70s4bqqrlS5pPsazgaLyF2CDmUb910CQG9feR8dhwR9Lc5DWvyVakS57u2IwA6KHUpBTuirBprCavOGrmU13ZedDkEU+B/S5wO5V6D3VIbRD3h5YtFOajfaIVljeHvGX6x0e4MTOqZ1mkp0NGGA0WbPG1hcMXUBcOMZgy0tXY3YrO2WhNvO1bmkyVwA1iJGyha191bznj1f6lcaNU6EA46I7CDUZrNS4LpSMsSprgVcDWmFyZ6z1KlO7ixnPTj0PCPdX6yGYqD2sOHQyr1wIMT71tu2V1UFJC6F4qKWCdZDLj1zY5Ex+SWkgzZUzF9ejUgVp8nUSujc4uwj+QYosWA4Zhna7i/wOOKGsJ8jFvAKYz+E+Rv7LjweCJ6peTut1f2jLRXc0c7lbPZHGlBaY/Y0XgWrEe32dNQR8slkSealy1Q57mey2QDG12TmC5L8FacZmQDzFcGq87jbVPdJZIkp6E0bJGfg6FcHR2oeFIMI9TlNl5Tk0WXOJpaZhAs0Gyaa/PRPnPUrfeSa+kKMtBbooQP3PtGtdzqg3eh/BKtiQRylbD8O/x63fV5wbsfXYLnihXUj4KtdiFHvv8seVRn9zu/kRGY3BoUJ+dJoHw0gGlfExWFFajtmQY/k/Y3yCXCkXDxCtT9bpfigJgTjAu+9HfgoZnW6WKqMAJvI3s0Y4G3rDMTKLlM+ZxYIxqoPeFZ+BnPoG9ak76p9MbSEgUlJDj/1pb8U8VYg8bE3J1qNMoRCOr53fN4ATHOH4sBuaF5w1IQO/Sr3KL254H4bD3LjNnw4Gug6TYDGP+QrXgVlLmhPgQHq92uK+ZfEIfCvWhn0JLa8S5dQvRu8RUEc6/zk79lkQE1dVC2oZItRUgEeNUML8lAryW3L1oHlXKMqepqrsF6Xg/ipPGfiY528tyUGuT9coHmq01OFn/5yLO9XsnFkRLZ0AejOJGLpEGQ2boR9TWEum/0nG6P+H5m9hV+oXhKehiqsVtC3YHdgBAHxytBSSnNez+gcISFAQwRzHqnavReFfzLMh/ECNq3MiW4wDKwFkYArLNEeznstPWSPtUPhXxa2s9Xkh1TkrAQDAY9nrcnyfsevSqJMuGoHZ3uk/ZwL+G+bJj2A0qj1CNwyqGU9tE3x7Vgb4a/zDlt3mgSOvQnLzIk9pp+vyZrjwvFQoEt2tBrKVm3wAPn+ojc6OjrlFsrXR7hwwQVvAKEraIxuDrEL5K3jx155Y5i84ojKg2kswqfMa1bXukUYtOmg5G7ET7HA9YF2wu8x8o8OdRA7//ujHHNLm4Gcg5b5wvj61omRQzgw+5KCu8YEQ8YpFdos4V5iThREv8k43hm4FQrTsW6QHHp8gbnQP1xFhFe1ybojIMV94SM2tF+OTwIe6edVkY4D0b69iv1019bFC8zPGSKuo4iZFcPk96FdeGr5NTw0if5WNRbISDmWf//jh69OQa5H0R56k4Oa0J1PEgu0piuRF1YTZYVwBDiLdccPVw6c7GB9XJJH0IdrEUwQMeQBKcS3MwQQU2J8M5YH1GQQmdvYdKpm/5QNVbl4/2BJ+qM6KbNS81aNl6l0OV5t/5K3+uS8MqixGt+PxwnCxLxASwrn5jCnRcJjdNBjJGTetNfwZ64zGSxAOri813Cax0vzReRIlNSrqmB9Ch3USJ54O4GjcSZ49YJkn950FIUURyRuP+AA8P7sFtRu1DvE9yny/9Cl45kluHiyeburkoiuJcsC3nN/jRdAUCMQ7jw8yL66no2mTfgGnHffRtMm/ANSrU3Ty1WQIdv0WEad+j/gecd1JmY91FwcbGa+JWge0swrGpdhr8cKIZ3tUDH8n61S60Ef+Z2d6RLsFWn+cKfl6dvtogpiXkVJiFuVE6erse4EnrdSUAXdis3FzRUNEQ7OiaP3k1Smv/a0VoB7efg22/eYU8UIWwwGulYfu7KeAvDiybkcgACAa2uXUoik55omTn0cm2gVf3X+PsulIqApb+wAAhaOUnkJzg2BUCxeVSh4Z08+xQImnFevhSJMgSQUK/HtwmiJNt7YXr/8T7c+pN2wPrg8ca0XOQg+udjOg7qGwtyJAHBkvl5phCAAA7QpoYDGQ3byXoyJCofm+x6MdwDA242J/cUeKpTpswpSr8RqjDDsQ/yVXuZTi5+f/B5OPQa8aOg+MBNUQaIz1Lv0VMzF7sKJ9paRGeuF9pdtDM9ahGQyw8tAAAENFgftZalgkG64ULeJ+3nTPKrCPpe+lCMJIh3RRXQfJmLtSHR2g5zYbygOObRUwY9sWHscnMDcKGhKb1nGI5O6jJZdgSmaqulGAABtVHW5OIgAjEJ1YLm2mpem/Wlhlf+jQ+Ep+q/SePQoAcFKoHiSMc36UY9cHssr518cc3nALCA54ggGq8nTwnPvAXSDl38hcyQ3iQkVg/CzCJF1bckTCap6yqrcUypIYkNN1VI0C1cm9HSqrvz/2zE+8B8gud89JsdNCQmubScLPAsbHSLcvqnBLBbQgAEcruJ438qmaE6woLrM2K/2w87NxyiRN6/lC8346SXstY8e0rmPDU6cYAOEyK5dnOz7YZRs2U9nP+/GkyjF+Rj5OWgFiHyVZm00+Du43DLic+bSpDTB2XPhr/ESoADSGogV/ZL08+tbtFOvWd+9FUepmEBIDd5PkXbpYOgz2GS0LZnORYxzWNdTBcoW7NUh3XcMPJeleEqt1KxxGMnFyJPGT7GvqgQQE0KV1h+9LdNKce8ABr8XGnTewkm/h+D7iNn9kunzuRsNFh9DjeTzota6n/lue7MTAnS2ELo/vJYFAjLxuBxRnIshc0hLo4/gA244QrkANlFZ/uexUyI0wcdTlmYg9yRED1dGwFMKPJXbnzc0gJMPE72RroizUYH7gvWYIWQuqmfBs7/n6JfzYOZ1t8zkXjGgrwK1sLbwSGuLToQAFVMY2bwfYpIxmVzL6xQCHVPZq2qGDfzN53XXz3Szk957K5ktSHksbZ6SqlOYhfCl0Hs3pRDb3vezVKM/IYkA4ba56vvzTXENZDgiD49zRF7PYLtUZ+lpQgHUwm2Rad4XpHQSenx5v3u+7rGEw1eJLTjB6ahrc+Gm1RLFwIAk0PlGc2mDQq+o4VJUqLAAg08OFulh6JxQPUFsX7anQIXrr35DKFcTHGwaj0o/tF8pidO6X/L/9C8HwUt24Ef5Pp2tayNgJwRnOdPhNprJtvPoN5K357McqFRQ4IBqYtETzq2YNO2Yk1P6bqvuXJ4b1aO2KdRMI4WCl45jKldncPiMpbY5Avgr8xKYFl8NEuAAv4K1l6+C+EamVphKKq1hp+yNmfBCN7E08vkVetR6tuYb44cQtbOEtxJEAJC2u4u4Ql8fVEF/fZKggqcpBb32iIIw+SIluq3RbYewJrAPEv8QlZbMAAJiWat7Nf52kN81EWX70tXYSRGSWhe+1RyDN4dCHJ13hG8KErm+TteNEx2bno9QIdJJxgbj34cteR1o3KCzsojs5KahAnHTj+MTOcFRpc7vcMSN/fXypbXAsPcFNGUegoBhR5QTVWiJQ9aihUr1/JyOWFGFiPbw0h0cH5qlVCTGGGVgpMaNGCaAmXWuZZYJB58SFx3wAYHM8f54A8wtsM+mogxgKXhxnVvz9/iVarwGlvyNehQ6oGYmpibWl7K6N2Rs+vAu5m1EeuI7mHgBQNaijWLwLuZtRJF6pEGv45aWDzhVcqEQGfaRF2E2zXDJ2lGpx0fTEipxE3/aVxUddz6uVkXzRR+3KXkeI1xocmojIkOBSZN5hYRKkU+0fGGqXOI1IY/NZHhZ7JOTC8zPPnP2fATdvSgXzOpMXeSTF3kkxd5JMXeSTHEKBrWI7soIms3GoWEjbjGoypSu2sGXHu8OCVNU8a2xd94WkshqZ5NrD3kjQiHOc0WD8YVkTd+kKdMigt3NeFYy1E0wHXOfmVc3wkWbcxZcTWjpWk84f4ACT8f+z99Cey+86/93EMJTeZHZQ0iZJ4nAgcKKDWWv+uZBgleMijGGjlB+EG7ygTtP0yT6Ar6gyjOCzQAADMZBCMEUa2SHNRQS7gB/XnJC4Yy35IWMNvPrC/mrTI5fXxnKfd9JBa7oXTP2dsTTpyMCo1D6ixvT5UEZEpFcLEvfGUU0FfD0wK91QvBWtkvI92Lm+Pvfbmx5nVZSnYn95QQAAdE0AV1UwI+qsNdLwMgfvkprpnjS44ylpd/jszzi6sSwFcMUXcdycm9PM8XUjk08H/wy5QcuNbnlg7mEzPcU9vLozq5BEg46RSCVfL07/hmE2VqNmvLYdfFy9QgaT2++fdeCx2m20mpGxqei0AAZZafEUOxaOfnMjP5Zt8GPz7sn+6XhU9WzFmLv/U293u4p3MJAl4bCAYa68D6qB3jdXODfZXXOt+rie3+qrkdmBFydvjxbL3bzWCfPlNWAHUCfO+FddT8uuQnXuUlh/Dy983nME+6d6QAAChM203X0bGNtpJutEMXe0Pxb7ZKnSgsJt7zRP+YAf1jUaQ8mRm+mFyGDLaOTydqVZl+kRZu1EL+9KwU81gn5/pVQyCK+K7a2dxxgonyrrpczoKgS/r3KmiNocM0BaMYx+dsg+83h4dqMHYmdfx3nk0s/M1rIV0h/PIIkxjLzCaX5A1Y9yXxmmSJ+icKIVLGbv0fnrMokAArrG+pX6D4+myzSJ1eiis3lEYcCwrQ93B0jOG2Zu1fQJ1zsoP1tEqxPGMZbdvBdPoPPJ4jqVn4iO3JjVfkdSzMLgA5GHPruvVyLBpp/XexkR5hXipA3GkFSaX0RS1PeW1dW2py90gNucJgCvt1bx5MrS0ib+9O5oFJP5POjiI3y3/yT7/GTe8zGTAqOC5m4bjzy8WfC3VrEqgRn2qzR2NjRQL5jtX579wBnTedO+C9N8orAAALaWQKv7/gvpRGhclVwF2WczPzm8IYpYbFBDJzla2uFh0SHkdCUeNaItaArxW7o5vM/6Y2sZ8tdWjNXIEqKvBBkJwdyeTtR0ILCagckU690IsWCHFype368TUBZ4gPNiZsyoekr5DXJ6GQO1R8TD0vqa6x1xadgKhXQCBUG2o27pcUoy6QGPIG9cFq0w9j3/WgD5SEkbNKGTNYMQmieno7p0AnWMA2SCnk059W0Ykat6ovBwH38mI0nrD2kpRjwAB8OW1auXV4YYKCrwAY2GAEsuR/v79lu8wXcyZh0mGrIn1c8uOViY/3h5qNpwC0e5E7WFVGen/l/ERxz0pTNGBnMHcj2pbMT6ICRuzFrCG5OTNeKC02OVDMDz6YUCVg5HYU2ZjjOVPkNcK1BxVioFNLOEeCWrByHXFM1q8dWYsw8bN0mRids1Y39A+SI9ozi3y4gbD7+1OTWsozLbs5E/ynnJ5O8KeHgw0TciswSOLzdcxnuF1ZtI6VlpZPpmB+w00gAGkgVQss48MyW3Byl2A3/gtpuMelLQRgpqAX14U8k3lb2B1D2QDfWr2O2A7XeawwnMWB72hiOJExyClCZFiTXTP8ThgYh7VKrjuzfzY4H1x2NpaQreCpo5aND3HFEtI4eSNabo93eP9tNJ0caVAQZdn08KnUNVfMeODT6vBHL2Xdaoj8CP8juynLZidQEDb40IZWW8QsOQQcWTZ6hqf9L47EJqGQYfjVwh5yynBu9utQPeM8alfjy0Bg76FBNG8r0cQdHeII3L7TwqtSnwaXj02MiXvEnqWIBqTnXTVkqlYDW7Tz9nrYb0uiCj13z413CsqxDVF7J+NrKS6sQSSEdrFkgjDYulkBR8lmffrkHbTpmBZAWp29PfAAAAAAABxnegauTy8X7kjdSaOVWf8BRuxs1Law8p4MATzpCgcgvzcPLvM04Z3RxYv+fSPWITaDkdPm2Sye9KH7oF5JaPY8+BWUA+Cjo05mGJM4EhGA24EspG9A/e9UM6l7CfK//VECqf/oU70Ww5okiFBCuWigjZoLak+58kvYcQAAAAARVhJRroAAABFeGlmAABJSSoACAAAAAYAEgEDAAEAAAABAAAAGgEFAAEAAABWAAAAGwEFAAEAAABeAAAAKAEDAAEAAAACAAAAEwIDAAEAAAABAAAAaYcEAAEAAABmAAAAAAAAAEkZAQDoAwAASRkBAOgDAAAGAACQBwAEAAAAMDIxMAGRBwAEAAAAAQIDAACgBwAEAAAAMDEwMAGgAwABAAAA//8AAAKgBAABAAAAgAcAAAOgBAABAAAAQgIAAAAAAAA=;" parent="sFZHLIyC35yN5D26raUc-59" vertex="1">
                    <mxGeometry x="36" y="51" width="269.07" height="81" as="geometry"/>
                </mxCell>
                <mxCell id="sFZHLIyC35yN5D26raUc-31" value="&lt;span style=&quot;color: rgb(0, 0, 0); font-family: Helvetica; font-style: normal; font-variant-ligatures: normal; font-variant-caps: normal; font-weight: 400; letter-spacing: normal; orphans: 2; text-align: center; text-indent: 0px; text-transform: none; widows: 2; word-spacing: 0px; -webkit-text-stroke-width: 0px; white-space: normal; background-color: rgb(251, 251, 251); text-decoration-thickness: initial; text-decoration-style: initial; text-decoration-color: initial; float: none; display: inline !important;&quot;&gt;&lt;font style=&quot;font-size: 11px;&quot;&gt;SMSNotificationsTopic&lt;/font&gt;&lt;/span&gt;" style="outlineConnect=0;dashed=0;verticalLabelPosition=bottom;verticalAlign=top;align=center;html=1;shape=mxgraph.aws3.topic;fillColor=#6600CC;gradientColor=none;" parent="sFZHLIyC35yN5D26raUc-59" vertex="1">
                    <mxGeometry x="1175" y="508" width="35" height="42" as="geometry"/>
                </mxCell>
                <mxCell id="sFZHLIyC35yN5D26raUc-30" value="&lt;span style=&quot;text-wrap: wrap; background-color: light-dark(rgb(255, 255, 255), rgb(255, 255, 255));&quot;&gt;&lt;font style=&quot;font-size: 11px;&quot;&gt;EmailNotificationsTopic&lt;/font&gt;&lt;/span&gt;" style="outlineConnect=0;dashed=0;verticalLabelPosition=bottom;verticalAlign=top;align=center;html=1;shape=mxgraph.aws3.topic;fillColor=#6600CC;gradientColor=none;" parent="sFZHLIyC35yN5D26raUc-59" vertex="1">
                    <mxGeometry x="1107" y="632" width="35" height="42" as="geometry"/>
                </mxCell>
                <mxCell id="sFZHLIyC35yN5D26raUc-28" value="&lt;b style=&quot;color: rgb(41, 42, 46); text-align: left; white-space: pre-wrap; background-color: rgb(245, 245, 245);&quot;&gt;&lt;font&gt;lam_coto_push_notification&lt;/font&gt;&lt;/b&gt;" style="sketch=0;points=[[0,0,0],[0.25,0,0],[0.5,0,0],[0.75,0,0],[1,0,0],[0,1,0],[0.25,1,0],[0.5,1,0],[0.75,1,0],[1,1,0],[0,0.25,0],[0,0.5,0],[0,0.75,0],[1,0.25,0],[1,0.5,0],[1,0.75,0]];outlineConnect=0;fontColor=#232F3E;fillColor=#ED7100;strokeColor=#ffffff;dashed=0;verticalLabelPosition=bottom;verticalAlign=top;align=center;html=1;fontSize=12;fontStyle=0;aspect=fixed;shape=mxgraph.aws4.resourceIcon;resIcon=mxgraph.aws4.lambda;" parent="sFZHLIyC35yN5D26raUc-59" vertex="1">
                    <mxGeometry x="1040" y="364" width="78" height="78" as="geometry"/>
                </mxCell>
                <mxCell id="KngG31CLadpX5Tm5H7gd-0" value="&lt;b style=&quot;background-color: rgb(251, 251, 251);&quot;&gt;&lt;font style=&quot;background-color: light-dark(rgb(255, 255, 255), rgb(189, 199, 212));&quot;&gt;sqs_coto_audit_queue&lt;/font&gt;&lt;/b&gt;" style="sketch=0;points=[[0,0,0],[0.25,0,0],[0.5,0,0],[0.75,0,0],[1,0,0],[0,1,0],[0.25,1,0],[0.5,1,0],[0.75,1,0],[1,1,0],[0,0.25,0],[0,0.5,0],[0,0.75,0],[1,0.25,0],[1,0.5,0],[1,0.75,0]];outlineConnect=0;fontColor=#232F3E;fillColor=#FF0080;strokeColor=#ffffff;dashed=0;verticalLabelPosition=bottom;verticalAlign=top;align=center;html=1;fontSize=12;fontStyle=0;aspect=fixed;shape=mxgraph.aws4.resourceIcon;resIcon=mxgraph.aws4.sqs;shadow=0;labelBackgroundColor=#FFFFFF;direction=south;" parent="sFZHLIyC35yN5D26raUc-59" vertex="1">
                    <mxGeometry x="202" y="218" width="78" height="78" as="geometry"/>
                </mxCell>
                <mxCell id="KngG31CLadpX5Tm5H7gd-1" value="&lt;span style=&quot;color: rgb(41, 42, 46); font-style: normal; font-variant-ligatures: normal; font-variant-caps: normal; letter-spacing: normal; orphans: 2; text-align: left; text-indent: 0px; text-transform: none; widows: 2; word-spacing: 0px; -webkit-text-stroke-width: 0px; white-space: pre-wrap; text-decoration-thickness: initial; text-decoration-style: initial; text-decoration-color: initial; float: none; background-color: rgb(245, 245, 245); display: inline !important;&quot;&gt;&lt;font face=&quot;Helvetica&quot;&gt;&lt;b style=&quot;&quot;&gt;lam_coto_verificacion_notifications&lt;/b&gt;&lt;/font&gt;&lt;/span&gt;" style="sketch=0;points=[[0,0,0],[0.25,0,0],[0.5,0,0],[0.75,0,0],[1,0,0],[0,1,0],[0.25,1,0],[0.5,1,0],[0.75,1,0],[1,1,0],[0,0.25,0],[0,0.5,0],[0,0.75,0],[1,0.25,0],[1,0.5,0],[1,0.75,0]];outlineConnect=0;fontColor=#232F3E;fillColor=#ED7100;strokeColor=#ffffff;dashed=0;verticalLabelPosition=bottom;verticalAlign=top;align=center;html=1;fontSize=12;fontStyle=0;aspect=fixed;shape=mxgraph.aws4.resourceIcon;resIcon=mxgraph.aws4.lambda;" parent="sFZHLIyC35yN5D26raUc-59" vertex="1">
                    <mxGeometry x="202" y="614" width="78" height="78" as="geometry"/>
                </mxCell>
                <mxCell id="KngG31CLadpX5Tm5H7gd-8" value="" style="endArrow=classic;html=1;rounded=1;exitX=1;exitY=0.75;exitDx=0;exitDy=0;exitPerimeter=0;entryX=0.5;entryY=0;entryDx=0;entryDy=0;entryPerimeter=0;strokeColor=none;curved=0;" parent="sFZHLIyC35yN5D26raUc-59" source="KngG31CLadpX5Tm5H7gd-1" edge="1">
                    <mxGeometry width="50" height="50" relative="1" as="geometry">
                        <mxPoint x="713" y="453" as="sourcePoint"/>
                        <mxPoint x="489" y="725" as="targetPoint"/>
                        <Array as="points">
                            <mxPoint x="489" y="673"/>
                        </Array>
                    </mxGeometry>
                </mxCell>
                <mxCell id="KngG31CLadpX5Tm5H7gd-9" value="&lt;b style=&quot;color: rgb(35, 47, 62); text-wrap: nowrap; background-color: rgb(255, 255, 255);&quot;&gt;sns_notification_sender&lt;/b&gt;" style="text;html=1;align=center;verticalAlign=middle;whiteSpace=wrap;rounded=0;" parent="sFZHLIyC35yN5D26raUc-59" vertex="1">
                    <mxGeometry x="1324" y="296" width="60" height="30" as="geometry"/>
                </mxCell>
                <mxCell id="stoFDHdkruSmYjdUOvTd-0" value="&lt;b&gt;Amazon Cloudwatch&lt;/b&gt;" style="sketch=0;points=[[0,0,0],[0.25,0,0],[0.5,0,0],[0.75,0,0],[1,0,0],[0,1,0],[0.25,1,0],[0.5,1,0],[0.75,1,0],[1,1,0],[0,0.25,0],[0,0.5,0],[0,0.75,0],[1,0.25,0],[1,0.5,0],[1,0.75,0]];points=[[0,0,0],[0.25,0,0],[0.5,0,0],[0.75,0,0],[1,0,0],[0,1,0],[0.25,1,0],[0.5,1,0],[0.75,1,0],[1,1,0],[0,0.25,0],[0,0.5,0],[0,0.75,0],[1,0.25,0],[1,0.5,0],[1,0.75,0]];outlineConnect=0;fontColor=#232F3E;fillColor=#E7157B;strokeColor=#ffffff;dashed=0;verticalLabelPosition=bottom;verticalAlign=top;align=center;html=1;fontSize=12;fontStyle=0;aspect=fixed;shape=mxgraph.aws4.resourceIcon;resIcon=mxgraph.aws4.cloudwatch_2;" parent="sFZHLIyC35yN5D26raUc-59" vertex="1">
                    <mxGeometry x="1064" y="71" width="78" height="78" as="geometry"/>
                </mxCell>
                <mxCell id="sFZHLIyC35yN5D26raUc-61" value="" style="endArrow=none;html=1;rounded=1;exitX=1;exitY=0.25;exitDx=0;exitDy=0;exitPerimeter=0;entryX=0.5;entryY=1;entryDx=0;entryDy=0;entryPerimeter=0;curved=0;dashed=1;" parent="JSNP4mhpRl2PcN9VcqDA-1" source="JSNP4mhpRl2PcN9VcqDA-9" target="sFZHLIyC35yN5D26raUc-60" edge="1">
                    <mxGeometry width="50" height="50" relative="1" as="geometry">
                        <mxPoint x="722" y="782" as="sourcePoint"/>
                        <mxPoint x="772" y="732" as="targetPoint"/>
                        <Array as="points">
                            <mxPoint x="732" y="701"/>
                        </Array>
                    </mxGeometry>
                </mxCell>
                <mxCell id="sFZHLIyC35yN5D26raUc-64" value="Publish Message to topic" style="edgeLabel;html=1;align=center;verticalAlign=middle;resizable=0;points=[];" parent="JSNP4mhpRl2PcN9VcqDA-1" vertex="1" connectable="0">
                    <mxGeometry x="1015" y="1117" as="geometry">
                        <mxPoint x="-4" y="-5" as="offset"/>
                    </mxGeometry>
                </mxCell>
                <mxCell id="sFZHLIyC35yN5D26raUc-65" value="Publish Message to topic" style="edgeLabel;html=1;align=center;verticalAlign=middle;resizable=0;points=[];" parent="JSNP4mhpRl2PcN9VcqDA-1" vertex="1" connectable="0">
                    <mxGeometry x="1132" y="992" as="geometry">
                        <mxPoint x="-4" y="-5" as="offset"/>
                    </mxGeometry>
                </mxCell>
                <mxCell id="KngG31CLadpX5Tm5H7gd-5" value="" style="endArrow=none;html=1;rounded=1;curved=0;exitX=1;exitY=0.5;exitDx=0;exitDy=0;exitPerimeter=0;strokeColor=default;" parent="JSNP4mhpRl2PcN9VcqDA-1" source="KngG31CLadpX5Tm5H7gd-1" edge="1">
                    <mxGeometry width="50" height="50" relative="1" as="geometry">
                        <mxPoint x="331" y="1112" as="sourcePoint"/>
                        <mxPoint x="538" y="609" as="targetPoint"/>
                        <Array as="points">
                            <mxPoint x="430" y="1112"/>
                            <mxPoint x="430" y="651"/>
                            <mxPoint x="538" y="651"/>
                        </Array>
                    </mxGeometry>
                </mxCell>
                <mxCell id="KngG31CLadpX5Tm5H7gd-6" value="" style="endArrow=classic;html=1;rounded=1;exitX=1;exitY=0.25;exitDx=0;exitDy=0;exitPerimeter=0;curved=0;" parent="JSNP4mhpRl2PcN9VcqDA-1" source="KngG31CLadpX5Tm5H7gd-1" target="8IwIn7CuARTH8-s8vMAV-0" edge="1">
                    <mxGeometry width="50" height="50" relative="1" as="geometry">
                        <mxPoint x="764" y="877" as="sourcePoint"/>
                        <mxPoint x="814" y="827" as="targetPoint"/>
                        <Array as="points">
                            <mxPoint x="407" y="1092"/>
                            <mxPoint x="407" y="910"/>
                        </Array>
                    </mxGeometry>
                </mxCell>
                <mxCell id="stoFDHdkruSmYjdUOvTd-3" style="edgeStyle=orthogonalEdgeStyle;rounded=1;orthogonalLoop=1;jettySize=auto;html=1;curved=0;" parent="JSNP4mhpRl2PcN9VcqDA-1" source="stoFDHdkruSmYjdUOvTd-0" target="sFZHLIyC35yN5D26raUc-1" edge="1">
                    <mxGeometry relative="1" as="geometry"/>
                </mxCell>
                <mxCell id="stoFDHdkruSmYjdUOvTd-4" value="Monitoring sent Notification" style="edgeLabel;html=1;align=center;verticalAlign=middle;resizable=0;points=[];" parent="stoFDHdkruSmYjdUOvTd-3" vertex="1" connectable="0">
                    <mxGeometry x="-0.3039" y="-3" relative="1" as="geometry">
                        <mxPoint y="-3" as="offset"/>
                    </mxGeometry>
                </mxCell>
            </root>
        </mxGraphModel>
    </diagram>
</mxfile>